G04 #@! TF.FileFunction,Legend,Top*
%FSLAX46Y46*%
G04 Gerber Fmt 4.6, Leading zero omitted, Abs format (unit mm)*
G04 Created by KiCad (PCBNEW 4.0.7-e2-6376~58~ubuntu14.04.1) date Mon Oct 30 23:08:22 2017*
%MOMM*%
%LPD*%
G01*
G04 APERTURE LIST*
%ADD10C,0.100000*%
%ADD11C,0.120000*%
%ADD12C,0.150000*%
G04 APERTURE END LIST*
D10*
D11*
X139270000Y-134000000D02*
X139270000Y-135270000D01*
X139270000Y-135270000D02*
X138000000Y-135270000D01*
D12*
X143325000Y-117500000D02*
X143325000Y-116500000D01*
X144675000Y-116500000D02*
X144675000Y-117500000D01*
X144675000Y-126700000D02*
X144675000Y-127700000D01*
X143325000Y-127700000D02*
X143325000Y-126700000D01*
X144675000Y-111700000D02*
X144675000Y-112700000D01*
X143325000Y-112700000D02*
X143325000Y-111700000D01*
X137566667Y-136052381D02*
X137566667Y-136766667D01*
X137519047Y-136909524D01*
X137423809Y-137004762D01*
X137280952Y-137052381D01*
X137185714Y-137052381D01*
X137995238Y-136147619D02*
X138042857Y-136100000D01*
X138138095Y-136052381D01*
X138376191Y-136052381D01*
X138471429Y-136100000D01*
X138519048Y-136147619D01*
X138566667Y-136242857D01*
X138566667Y-136338095D01*
X138519048Y-136480952D01*
X137947619Y-137052381D01*
X138566667Y-137052381D01*
X144316667Y-119166666D02*
X143983333Y-119400000D01*
X144316667Y-119566666D02*
X143616667Y-119566666D01*
X143616667Y-119300000D01*
X143650000Y-119233333D01*
X143683333Y-119200000D01*
X143750000Y-119166666D01*
X143850000Y-119166666D01*
X143916667Y-119200000D01*
X143950000Y-119233333D01*
X143983333Y-119300000D01*
X143983333Y-119566666D01*
X144316667Y-118500000D02*
X144316667Y-118900000D01*
X144316667Y-118700000D02*
X143616667Y-118700000D01*
X143716667Y-118766666D01*
X143783333Y-118833333D01*
X143816667Y-118900000D01*
X144316667Y-125116666D02*
X143983333Y-125350000D01*
X144316667Y-125516666D02*
X143616667Y-125516666D01*
X143616667Y-125250000D01*
X143650000Y-125183333D01*
X143683333Y-125150000D01*
X143750000Y-125116666D01*
X143850000Y-125116666D01*
X143916667Y-125150000D01*
X143950000Y-125183333D01*
X143983333Y-125250000D01*
X143983333Y-125516666D01*
X143683333Y-124850000D02*
X143650000Y-124816666D01*
X143616667Y-124750000D01*
X143616667Y-124583333D01*
X143650000Y-124516666D01*
X143683333Y-124483333D01*
X143750000Y-124450000D01*
X143816667Y-124450000D01*
X143916667Y-124483333D01*
X144316667Y-124883333D01*
X144316667Y-124450000D01*
X144316667Y-110116666D02*
X143983333Y-110350000D01*
X144316667Y-110516666D02*
X143616667Y-110516666D01*
X143616667Y-110250000D01*
X143650000Y-110183333D01*
X143683333Y-110150000D01*
X143750000Y-110116666D01*
X143850000Y-110116666D01*
X143916667Y-110150000D01*
X143950000Y-110183333D01*
X143983333Y-110250000D01*
X143983333Y-110516666D01*
X143616667Y-109883333D02*
X143616667Y-109450000D01*
X143883333Y-109683333D01*
X143883333Y-109583333D01*
X143916667Y-109516666D01*
X143950000Y-109483333D01*
X144016667Y-109450000D01*
X144183333Y-109450000D01*
X144250000Y-109483333D01*
X144283333Y-109516666D01*
X144316667Y-109583333D01*
X144316667Y-109783333D01*
X144283333Y-109850000D01*
X144250000Y-109883333D01*
M02*
