M48
;DRILL file {KiCad 4.0.7-e2-6376~58~ubuntu14.04.1} date Mon Oct 30 23:08:24 2017
;FORMAT={-:-/ absolute / inch / decimal}
FMAT,2
INCH,TZ
T1C0.012
T2C0.037
T3C0.039
%
G90
G05
M72
T1
X5.1329Y-5.0246
X5.1339Y-4.3829
X5.1673Y-4.4902
X5.2008Y-4.626
X5.2028Y-4.7844
X5.2224Y-5.122
X5.2402Y-4.6929
X5.2402Y-4.8809
X5.252Y-4.5856
X5.2717Y-4.9774
X5.4911Y-4.8238
X5.4951Y-4.4213
X5.5276Y-4.3268
X5.5285Y-4.6762
X5.5541Y-4.2274
X5.5551Y-4.7756
X5.5856Y-3.8533
X5.5856Y-4.9774
T2
X5.0394Y-3.1854
X5.0394Y-3.2854
X5.0394Y-3.3854
X5.0394Y-3.4854
X5.0394Y-3.5854
X5.0394Y-3.6854
X5.0394Y-3.7854
X5.0394Y-3.8854
X5.0394Y-3.9854
X5.0394Y-4.0854
X5.0394Y-4.1854
X5.0394Y-4.2854
X5.0394Y-4.3854
X5.0394Y-4.4854
X5.0394Y-4.5854
X5.0394Y-4.6854
X5.0394Y-4.7854
X5.0394Y-4.8854
T3
X5.3331Y-3.3756
X5.3331Y-3.4756
X5.3331Y-3.5756
X5.3331Y-3.6756
X5.3331Y-3.7756
X5.3331Y-3.8756
X5.3331Y-3.9756
X5.3331Y-4.0756
X5.3331Y-4.1756
X5.3331Y-4.2756
X5.3331Y-4.3756
X5.3331Y-4.4756
X5.3331Y-4.5756
X5.3331Y-4.6756
X5.3331Y-4.7756
X5.3331Y-4.8756
X5.3331Y-4.9756
X5.3331Y-5.0756
X5.3331Y-5.1756
X5.3331Y-5.2756
X5.4331Y-3.3756
X5.4331Y-3.4756
X5.4331Y-3.5756
X5.4331Y-3.6756
X5.4331Y-3.7756
X5.4331Y-3.8756
X5.4331Y-3.9756
X5.4331Y-4.0756
X5.4331Y-4.1756
X5.4331Y-4.2756
X5.4331Y-4.3756
X5.4331Y-4.4756
X5.4331Y-4.5756
X5.4331Y-4.6756
X5.4331Y-4.7756
X5.4331Y-4.8756
X5.4331Y-4.9756
X5.4331Y-5.0756
X5.4331Y-5.1756
X5.4331Y-5.2756
T0
M30
