G04 #@! TF.FileFunction,Copper,L2,Bot,Signal*
%FSLAX46Y46*%
G04 Gerber Fmt 4.6, Leading zero omitted, Abs format (unit mm)*
G04 Created by KiCad (PCBNEW 4.0.7-e2-6376~58~ubuntu14.04.1) date Mon Oct 30 23:08:22 2017*
%MOMM*%
%LPD*%
G01*
G04 APERTURE LIST*
%ADD10C,0.100000*%
%ADD11C,1.500000*%
%ADD12R,1.700000X1.700000*%
%ADD13O,1.700000X1.700000*%
%ADD14C,0.600000*%
%ADD15C,0.200000*%
G04 APERTURE END LIST*
D10*
D11*
X128000000Y-85990000D03*
X128000000Y-88530000D03*
X128000000Y-91070000D03*
X128000000Y-93610000D03*
X128000000Y-96150000D03*
X128000000Y-98690000D03*
X128000000Y-101230000D03*
X128000000Y-103770000D03*
X128000000Y-106310000D03*
X128000000Y-108850000D03*
X128000000Y-111390000D03*
X128000000Y-113930000D03*
X128000000Y-116470000D03*
X128000000Y-119010000D03*
X128000000Y-121550000D03*
X128000000Y-124090000D03*
X128000000Y-83450000D03*
X128000000Y-80910000D03*
D12*
X138000000Y-134000000D03*
D13*
X135460000Y-134000000D03*
X138000000Y-131460000D03*
X135460000Y-131460000D03*
X138000000Y-128920000D03*
X135460000Y-128920000D03*
X138000000Y-126380000D03*
X135460000Y-126380000D03*
X138000000Y-123840000D03*
X135460000Y-123840000D03*
X138000000Y-121300000D03*
X135460000Y-121300000D03*
X138000000Y-118760000D03*
X135460000Y-118760000D03*
X138000000Y-116220000D03*
X135460000Y-116220000D03*
X138000000Y-113680000D03*
X135460000Y-113680000D03*
X138000000Y-111140000D03*
X135460000Y-111140000D03*
X138000000Y-108600000D03*
X135460000Y-108600000D03*
X138000000Y-106060000D03*
X135460000Y-106060000D03*
X138000000Y-103520000D03*
X135460000Y-103520000D03*
X138000000Y-100980000D03*
X135460000Y-100980000D03*
X138000000Y-98440000D03*
X135460000Y-98440000D03*
X138000000Y-95900000D03*
X135460000Y-95900000D03*
X138000000Y-93360000D03*
X135460000Y-93360000D03*
X138000000Y-90820000D03*
X135460000Y-90820000D03*
X138000000Y-88280000D03*
X135460000Y-88280000D03*
X138000000Y-85740000D03*
X135460000Y-85740000D03*
D14*
X130375000Y-127625000D03*
X130400000Y-111325000D03*
X132650000Y-130100000D03*
X131250000Y-114050000D03*
X141875000Y-126425000D03*
X141875000Y-97875000D03*
X141100000Y-121300000D03*
X141075000Y-107375000D03*
X140425000Y-118775000D03*
X140400000Y-109900000D03*
X133400000Y-116475000D03*
X133900000Y-126425000D03*
X133100000Y-123975000D03*
X133100000Y-119200000D03*
X132100000Y-117500000D03*
X132150000Y-121525000D03*
X139575000Y-112300000D03*
X139475000Y-122525000D03*
D15*
X130375000Y-111350000D02*
X130375000Y-127625000D01*
X130400000Y-111325000D02*
X130375000Y-111350000D01*
X132650000Y-129600000D02*
X132650000Y-130100000D01*
X131325000Y-128275000D02*
X132650000Y-129600000D01*
X131325000Y-114125000D02*
X131325000Y-128275000D01*
X131250000Y-114050000D02*
X131325000Y-114125000D01*
X141875000Y-97875000D02*
X141875000Y-126425000D01*
X141075000Y-121275000D02*
X141100000Y-121300000D01*
X141075000Y-107375000D02*
X141075000Y-121275000D01*
X140425000Y-109925000D02*
X140425000Y-118775000D01*
X140400000Y-109900000D02*
X140425000Y-109925000D01*
X133800000Y-116875000D02*
X133400000Y-116475000D01*
X133800000Y-122600000D02*
X133800000Y-116875000D01*
X133900000Y-122700000D02*
X133800000Y-122600000D01*
X133900000Y-126425000D02*
X133900000Y-122700000D01*
X133100000Y-123975000D02*
X133100000Y-119200000D01*
X133125000Y-119200000D02*
X133100000Y-119200000D01*
X132100000Y-121475000D02*
X132100000Y-117500000D01*
X132150000Y-121525000D02*
X132100000Y-121475000D01*
X139575000Y-122425000D02*
X139575000Y-112300000D01*
X139475000Y-122525000D02*
X139575000Y-122425000D01*
G36*
X144599541Y-79552583D02*
X145107806Y-79892194D01*
X145447418Y-80400460D01*
X145575000Y-81041860D01*
X145575000Y-139958140D01*
X145447418Y-140599540D01*
X145107806Y-141107806D01*
X144599541Y-141447417D01*
X143958140Y-141575000D01*
X132041860Y-141575000D01*
X131400460Y-141447418D01*
X130892194Y-141107806D01*
X130552583Y-140599541D01*
X130425000Y-139958140D01*
X130425000Y-134173253D01*
X134525932Y-134173253D01*
X134530729Y-134197388D01*
X134677003Y-134537979D01*
X134942481Y-134796668D01*
X135286746Y-134934071D01*
X135435000Y-134924674D01*
X135435000Y-134025000D01*
X135485000Y-134025000D01*
X135485000Y-134924674D01*
X135633254Y-134934071D01*
X135977519Y-134796668D01*
X136242997Y-134537979D01*
X136389271Y-134197388D01*
X136394068Y-134173253D01*
X136384662Y-134025000D01*
X135485000Y-134025000D01*
X135435000Y-134025000D01*
X134535338Y-134025000D01*
X134525932Y-134173253D01*
X130425000Y-134173253D01*
X130425000Y-133826747D01*
X134525932Y-133826747D01*
X134535338Y-133975000D01*
X135435000Y-133975000D01*
X135435000Y-133075326D01*
X135485000Y-133075326D01*
X135485000Y-133975000D01*
X136384662Y-133975000D01*
X136394068Y-133826747D01*
X136389271Y-133802612D01*
X136242997Y-133462021D01*
X135977519Y-133203332D01*
X135843895Y-133150000D01*
X136793144Y-133150000D01*
X136793144Y-134850000D01*
X136817549Y-134979702D01*
X136894203Y-135098825D01*
X137011163Y-135178741D01*
X137150000Y-135206856D01*
X138850000Y-135206856D01*
X138979702Y-135182451D01*
X139098825Y-135105797D01*
X139178741Y-134988837D01*
X139206856Y-134850000D01*
X139206856Y-133150000D01*
X139182451Y-133020298D01*
X139105797Y-132901175D01*
X138988837Y-132821259D01*
X138850000Y-132793144D01*
X137150000Y-132793144D01*
X137020298Y-132817549D01*
X136901175Y-132894203D01*
X136821259Y-133011163D01*
X136793144Y-133150000D01*
X135843895Y-133150000D01*
X135633254Y-133065929D01*
X135485000Y-133075326D01*
X135435000Y-133075326D01*
X135286746Y-133065929D01*
X134942481Y-133203332D01*
X134677003Y-133462021D01*
X134530729Y-133802612D01*
X134525932Y-133826747D01*
X130425000Y-133826747D01*
X130425000Y-132000000D01*
X130416834Y-131958947D01*
X130416834Y-131917086D01*
X130360377Y-131633253D01*
X134525932Y-131633253D01*
X134530729Y-131657388D01*
X134677003Y-131997979D01*
X134942481Y-132256668D01*
X135286746Y-132394071D01*
X135435000Y-132384674D01*
X135435000Y-131485000D01*
X135485000Y-131485000D01*
X135485000Y-132384674D01*
X135633254Y-132394071D01*
X135977519Y-132256668D01*
X136242997Y-131997979D01*
X136389271Y-131657388D01*
X136394068Y-131633253D01*
X136384662Y-131485000D01*
X135485000Y-131485000D01*
X135435000Y-131485000D01*
X134535338Y-131485000D01*
X134525932Y-131633253D01*
X130360377Y-131633253D01*
X130325915Y-131460000D01*
X136776491Y-131460000D01*
X136867836Y-131919220D01*
X137127963Y-132308528D01*
X137517271Y-132568655D01*
X137976491Y-132660000D01*
X138023509Y-132660000D01*
X138482729Y-132568655D01*
X138872037Y-132308528D01*
X139132164Y-131919220D01*
X139223509Y-131460000D01*
X139132164Y-131000780D01*
X138872037Y-130611472D01*
X138482729Y-130351345D01*
X138023509Y-130260000D01*
X137976491Y-130260000D01*
X137517271Y-130351345D01*
X137127963Y-130611472D01*
X136867836Y-131000780D01*
X136776491Y-131460000D01*
X130325915Y-131460000D01*
X130291452Y-131286747D01*
X134525932Y-131286747D01*
X134535338Y-131435000D01*
X135435000Y-131435000D01*
X135435000Y-130535326D01*
X135485000Y-130535326D01*
X135485000Y-131435000D01*
X136384662Y-131435000D01*
X136394068Y-131286747D01*
X136389271Y-131262612D01*
X136242997Y-130922021D01*
X135977519Y-130663332D01*
X135633254Y-130525929D01*
X135485000Y-130535326D01*
X135435000Y-130535326D01*
X135286746Y-130525929D01*
X134942481Y-130663332D01*
X134677003Y-130922021D01*
X134530729Y-131262612D01*
X134525932Y-131286747D01*
X130291452Y-131286747D01*
X130264593Y-131151720D01*
X130201134Y-130998516D01*
X129767589Y-130349669D01*
X129650331Y-130232411D01*
X129001484Y-129798866D01*
X128848281Y-129735407D01*
X128848280Y-129735407D01*
X128082913Y-129583166D01*
X127400460Y-129447418D01*
X126892194Y-129107806D01*
X126552583Y-128599541D01*
X126425000Y-127958140D01*
X126425000Y-127753726D01*
X129724888Y-127753726D01*
X129823636Y-127992714D01*
X130006324Y-128175722D01*
X130245140Y-128274887D01*
X130503726Y-128275112D01*
X130742714Y-128176364D01*
X130875000Y-128044309D01*
X130875000Y-128275000D01*
X130909254Y-128447208D01*
X130964073Y-128529250D01*
X131006802Y-128593198D01*
X132122123Y-129708519D01*
X132099278Y-129731324D01*
X132000113Y-129970140D01*
X131999888Y-130228726D01*
X132098636Y-130467714D01*
X132281324Y-130650722D01*
X132520140Y-130749887D01*
X132778726Y-130750112D01*
X133017714Y-130651364D01*
X133200722Y-130468676D01*
X133299887Y-130229860D01*
X133300112Y-129971274D01*
X133201364Y-129732286D01*
X133100000Y-129630744D01*
X133100000Y-129600000D01*
X133065746Y-129427792D01*
X132968198Y-129281802D01*
X132606396Y-128920000D01*
X134236491Y-128920000D01*
X134327836Y-129379220D01*
X134587963Y-129768528D01*
X134977271Y-130028655D01*
X135436491Y-130120000D01*
X135483509Y-130120000D01*
X135942729Y-130028655D01*
X136332037Y-129768528D01*
X136592164Y-129379220D01*
X136683509Y-128920000D01*
X136776491Y-128920000D01*
X136867836Y-129379220D01*
X137127963Y-129768528D01*
X137517271Y-130028655D01*
X137976491Y-130120000D01*
X138023509Y-130120000D01*
X138482729Y-130028655D01*
X138872037Y-129768528D01*
X139132164Y-129379220D01*
X139223509Y-128920000D01*
X139132164Y-128460780D01*
X138872037Y-128071472D01*
X138482729Y-127811345D01*
X138023509Y-127720000D01*
X137976491Y-127720000D01*
X137517271Y-127811345D01*
X137127963Y-128071472D01*
X136867836Y-128460780D01*
X136776491Y-128920000D01*
X136683509Y-128920000D01*
X136592164Y-128460780D01*
X136332037Y-128071472D01*
X135942729Y-127811345D01*
X135483509Y-127720000D01*
X135436491Y-127720000D01*
X134977271Y-127811345D01*
X134587963Y-128071472D01*
X134327836Y-128460780D01*
X134236491Y-128920000D01*
X132606396Y-128920000D01*
X131775000Y-128088604D01*
X131775000Y-122069387D01*
X131781324Y-122075722D01*
X132020140Y-122174887D01*
X132278726Y-122175112D01*
X132517714Y-122076364D01*
X132650000Y-121944309D01*
X132650000Y-123505778D01*
X132549278Y-123606324D01*
X132450113Y-123845140D01*
X132449888Y-124103726D01*
X132548636Y-124342714D01*
X132731324Y-124525722D01*
X132970140Y-124624887D01*
X133228726Y-124625112D01*
X133450000Y-124533683D01*
X133450000Y-125955778D01*
X133349278Y-126056324D01*
X133250113Y-126295140D01*
X133249888Y-126553726D01*
X133348636Y-126792714D01*
X133531324Y-126975722D01*
X133770140Y-127074887D01*
X134028726Y-127075112D01*
X134267714Y-126976364D01*
X134358750Y-126885487D01*
X134587963Y-127228528D01*
X134977271Y-127488655D01*
X135436491Y-127580000D01*
X135483509Y-127580000D01*
X135942729Y-127488655D01*
X136332037Y-127228528D01*
X136592164Y-126839220D01*
X136683509Y-126380000D01*
X136776491Y-126380000D01*
X136867836Y-126839220D01*
X137127963Y-127228528D01*
X137517271Y-127488655D01*
X137976491Y-127580000D01*
X138023509Y-127580000D01*
X138482729Y-127488655D01*
X138872037Y-127228528D01*
X139132164Y-126839220D01*
X139223509Y-126380000D01*
X139132164Y-125920780D01*
X138872037Y-125531472D01*
X138482729Y-125271345D01*
X138023509Y-125180000D01*
X137976491Y-125180000D01*
X137517271Y-125271345D01*
X137127963Y-125531472D01*
X136867836Y-125920780D01*
X136776491Y-126380000D01*
X136683509Y-126380000D01*
X136592164Y-125920780D01*
X136332037Y-125531472D01*
X135942729Y-125271345D01*
X135483509Y-125180000D01*
X135436491Y-125180000D01*
X134977271Y-125271345D01*
X134587963Y-125531472D01*
X134350000Y-125887609D01*
X134350000Y-124332391D01*
X134587963Y-124688528D01*
X134977271Y-124948655D01*
X135436491Y-125040000D01*
X135483509Y-125040000D01*
X135942729Y-124948655D01*
X136332037Y-124688528D01*
X136592164Y-124299220D01*
X136683509Y-123840000D01*
X136776491Y-123840000D01*
X136867836Y-124299220D01*
X137127963Y-124688528D01*
X137517271Y-124948655D01*
X137976491Y-125040000D01*
X138023509Y-125040000D01*
X138482729Y-124948655D01*
X138872037Y-124688528D01*
X139132164Y-124299220D01*
X139223509Y-123840000D01*
X139132164Y-123380780D01*
X138872037Y-122991472D01*
X138482729Y-122731345D01*
X138023509Y-122640000D01*
X137976491Y-122640000D01*
X137517271Y-122731345D01*
X137127963Y-122991472D01*
X136867836Y-123380780D01*
X136776491Y-123840000D01*
X136683509Y-123840000D01*
X136592164Y-123380780D01*
X136332037Y-122991472D01*
X135942729Y-122731345D01*
X135483509Y-122640000D01*
X135436491Y-122640000D01*
X134977271Y-122731345D01*
X134587963Y-122991472D01*
X134350000Y-123347609D01*
X134350000Y-122700000D01*
X134315746Y-122527792D01*
X134250000Y-122429397D01*
X134250000Y-121367914D01*
X134327836Y-121759220D01*
X134587963Y-122148528D01*
X134977271Y-122408655D01*
X135436491Y-122500000D01*
X135483509Y-122500000D01*
X135942729Y-122408655D01*
X136332037Y-122148528D01*
X136592164Y-121759220D01*
X136683509Y-121300000D01*
X136592164Y-120840780D01*
X136332037Y-120451472D01*
X135942729Y-120191345D01*
X135483509Y-120100000D01*
X135436491Y-120100000D01*
X134977271Y-120191345D01*
X134587963Y-120451472D01*
X134327836Y-120840780D01*
X134250000Y-121232086D01*
X134250000Y-118827914D01*
X134327836Y-119219220D01*
X134587963Y-119608528D01*
X134977271Y-119868655D01*
X135436491Y-119960000D01*
X135483509Y-119960000D01*
X135942729Y-119868655D01*
X136332037Y-119608528D01*
X136592164Y-119219220D01*
X136683509Y-118760000D01*
X136592164Y-118300780D01*
X136332037Y-117911472D01*
X135942729Y-117651345D01*
X135483509Y-117560000D01*
X135436491Y-117560000D01*
X134977271Y-117651345D01*
X134587963Y-117911472D01*
X134327836Y-118300780D01*
X134250000Y-118692086D01*
X134250000Y-116875000D01*
X134215746Y-116702792D01*
X134118198Y-116556802D01*
X134049988Y-116488592D01*
X134050112Y-116346274D01*
X133997937Y-116220000D01*
X134236491Y-116220000D01*
X134327836Y-116679220D01*
X134587963Y-117068528D01*
X134977271Y-117328655D01*
X135436491Y-117420000D01*
X135483509Y-117420000D01*
X135942729Y-117328655D01*
X136332037Y-117068528D01*
X136592164Y-116679220D01*
X136683509Y-116220000D01*
X136592164Y-115760780D01*
X136332037Y-115371472D01*
X135942729Y-115111345D01*
X135483509Y-115020000D01*
X135436491Y-115020000D01*
X134977271Y-115111345D01*
X134587963Y-115371472D01*
X134327836Y-115760780D01*
X134236491Y-116220000D01*
X133997937Y-116220000D01*
X133951364Y-116107286D01*
X133768676Y-115924278D01*
X133529860Y-115825113D01*
X133271274Y-115824888D01*
X133032286Y-115923636D01*
X132849278Y-116106324D01*
X132750113Y-116345140D01*
X132749888Y-116603726D01*
X132848636Y-116842714D01*
X133031324Y-117025722D01*
X133270140Y-117124887D01*
X133350000Y-117124956D01*
X133350000Y-118599999D01*
X133229860Y-118550113D01*
X132971274Y-118549888D01*
X132732286Y-118648636D01*
X132550000Y-118830603D01*
X132550000Y-117969222D01*
X132650722Y-117868676D01*
X132749887Y-117629860D01*
X132750112Y-117371274D01*
X132651364Y-117132286D01*
X132468676Y-116949278D01*
X132229860Y-116850113D01*
X131971274Y-116849888D01*
X131775000Y-116930987D01*
X131775000Y-114444353D01*
X131800722Y-114418676D01*
X131899887Y-114179860D01*
X131900112Y-113921274D01*
X131801364Y-113682286D01*
X131799082Y-113680000D01*
X134236491Y-113680000D01*
X134327836Y-114139220D01*
X134587963Y-114528528D01*
X134977271Y-114788655D01*
X135436491Y-114880000D01*
X135483509Y-114880000D01*
X135942729Y-114788655D01*
X136332037Y-114528528D01*
X136592164Y-114139220D01*
X136683509Y-113680000D01*
X136776491Y-113680000D01*
X136867836Y-114139220D01*
X137127963Y-114528528D01*
X137517271Y-114788655D01*
X137976491Y-114880000D01*
X138023509Y-114880000D01*
X138482729Y-114788655D01*
X138872037Y-114528528D01*
X139125000Y-114149942D01*
X139125000Y-115750058D01*
X138872037Y-115371472D01*
X138482729Y-115111345D01*
X138023509Y-115020000D01*
X137976491Y-115020000D01*
X137517271Y-115111345D01*
X137127963Y-115371472D01*
X136867836Y-115760780D01*
X136776491Y-116220000D01*
X136867836Y-116679220D01*
X137127963Y-117068528D01*
X137517271Y-117328655D01*
X137976491Y-117420000D01*
X138023509Y-117420000D01*
X138482729Y-117328655D01*
X138872037Y-117068528D01*
X139125000Y-116689942D01*
X139125000Y-118290058D01*
X138872037Y-117911472D01*
X138482729Y-117651345D01*
X138023509Y-117560000D01*
X137976491Y-117560000D01*
X137517271Y-117651345D01*
X137127963Y-117911472D01*
X136867836Y-118300780D01*
X136776491Y-118760000D01*
X136867836Y-119219220D01*
X137127963Y-119608528D01*
X137517271Y-119868655D01*
X137976491Y-119960000D01*
X138023509Y-119960000D01*
X138482729Y-119868655D01*
X138872037Y-119608528D01*
X139125000Y-119229942D01*
X139125000Y-120830058D01*
X138872037Y-120451472D01*
X138482729Y-120191345D01*
X138023509Y-120100000D01*
X137976491Y-120100000D01*
X137517271Y-120191345D01*
X137127963Y-120451472D01*
X136867836Y-120840780D01*
X136776491Y-121300000D01*
X136867836Y-121759220D01*
X137127963Y-122148528D01*
X137517271Y-122408655D01*
X137976491Y-122500000D01*
X138023509Y-122500000D01*
X138482729Y-122408655D01*
X138872037Y-122148528D01*
X139125000Y-121769942D01*
X139125000Y-121966317D01*
X139107286Y-121973636D01*
X138924278Y-122156324D01*
X138825113Y-122395140D01*
X138824888Y-122653726D01*
X138923636Y-122892714D01*
X139106324Y-123075722D01*
X139345140Y-123174887D01*
X139603726Y-123175112D01*
X139842714Y-123076364D01*
X140025722Y-122893676D01*
X140124887Y-122654860D01*
X140125112Y-122396274D01*
X140026364Y-122157286D01*
X140025000Y-122155920D01*
X140025000Y-119294343D01*
X140056324Y-119325722D01*
X140295140Y-119424887D01*
X140553726Y-119425112D01*
X140625000Y-119395662D01*
X140625000Y-120855734D01*
X140549278Y-120931324D01*
X140450113Y-121170140D01*
X140449888Y-121428726D01*
X140548636Y-121667714D01*
X140731324Y-121850722D01*
X140970140Y-121949887D01*
X141228726Y-121950112D01*
X141425000Y-121869013D01*
X141425000Y-125955778D01*
X141324278Y-126056324D01*
X141225113Y-126295140D01*
X141224888Y-126553726D01*
X141323636Y-126792714D01*
X141506324Y-126975722D01*
X141745140Y-127074887D01*
X142003726Y-127075112D01*
X142242714Y-126976364D01*
X142425722Y-126793676D01*
X142524887Y-126554860D01*
X142525112Y-126296274D01*
X142426364Y-126057286D01*
X142325000Y-125955744D01*
X142325000Y-98344222D01*
X142425722Y-98243676D01*
X142524887Y-98004860D01*
X142525112Y-97746274D01*
X142426364Y-97507286D01*
X142243676Y-97324278D01*
X142004860Y-97225113D01*
X141746274Y-97224888D01*
X141507286Y-97323636D01*
X141324278Y-97506324D01*
X141225113Y-97745140D01*
X141224888Y-98003726D01*
X141323636Y-98242714D01*
X141425000Y-98344256D01*
X141425000Y-106816523D01*
X141204860Y-106725113D01*
X140946274Y-106724888D01*
X140707286Y-106823636D01*
X140524278Y-107006324D01*
X140425113Y-107245140D01*
X140424888Y-107503726D01*
X140523636Y-107742714D01*
X140625000Y-107844256D01*
X140625000Y-109289619D01*
X140529860Y-109250113D01*
X140271274Y-109249888D01*
X140032286Y-109348636D01*
X139849278Y-109531324D01*
X139750113Y-109770140D01*
X139749888Y-110028726D01*
X139848636Y-110267714D01*
X139975000Y-110394299D01*
X139975000Y-111780657D01*
X139943676Y-111749278D01*
X139704860Y-111650113D01*
X139446274Y-111649888D01*
X139207286Y-111748636D01*
X139024278Y-111931324D01*
X138925113Y-112170140D01*
X138924888Y-112428726D01*
X139023636Y-112667714D01*
X139125000Y-112769256D01*
X139125000Y-113210058D01*
X138872037Y-112831472D01*
X138482729Y-112571345D01*
X138023509Y-112480000D01*
X137976491Y-112480000D01*
X137517271Y-112571345D01*
X137127963Y-112831472D01*
X136867836Y-113220780D01*
X136776491Y-113680000D01*
X136683509Y-113680000D01*
X136592164Y-113220780D01*
X136332037Y-112831472D01*
X135942729Y-112571345D01*
X135483509Y-112480000D01*
X135436491Y-112480000D01*
X134977271Y-112571345D01*
X134587963Y-112831472D01*
X134327836Y-113220780D01*
X134236491Y-113680000D01*
X131799082Y-113680000D01*
X131618676Y-113499278D01*
X131379860Y-113400113D01*
X131121274Y-113399888D01*
X130882286Y-113498636D01*
X130825000Y-113555822D01*
X130825000Y-111819178D01*
X130950722Y-111693676D01*
X131049887Y-111454860D01*
X131050112Y-111196274D01*
X131026861Y-111140000D01*
X134236491Y-111140000D01*
X134327836Y-111599220D01*
X134587963Y-111988528D01*
X134977271Y-112248655D01*
X135436491Y-112340000D01*
X135483509Y-112340000D01*
X135942729Y-112248655D01*
X136332037Y-111988528D01*
X136592164Y-111599220D01*
X136683509Y-111140000D01*
X136776491Y-111140000D01*
X136867836Y-111599220D01*
X137127963Y-111988528D01*
X137517271Y-112248655D01*
X137976491Y-112340000D01*
X138023509Y-112340000D01*
X138482729Y-112248655D01*
X138872037Y-111988528D01*
X139132164Y-111599220D01*
X139223509Y-111140000D01*
X139132164Y-110680780D01*
X138872037Y-110291472D01*
X138482729Y-110031345D01*
X138023509Y-109940000D01*
X137976491Y-109940000D01*
X137517271Y-110031345D01*
X137127963Y-110291472D01*
X136867836Y-110680780D01*
X136776491Y-111140000D01*
X136683509Y-111140000D01*
X136592164Y-110680780D01*
X136332037Y-110291472D01*
X135942729Y-110031345D01*
X135483509Y-109940000D01*
X135436491Y-109940000D01*
X134977271Y-110031345D01*
X134587963Y-110291472D01*
X134327836Y-110680780D01*
X134236491Y-111140000D01*
X131026861Y-111140000D01*
X130951364Y-110957286D01*
X130768676Y-110774278D01*
X130529860Y-110675113D01*
X130271274Y-110674888D01*
X130032286Y-110773636D01*
X129849278Y-110956324D01*
X129750113Y-111195140D01*
X129749888Y-111453726D01*
X129848636Y-111692714D01*
X129925000Y-111769212D01*
X129925000Y-127155778D01*
X129824278Y-127256324D01*
X129725113Y-127495140D01*
X129724888Y-127753726D01*
X126425000Y-127753726D01*
X126425000Y-124307844D01*
X126899810Y-124307844D01*
X127066922Y-124712286D01*
X127376087Y-125021991D01*
X127780237Y-125189808D01*
X128217844Y-125190190D01*
X128622286Y-125023078D01*
X128931991Y-124713913D01*
X129099808Y-124309763D01*
X129100190Y-123872156D01*
X128933078Y-123467714D01*
X128623913Y-123158009D01*
X128219763Y-122990192D01*
X127782156Y-122989810D01*
X127377714Y-123156922D01*
X127068009Y-123466087D01*
X126900192Y-123870237D01*
X126899810Y-124307844D01*
X126425000Y-124307844D01*
X126425000Y-121767844D01*
X126899810Y-121767844D01*
X127066922Y-122172286D01*
X127376087Y-122481991D01*
X127780237Y-122649808D01*
X128217844Y-122650190D01*
X128622286Y-122483078D01*
X128931991Y-122173913D01*
X129099808Y-121769763D01*
X129100190Y-121332156D01*
X128933078Y-120927714D01*
X128623913Y-120618009D01*
X128219763Y-120450192D01*
X127782156Y-120449810D01*
X127377714Y-120616922D01*
X127068009Y-120926087D01*
X126900192Y-121330237D01*
X126899810Y-121767844D01*
X126425000Y-121767844D01*
X126425000Y-119227844D01*
X126899810Y-119227844D01*
X127066922Y-119632286D01*
X127376087Y-119941991D01*
X127780237Y-120109808D01*
X128217844Y-120110190D01*
X128622286Y-119943078D01*
X128931991Y-119633913D01*
X129099808Y-119229763D01*
X129100190Y-118792156D01*
X128933078Y-118387714D01*
X128623913Y-118078009D01*
X128219763Y-117910192D01*
X127782156Y-117909810D01*
X127377714Y-118076922D01*
X127068009Y-118386087D01*
X126900192Y-118790237D01*
X126899810Y-119227844D01*
X126425000Y-119227844D01*
X126425000Y-116687844D01*
X126899810Y-116687844D01*
X127066922Y-117092286D01*
X127376087Y-117401991D01*
X127780237Y-117569808D01*
X128217844Y-117570190D01*
X128622286Y-117403078D01*
X128931991Y-117093913D01*
X129099808Y-116689763D01*
X129100190Y-116252156D01*
X128933078Y-115847714D01*
X128623913Y-115538009D01*
X128219763Y-115370192D01*
X127782156Y-115369810D01*
X127377714Y-115536922D01*
X127068009Y-115846087D01*
X126900192Y-116250237D01*
X126899810Y-116687844D01*
X126425000Y-116687844D01*
X126425000Y-114147844D01*
X126899810Y-114147844D01*
X127066922Y-114552286D01*
X127376087Y-114861991D01*
X127780237Y-115029808D01*
X128217844Y-115030190D01*
X128622286Y-114863078D01*
X128931991Y-114553913D01*
X129099808Y-114149763D01*
X129100190Y-113712156D01*
X128933078Y-113307714D01*
X128623913Y-112998009D01*
X128219763Y-112830192D01*
X127782156Y-112829810D01*
X127377714Y-112996922D01*
X127068009Y-113306087D01*
X126900192Y-113710237D01*
X126899810Y-114147844D01*
X126425000Y-114147844D01*
X126425000Y-111607844D01*
X126899810Y-111607844D01*
X127066922Y-112012286D01*
X127376087Y-112321991D01*
X127780237Y-112489808D01*
X128217844Y-112490190D01*
X128622286Y-112323078D01*
X128931991Y-112013913D01*
X129099808Y-111609763D01*
X129100190Y-111172156D01*
X128933078Y-110767714D01*
X128623913Y-110458009D01*
X128219763Y-110290192D01*
X127782156Y-110289810D01*
X127377714Y-110456922D01*
X127068009Y-110766087D01*
X126900192Y-111170237D01*
X126899810Y-111607844D01*
X126425000Y-111607844D01*
X126425000Y-109067844D01*
X126899810Y-109067844D01*
X127066922Y-109472286D01*
X127376087Y-109781991D01*
X127780237Y-109949808D01*
X128217844Y-109950190D01*
X128622286Y-109783078D01*
X128931991Y-109473913D01*
X129099808Y-109069763D01*
X129100190Y-108632156D01*
X129086904Y-108600000D01*
X134236491Y-108600000D01*
X134327836Y-109059220D01*
X134587963Y-109448528D01*
X134977271Y-109708655D01*
X135436491Y-109800000D01*
X135483509Y-109800000D01*
X135942729Y-109708655D01*
X136332037Y-109448528D01*
X136592164Y-109059220D01*
X136683509Y-108600000D01*
X136776491Y-108600000D01*
X136867836Y-109059220D01*
X137127963Y-109448528D01*
X137517271Y-109708655D01*
X137976491Y-109800000D01*
X138023509Y-109800000D01*
X138482729Y-109708655D01*
X138872037Y-109448528D01*
X139132164Y-109059220D01*
X139223509Y-108600000D01*
X139132164Y-108140780D01*
X138872037Y-107751472D01*
X138482729Y-107491345D01*
X138023509Y-107400000D01*
X137976491Y-107400000D01*
X137517271Y-107491345D01*
X137127963Y-107751472D01*
X136867836Y-108140780D01*
X136776491Y-108600000D01*
X136683509Y-108600000D01*
X136592164Y-108140780D01*
X136332037Y-107751472D01*
X135942729Y-107491345D01*
X135483509Y-107400000D01*
X135436491Y-107400000D01*
X134977271Y-107491345D01*
X134587963Y-107751472D01*
X134327836Y-108140780D01*
X134236491Y-108600000D01*
X129086904Y-108600000D01*
X128933078Y-108227714D01*
X128623913Y-107918009D01*
X128219763Y-107750192D01*
X127782156Y-107749810D01*
X127377714Y-107916922D01*
X127068009Y-108226087D01*
X126900192Y-108630237D01*
X126899810Y-109067844D01*
X126425000Y-109067844D01*
X126425000Y-106527844D01*
X126899810Y-106527844D01*
X127066922Y-106932286D01*
X127376087Y-107241991D01*
X127780237Y-107409808D01*
X128217844Y-107410190D01*
X128622286Y-107243078D01*
X128931991Y-106933913D01*
X129099808Y-106529763D01*
X129100190Y-106092156D01*
X129086904Y-106060000D01*
X134236491Y-106060000D01*
X134327836Y-106519220D01*
X134587963Y-106908528D01*
X134977271Y-107168655D01*
X135436491Y-107260000D01*
X135483509Y-107260000D01*
X135942729Y-107168655D01*
X136332037Y-106908528D01*
X136592164Y-106519220D01*
X136683509Y-106060000D01*
X136776491Y-106060000D01*
X136867836Y-106519220D01*
X137127963Y-106908528D01*
X137517271Y-107168655D01*
X137976491Y-107260000D01*
X138023509Y-107260000D01*
X138482729Y-107168655D01*
X138872037Y-106908528D01*
X139132164Y-106519220D01*
X139223509Y-106060000D01*
X139132164Y-105600780D01*
X138872037Y-105211472D01*
X138482729Y-104951345D01*
X138023509Y-104860000D01*
X137976491Y-104860000D01*
X137517271Y-104951345D01*
X137127963Y-105211472D01*
X136867836Y-105600780D01*
X136776491Y-106060000D01*
X136683509Y-106060000D01*
X136592164Y-105600780D01*
X136332037Y-105211472D01*
X135942729Y-104951345D01*
X135483509Y-104860000D01*
X135436491Y-104860000D01*
X134977271Y-104951345D01*
X134587963Y-105211472D01*
X134327836Y-105600780D01*
X134236491Y-106060000D01*
X129086904Y-106060000D01*
X128933078Y-105687714D01*
X128623913Y-105378009D01*
X128219763Y-105210192D01*
X127782156Y-105209810D01*
X127377714Y-105376922D01*
X127068009Y-105686087D01*
X126900192Y-106090237D01*
X126899810Y-106527844D01*
X126425000Y-106527844D01*
X126425000Y-103987844D01*
X126899810Y-103987844D01*
X127066922Y-104392286D01*
X127376087Y-104701991D01*
X127780237Y-104869808D01*
X128217844Y-104870190D01*
X128622286Y-104703078D01*
X128931991Y-104393913D01*
X129099808Y-103989763D01*
X129100190Y-103552156D01*
X129086904Y-103520000D01*
X134236491Y-103520000D01*
X134327836Y-103979220D01*
X134587963Y-104368528D01*
X134977271Y-104628655D01*
X135436491Y-104720000D01*
X135483509Y-104720000D01*
X135942729Y-104628655D01*
X136332037Y-104368528D01*
X136592164Y-103979220D01*
X136683509Y-103520000D01*
X136776491Y-103520000D01*
X136867836Y-103979220D01*
X137127963Y-104368528D01*
X137517271Y-104628655D01*
X137976491Y-104720000D01*
X138023509Y-104720000D01*
X138482729Y-104628655D01*
X138872037Y-104368528D01*
X139132164Y-103979220D01*
X139223509Y-103520000D01*
X139132164Y-103060780D01*
X138872037Y-102671472D01*
X138482729Y-102411345D01*
X138023509Y-102320000D01*
X137976491Y-102320000D01*
X137517271Y-102411345D01*
X137127963Y-102671472D01*
X136867836Y-103060780D01*
X136776491Y-103520000D01*
X136683509Y-103520000D01*
X136592164Y-103060780D01*
X136332037Y-102671472D01*
X135942729Y-102411345D01*
X135483509Y-102320000D01*
X135436491Y-102320000D01*
X134977271Y-102411345D01*
X134587963Y-102671472D01*
X134327836Y-103060780D01*
X134236491Y-103520000D01*
X129086904Y-103520000D01*
X128933078Y-103147714D01*
X128623913Y-102838009D01*
X128219763Y-102670192D01*
X127782156Y-102669810D01*
X127377714Y-102836922D01*
X127068009Y-103146087D01*
X126900192Y-103550237D01*
X126899810Y-103987844D01*
X126425000Y-103987844D01*
X126425000Y-101447844D01*
X126899810Y-101447844D01*
X127066922Y-101852286D01*
X127376087Y-102161991D01*
X127780237Y-102329808D01*
X128217844Y-102330190D01*
X128622286Y-102163078D01*
X128931991Y-101853913D01*
X129099808Y-101449763D01*
X129100190Y-101012156D01*
X129086904Y-100980000D01*
X134236491Y-100980000D01*
X134327836Y-101439220D01*
X134587963Y-101828528D01*
X134977271Y-102088655D01*
X135436491Y-102180000D01*
X135483509Y-102180000D01*
X135942729Y-102088655D01*
X136332037Y-101828528D01*
X136592164Y-101439220D01*
X136683509Y-100980000D01*
X136776491Y-100980000D01*
X136867836Y-101439220D01*
X137127963Y-101828528D01*
X137517271Y-102088655D01*
X137976491Y-102180000D01*
X138023509Y-102180000D01*
X138482729Y-102088655D01*
X138872037Y-101828528D01*
X139132164Y-101439220D01*
X139223509Y-100980000D01*
X139132164Y-100520780D01*
X138872037Y-100131472D01*
X138482729Y-99871345D01*
X138023509Y-99780000D01*
X137976491Y-99780000D01*
X137517271Y-99871345D01*
X137127963Y-100131472D01*
X136867836Y-100520780D01*
X136776491Y-100980000D01*
X136683509Y-100980000D01*
X136592164Y-100520780D01*
X136332037Y-100131472D01*
X135942729Y-99871345D01*
X135483509Y-99780000D01*
X135436491Y-99780000D01*
X134977271Y-99871345D01*
X134587963Y-100131472D01*
X134327836Y-100520780D01*
X134236491Y-100980000D01*
X129086904Y-100980000D01*
X128933078Y-100607714D01*
X128623913Y-100298009D01*
X128219763Y-100130192D01*
X127782156Y-100129810D01*
X127377714Y-100296922D01*
X127068009Y-100606087D01*
X126900192Y-101010237D01*
X126899810Y-101447844D01*
X126425000Y-101447844D01*
X126425000Y-98907844D01*
X126899810Y-98907844D01*
X127066922Y-99312286D01*
X127376087Y-99621991D01*
X127780237Y-99789808D01*
X128217844Y-99790190D01*
X128622286Y-99623078D01*
X128931991Y-99313913D01*
X129099808Y-98909763D01*
X129100190Y-98472156D01*
X129086904Y-98440000D01*
X134236491Y-98440000D01*
X134327836Y-98899220D01*
X134587963Y-99288528D01*
X134977271Y-99548655D01*
X135436491Y-99640000D01*
X135483509Y-99640000D01*
X135942729Y-99548655D01*
X136332037Y-99288528D01*
X136592164Y-98899220D01*
X136683509Y-98440000D01*
X136776491Y-98440000D01*
X136867836Y-98899220D01*
X137127963Y-99288528D01*
X137517271Y-99548655D01*
X137976491Y-99640000D01*
X138023509Y-99640000D01*
X138482729Y-99548655D01*
X138872037Y-99288528D01*
X139132164Y-98899220D01*
X139223509Y-98440000D01*
X139132164Y-97980780D01*
X138872037Y-97591472D01*
X138482729Y-97331345D01*
X138023509Y-97240000D01*
X137976491Y-97240000D01*
X137517271Y-97331345D01*
X137127963Y-97591472D01*
X136867836Y-97980780D01*
X136776491Y-98440000D01*
X136683509Y-98440000D01*
X136592164Y-97980780D01*
X136332037Y-97591472D01*
X135942729Y-97331345D01*
X135483509Y-97240000D01*
X135436491Y-97240000D01*
X134977271Y-97331345D01*
X134587963Y-97591472D01*
X134327836Y-97980780D01*
X134236491Y-98440000D01*
X129086904Y-98440000D01*
X128933078Y-98067714D01*
X128623913Y-97758009D01*
X128219763Y-97590192D01*
X127782156Y-97589810D01*
X127377714Y-97756922D01*
X127068009Y-98066087D01*
X126900192Y-98470237D01*
X126899810Y-98907844D01*
X126425000Y-98907844D01*
X126425000Y-96367844D01*
X126899810Y-96367844D01*
X127066922Y-96772286D01*
X127376087Y-97081991D01*
X127780237Y-97249808D01*
X128217844Y-97250190D01*
X128622286Y-97083078D01*
X128931991Y-96773913D01*
X129099808Y-96369763D01*
X129100190Y-95932156D01*
X129086904Y-95900000D01*
X134236491Y-95900000D01*
X134327836Y-96359220D01*
X134587963Y-96748528D01*
X134977271Y-97008655D01*
X135436491Y-97100000D01*
X135483509Y-97100000D01*
X135942729Y-97008655D01*
X136332037Y-96748528D01*
X136592164Y-96359220D01*
X136683509Y-95900000D01*
X136776491Y-95900000D01*
X136867836Y-96359220D01*
X137127963Y-96748528D01*
X137517271Y-97008655D01*
X137976491Y-97100000D01*
X138023509Y-97100000D01*
X138482729Y-97008655D01*
X138872037Y-96748528D01*
X139132164Y-96359220D01*
X139223509Y-95900000D01*
X139132164Y-95440780D01*
X138872037Y-95051472D01*
X138482729Y-94791345D01*
X138023509Y-94700000D01*
X137976491Y-94700000D01*
X137517271Y-94791345D01*
X137127963Y-95051472D01*
X136867836Y-95440780D01*
X136776491Y-95900000D01*
X136683509Y-95900000D01*
X136592164Y-95440780D01*
X136332037Y-95051472D01*
X135942729Y-94791345D01*
X135483509Y-94700000D01*
X135436491Y-94700000D01*
X134977271Y-94791345D01*
X134587963Y-95051472D01*
X134327836Y-95440780D01*
X134236491Y-95900000D01*
X129086904Y-95900000D01*
X128933078Y-95527714D01*
X128623913Y-95218009D01*
X128219763Y-95050192D01*
X127782156Y-95049810D01*
X127377714Y-95216922D01*
X127068009Y-95526087D01*
X126900192Y-95930237D01*
X126899810Y-96367844D01*
X126425000Y-96367844D01*
X126425000Y-94222553D01*
X127422802Y-94222553D01*
X127511032Y-94325539D01*
X127822078Y-94458192D01*
X128160210Y-94461715D01*
X128473952Y-94335573D01*
X128488968Y-94325539D01*
X128577198Y-94222553D01*
X128000000Y-93645355D01*
X127422802Y-94222553D01*
X126425000Y-94222553D01*
X126425000Y-93770210D01*
X127148285Y-93770210D01*
X127274427Y-94083952D01*
X127284461Y-94098968D01*
X127387447Y-94187198D01*
X127964645Y-93610000D01*
X128035355Y-93610000D01*
X128612553Y-94187198D01*
X128715539Y-94098968D01*
X128848192Y-93787922D01*
X128851715Y-93449790D01*
X128815615Y-93360000D01*
X134236491Y-93360000D01*
X134327836Y-93819220D01*
X134587963Y-94208528D01*
X134977271Y-94468655D01*
X135436491Y-94560000D01*
X135483509Y-94560000D01*
X135942729Y-94468655D01*
X136332037Y-94208528D01*
X136592164Y-93819220D01*
X136683509Y-93360000D01*
X136776491Y-93360000D01*
X136867836Y-93819220D01*
X137127963Y-94208528D01*
X137517271Y-94468655D01*
X137976491Y-94560000D01*
X138023509Y-94560000D01*
X138482729Y-94468655D01*
X138872037Y-94208528D01*
X139132164Y-93819220D01*
X139223509Y-93360000D01*
X139132164Y-92900780D01*
X138872037Y-92511472D01*
X138482729Y-92251345D01*
X138023509Y-92160000D01*
X137976491Y-92160000D01*
X137517271Y-92251345D01*
X137127963Y-92511472D01*
X136867836Y-92900780D01*
X136776491Y-93360000D01*
X136683509Y-93360000D01*
X136592164Y-92900780D01*
X136332037Y-92511472D01*
X135942729Y-92251345D01*
X135483509Y-92160000D01*
X135436491Y-92160000D01*
X134977271Y-92251345D01*
X134587963Y-92511472D01*
X134327836Y-92900780D01*
X134236491Y-93360000D01*
X128815615Y-93360000D01*
X128725573Y-93136048D01*
X128715539Y-93121032D01*
X128612553Y-93032802D01*
X128035355Y-93610000D01*
X127964645Y-93610000D01*
X127387447Y-93032802D01*
X127284461Y-93121032D01*
X127151808Y-93432078D01*
X127148285Y-93770210D01*
X126425000Y-93770210D01*
X126425000Y-92997447D01*
X127422802Y-92997447D01*
X128000000Y-93574645D01*
X128577198Y-92997447D01*
X128488968Y-92894461D01*
X128177922Y-92761808D01*
X127839790Y-92758285D01*
X127526048Y-92884427D01*
X127511032Y-92894461D01*
X127422802Y-92997447D01*
X126425000Y-92997447D01*
X126425000Y-91287844D01*
X126899810Y-91287844D01*
X127066922Y-91692286D01*
X127376087Y-92001991D01*
X127780237Y-92169808D01*
X128217844Y-92170190D01*
X128622286Y-92003078D01*
X128931991Y-91693913D01*
X129099808Y-91289763D01*
X129100190Y-90852156D01*
X129086904Y-90820000D01*
X134236491Y-90820000D01*
X134327836Y-91279220D01*
X134587963Y-91668528D01*
X134977271Y-91928655D01*
X135436491Y-92020000D01*
X135483509Y-92020000D01*
X135942729Y-91928655D01*
X136332037Y-91668528D01*
X136592164Y-91279220D01*
X136683509Y-90820000D01*
X136776491Y-90820000D01*
X136867836Y-91279220D01*
X137127963Y-91668528D01*
X137517271Y-91928655D01*
X137976491Y-92020000D01*
X138023509Y-92020000D01*
X138482729Y-91928655D01*
X138872037Y-91668528D01*
X139132164Y-91279220D01*
X139223509Y-90820000D01*
X139132164Y-90360780D01*
X138872037Y-89971472D01*
X138482729Y-89711345D01*
X138023509Y-89620000D01*
X137976491Y-89620000D01*
X137517271Y-89711345D01*
X137127963Y-89971472D01*
X136867836Y-90360780D01*
X136776491Y-90820000D01*
X136683509Y-90820000D01*
X136592164Y-90360780D01*
X136332037Y-89971472D01*
X135942729Y-89711345D01*
X135483509Y-89620000D01*
X135436491Y-89620000D01*
X134977271Y-89711345D01*
X134587963Y-89971472D01*
X134327836Y-90360780D01*
X134236491Y-90820000D01*
X129086904Y-90820000D01*
X128933078Y-90447714D01*
X128623913Y-90138009D01*
X128219763Y-89970192D01*
X127782156Y-89969810D01*
X127377714Y-90136922D01*
X127068009Y-90446087D01*
X126900192Y-90850237D01*
X126899810Y-91287844D01*
X126425000Y-91287844D01*
X126425000Y-88747844D01*
X126899810Y-88747844D01*
X127066922Y-89152286D01*
X127376087Y-89461991D01*
X127780237Y-89629808D01*
X128217844Y-89630190D01*
X128622286Y-89463078D01*
X128931991Y-89153913D01*
X129099808Y-88749763D01*
X129100190Y-88312156D01*
X129086904Y-88280000D01*
X134236491Y-88280000D01*
X134327836Y-88739220D01*
X134587963Y-89128528D01*
X134977271Y-89388655D01*
X135436491Y-89480000D01*
X135483509Y-89480000D01*
X135942729Y-89388655D01*
X136332037Y-89128528D01*
X136592164Y-88739220D01*
X136683509Y-88280000D01*
X136776491Y-88280000D01*
X136867836Y-88739220D01*
X137127963Y-89128528D01*
X137517271Y-89388655D01*
X137976491Y-89480000D01*
X138023509Y-89480000D01*
X138482729Y-89388655D01*
X138872037Y-89128528D01*
X139132164Y-88739220D01*
X139223509Y-88280000D01*
X139132164Y-87820780D01*
X138872037Y-87431472D01*
X138482729Y-87171345D01*
X138023509Y-87080000D01*
X137976491Y-87080000D01*
X137517271Y-87171345D01*
X137127963Y-87431472D01*
X136867836Y-87820780D01*
X136776491Y-88280000D01*
X136683509Y-88280000D01*
X136592164Y-87820780D01*
X136332037Y-87431472D01*
X135942729Y-87171345D01*
X135483509Y-87080000D01*
X135436491Y-87080000D01*
X134977271Y-87171345D01*
X134587963Y-87431472D01*
X134327836Y-87820780D01*
X134236491Y-88280000D01*
X129086904Y-88280000D01*
X128933078Y-87907714D01*
X128623913Y-87598009D01*
X128219763Y-87430192D01*
X127782156Y-87429810D01*
X127377714Y-87596922D01*
X127068009Y-87906087D01*
X126900192Y-88310237D01*
X126899810Y-88747844D01*
X126425000Y-88747844D01*
X126425000Y-86207844D01*
X126899810Y-86207844D01*
X127066922Y-86612286D01*
X127376087Y-86921991D01*
X127780237Y-87089808D01*
X128217844Y-87090190D01*
X128622286Y-86923078D01*
X128931991Y-86613913D01*
X129099808Y-86209763D01*
X129100190Y-85772156D01*
X129086904Y-85740000D01*
X134236491Y-85740000D01*
X134327836Y-86199220D01*
X134587963Y-86588528D01*
X134977271Y-86848655D01*
X135436491Y-86940000D01*
X135483509Y-86940000D01*
X135942729Y-86848655D01*
X136332037Y-86588528D01*
X136592164Y-86199220D01*
X136683509Y-85740000D01*
X136776491Y-85740000D01*
X136867836Y-86199220D01*
X137127963Y-86588528D01*
X137517271Y-86848655D01*
X137976491Y-86940000D01*
X138023509Y-86940000D01*
X138482729Y-86848655D01*
X138872037Y-86588528D01*
X139132164Y-86199220D01*
X139223509Y-85740000D01*
X139132164Y-85280780D01*
X138872037Y-84891472D01*
X138482729Y-84631345D01*
X138023509Y-84540000D01*
X137976491Y-84540000D01*
X137517271Y-84631345D01*
X137127963Y-84891472D01*
X136867836Y-85280780D01*
X136776491Y-85740000D01*
X136683509Y-85740000D01*
X136592164Y-85280780D01*
X136332037Y-84891472D01*
X135942729Y-84631345D01*
X135483509Y-84540000D01*
X135436491Y-84540000D01*
X134977271Y-84631345D01*
X134587963Y-84891472D01*
X134327836Y-85280780D01*
X134236491Y-85740000D01*
X129086904Y-85740000D01*
X128933078Y-85367714D01*
X128623913Y-85058009D01*
X128219763Y-84890192D01*
X127782156Y-84889810D01*
X127377714Y-85056922D01*
X127068009Y-85366087D01*
X126900192Y-85770237D01*
X126899810Y-86207844D01*
X126425000Y-86207844D01*
X126425000Y-83667844D01*
X126899810Y-83667844D01*
X127066922Y-84072286D01*
X127376087Y-84381991D01*
X127780237Y-84549808D01*
X128217844Y-84550190D01*
X128622286Y-84383078D01*
X128931991Y-84073913D01*
X129099808Y-83669763D01*
X129100190Y-83232156D01*
X128933078Y-82827714D01*
X128623913Y-82518009D01*
X128219763Y-82350192D01*
X127782156Y-82349810D01*
X127377714Y-82516922D01*
X127068009Y-82826087D01*
X126900192Y-83230237D01*
X126899810Y-83667844D01*
X126425000Y-83667844D01*
X126425000Y-81127844D01*
X126899810Y-81127844D01*
X127066922Y-81532286D01*
X127376087Y-81841991D01*
X127780237Y-82009808D01*
X128217844Y-82010190D01*
X128622286Y-81843078D01*
X128931991Y-81533913D01*
X129099808Y-81129763D01*
X129100190Y-80692156D01*
X128933078Y-80287714D01*
X128623913Y-79978009D01*
X128219763Y-79810192D01*
X127782156Y-79809810D01*
X127377714Y-79976922D01*
X127068009Y-80286087D01*
X126900192Y-80690237D01*
X126899810Y-81127844D01*
X126425000Y-81127844D01*
X126425000Y-81041860D01*
X126552583Y-80400459D01*
X126892194Y-79892194D01*
X127400460Y-79552582D01*
X128041860Y-79425000D01*
X143958140Y-79425000D01*
X144599541Y-79552583D01*
X144599541Y-79552583D01*
G37*
X144599541Y-79552583D02*
X145107806Y-79892194D01*
X145447418Y-80400460D01*
X145575000Y-81041860D01*
X145575000Y-139958140D01*
X145447418Y-140599540D01*
X145107806Y-141107806D01*
X144599541Y-141447417D01*
X143958140Y-141575000D01*
X132041860Y-141575000D01*
X131400460Y-141447418D01*
X130892194Y-141107806D01*
X130552583Y-140599541D01*
X130425000Y-139958140D01*
X130425000Y-134173253D01*
X134525932Y-134173253D01*
X134530729Y-134197388D01*
X134677003Y-134537979D01*
X134942481Y-134796668D01*
X135286746Y-134934071D01*
X135435000Y-134924674D01*
X135435000Y-134025000D01*
X135485000Y-134025000D01*
X135485000Y-134924674D01*
X135633254Y-134934071D01*
X135977519Y-134796668D01*
X136242997Y-134537979D01*
X136389271Y-134197388D01*
X136394068Y-134173253D01*
X136384662Y-134025000D01*
X135485000Y-134025000D01*
X135435000Y-134025000D01*
X134535338Y-134025000D01*
X134525932Y-134173253D01*
X130425000Y-134173253D01*
X130425000Y-133826747D01*
X134525932Y-133826747D01*
X134535338Y-133975000D01*
X135435000Y-133975000D01*
X135435000Y-133075326D01*
X135485000Y-133075326D01*
X135485000Y-133975000D01*
X136384662Y-133975000D01*
X136394068Y-133826747D01*
X136389271Y-133802612D01*
X136242997Y-133462021D01*
X135977519Y-133203332D01*
X135843895Y-133150000D01*
X136793144Y-133150000D01*
X136793144Y-134850000D01*
X136817549Y-134979702D01*
X136894203Y-135098825D01*
X137011163Y-135178741D01*
X137150000Y-135206856D01*
X138850000Y-135206856D01*
X138979702Y-135182451D01*
X139098825Y-135105797D01*
X139178741Y-134988837D01*
X139206856Y-134850000D01*
X139206856Y-133150000D01*
X139182451Y-133020298D01*
X139105797Y-132901175D01*
X138988837Y-132821259D01*
X138850000Y-132793144D01*
X137150000Y-132793144D01*
X137020298Y-132817549D01*
X136901175Y-132894203D01*
X136821259Y-133011163D01*
X136793144Y-133150000D01*
X135843895Y-133150000D01*
X135633254Y-133065929D01*
X135485000Y-133075326D01*
X135435000Y-133075326D01*
X135286746Y-133065929D01*
X134942481Y-133203332D01*
X134677003Y-133462021D01*
X134530729Y-133802612D01*
X134525932Y-133826747D01*
X130425000Y-133826747D01*
X130425000Y-132000000D01*
X130416834Y-131958947D01*
X130416834Y-131917086D01*
X130360377Y-131633253D01*
X134525932Y-131633253D01*
X134530729Y-131657388D01*
X134677003Y-131997979D01*
X134942481Y-132256668D01*
X135286746Y-132394071D01*
X135435000Y-132384674D01*
X135435000Y-131485000D01*
X135485000Y-131485000D01*
X135485000Y-132384674D01*
X135633254Y-132394071D01*
X135977519Y-132256668D01*
X136242997Y-131997979D01*
X136389271Y-131657388D01*
X136394068Y-131633253D01*
X136384662Y-131485000D01*
X135485000Y-131485000D01*
X135435000Y-131485000D01*
X134535338Y-131485000D01*
X134525932Y-131633253D01*
X130360377Y-131633253D01*
X130325915Y-131460000D01*
X136776491Y-131460000D01*
X136867836Y-131919220D01*
X137127963Y-132308528D01*
X137517271Y-132568655D01*
X137976491Y-132660000D01*
X138023509Y-132660000D01*
X138482729Y-132568655D01*
X138872037Y-132308528D01*
X139132164Y-131919220D01*
X139223509Y-131460000D01*
X139132164Y-131000780D01*
X138872037Y-130611472D01*
X138482729Y-130351345D01*
X138023509Y-130260000D01*
X137976491Y-130260000D01*
X137517271Y-130351345D01*
X137127963Y-130611472D01*
X136867836Y-131000780D01*
X136776491Y-131460000D01*
X130325915Y-131460000D01*
X130291452Y-131286747D01*
X134525932Y-131286747D01*
X134535338Y-131435000D01*
X135435000Y-131435000D01*
X135435000Y-130535326D01*
X135485000Y-130535326D01*
X135485000Y-131435000D01*
X136384662Y-131435000D01*
X136394068Y-131286747D01*
X136389271Y-131262612D01*
X136242997Y-130922021D01*
X135977519Y-130663332D01*
X135633254Y-130525929D01*
X135485000Y-130535326D01*
X135435000Y-130535326D01*
X135286746Y-130525929D01*
X134942481Y-130663332D01*
X134677003Y-130922021D01*
X134530729Y-131262612D01*
X134525932Y-131286747D01*
X130291452Y-131286747D01*
X130264593Y-131151720D01*
X130201134Y-130998516D01*
X129767589Y-130349669D01*
X129650331Y-130232411D01*
X129001484Y-129798866D01*
X128848281Y-129735407D01*
X128848280Y-129735407D01*
X128082913Y-129583166D01*
X127400460Y-129447418D01*
X126892194Y-129107806D01*
X126552583Y-128599541D01*
X126425000Y-127958140D01*
X126425000Y-127753726D01*
X129724888Y-127753726D01*
X129823636Y-127992714D01*
X130006324Y-128175722D01*
X130245140Y-128274887D01*
X130503726Y-128275112D01*
X130742714Y-128176364D01*
X130875000Y-128044309D01*
X130875000Y-128275000D01*
X130909254Y-128447208D01*
X130964073Y-128529250D01*
X131006802Y-128593198D01*
X132122123Y-129708519D01*
X132099278Y-129731324D01*
X132000113Y-129970140D01*
X131999888Y-130228726D01*
X132098636Y-130467714D01*
X132281324Y-130650722D01*
X132520140Y-130749887D01*
X132778726Y-130750112D01*
X133017714Y-130651364D01*
X133200722Y-130468676D01*
X133299887Y-130229860D01*
X133300112Y-129971274D01*
X133201364Y-129732286D01*
X133100000Y-129630744D01*
X133100000Y-129600000D01*
X133065746Y-129427792D01*
X132968198Y-129281802D01*
X132606396Y-128920000D01*
X134236491Y-128920000D01*
X134327836Y-129379220D01*
X134587963Y-129768528D01*
X134977271Y-130028655D01*
X135436491Y-130120000D01*
X135483509Y-130120000D01*
X135942729Y-130028655D01*
X136332037Y-129768528D01*
X136592164Y-129379220D01*
X136683509Y-128920000D01*
X136776491Y-128920000D01*
X136867836Y-129379220D01*
X137127963Y-129768528D01*
X137517271Y-130028655D01*
X137976491Y-130120000D01*
X138023509Y-130120000D01*
X138482729Y-130028655D01*
X138872037Y-129768528D01*
X139132164Y-129379220D01*
X139223509Y-128920000D01*
X139132164Y-128460780D01*
X138872037Y-128071472D01*
X138482729Y-127811345D01*
X138023509Y-127720000D01*
X137976491Y-127720000D01*
X137517271Y-127811345D01*
X137127963Y-128071472D01*
X136867836Y-128460780D01*
X136776491Y-128920000D01*
X136683509Y-128920000D01*
X136592164Y-128460780D01*
X136332037Y-128071472D01*
X135942729Y-127811345D01*
X135483509Y-127720000D01*
X135436491Y-127720000D01*
X134977271Y-127811345D01*
X134587963Y-128071472D01*
X134327836Y-128460780D01*
X134236491Y-128920000D01*
X132606396Y-128920000D01*
X131775000Y-128088604D01*
X131775000Y-122069387D01*
X131781324Y-122075722D01*
X132020140Y-122174887D01*
X132278726Y-122175112D01*
X132517714Y-122076364D01*
X132650000Y-121944309D01*
X132650000Y-123505778D01*
X132549278Y-123606324D01*
X132450113Y-123845140D01*
X132449888Y-124103726D01*
X132548636Y-124342714D01*
X132731324Y-124525722D01*
X132970140Y-124624887D01*
X133228726Y-124625112D01*
X133450000Y-124533683D01*
X133450000Y-125955778D01*
X133349278Y-126056324D01*
X133250113Y-126295140D01*
X133249888Y-126553726D01*
X133348636Y-126792714D01*
X133531324Y-126975722D01*
X133770140Y-127074887D01*
X134028726Y-127075112D01*
X134267714Y-126976364D01*
X134358750Y-126885487D01*
X134587963Y-127228528D01*
X134977271Y-127488655D01*
X135436491Y-127580000D01*
X135483509Y-127580000D01*
X135942729Y-127488655D01*
X136332037Y-127228528D01*
X136592164Y-126839220D01*
X136683509Y-126380000D01*
X136776491Y-126380000D01*
X136867836Y-126839220D01*
X137127963Y-127228528D01*
X137517271Y-127488655D01*
X137976491Y-127580000D01*
X138023509Y-127580000D01*
X138482729Y-127488655D01*
X138872037Y-127228528D01*
X139132164Y-126839220D01*
X139223509Y-126380000D01*
X139132164Y-125920780D01*
X138872037Y-125531472D01*
X138482729Y-125271345D01*
X138023509Y-125180000D01*
X137976491Y-125180000D01*
X137517271Y-125271345D01*
X137127963Y-125531472D01*
X136867836Y-125920780D01*
X136776491Y-126380000D01*
X136683509Y-126380000D01*
X136592164Y-125920780D01*
X136332037Y-125531472D01*
X135942729Y-125271345D01*
X135483509Y-125180000D01*
X135436491Y-125180000D01*
X134977271Y-125271345D01*
X134587963Y-125531472D01*
X134350000Y-125887609D01*
X134350000Y-124332391D01*
X134587963Y-124688528D01*
X134977271Y-124948655D01*
X135436491Y-125040000D01*
X135483509Y-125040000D01*
X135942729Y-124948655D01*
X136332037Y-124688528D01*
X136592164Y-124299220D01*
X136683509Y-123840000D01*
X136776491Y-123840000D01*
X136867836Y-124299220D01*
X137127963Y-124688528D01*
X137517271Y-124948655D01*
X137976491Y-125040000D01*
X138023509Y-125040000D01*
X138482729Y-124948655D01*
X138872037Y-124688528D01*
X139132164Y-124299220D01*
X139223509Y-123840000D01*
X139132164Y-123380780D01*
X138872037Y-122991472D01*
X138482729Y-122731345D01*
X138023509Y-122640000D01*
X137976491Y-122640000D01*
X137517271Y-122731345D01*
X137127963Y-122991472D01*
X136867836Y-123380780D01*
X136776491Y-123840000D01*
X136683509Y-123840000D01*
X136592164Y-123380780D01*
X136332037Y-122991472D01*
X135942729Y-122731345D01*
X135483509Y-122640000D01*
X135436491Y-122640000D01*
X134977271Y-122731345D01*
X134587963Y-122991472D01*
X134350000Y-123347609D01*
X134350000Y-122700000D01*
X134315746Y-122527792D01*
X134250000Y-122429397D01*
X134250000Y-121367914D01*
X134327836Y-121759220D01*
X134587963Y-122148528D01*
X134977271Y-122408655D01*
X135436491Y-122500000D01*
X135483509Y-122500000D01*
X135942729Y-122408655D01*
X136332037Y-122148528D01*
X136592164Y-121759220D01*
X136683509Y-121300000D01*
X136592164Y-120840780D01*
X136332037Y-120451472D01*
X135942729Y-120191345D01*
X135483509Y-120100000D01*
X135436491Y-120100000D01*
X134977271Y-120191345D01*
X134587963Y-120451472D01*
X134327836Y-120840780D01*
X134250000Y-121232086D01*
X134250000Y-118827914D01*
X134327836Y-119219220D01*
X134587963Y-119608528D01*
X134977271Y-119868655D01*
X135436491Y-119960000D01*
X135483509Y-119960000D01*
X135942729Y-119868655D01*
X136332037Y-119608528D01*
X136592164Y-119219220D01*
X136683509Y-118760000D01*
X136592164Y-118300780D01*
X136332037Y-117911472D01*
X135942729Y-117651345D01*
X135483509Y-117560000D01*
X135436491Y-117560000D01*
X134977271Y-117651345D01*
X134587963Y-117911472D01*
X134327836Y-118300780D01*
X134250000Y-118692086D01*
X134250000Y-116875000D01*
X134215746Y-116702792D01*
X134118198Y-116556802D01*
X134049988Y-116488592D01*
X134050112Y-116346274D01*
X133997937Y-116220000D01*
X134236491Y-116220000D01*
X134327836Y-116679220D01*
X134587963Y-117068528D01*
X134977271Y-117328655D01*
X135436491Y-117420000D01*
X135483509Y-117420000D01*
X135942729Y-117328655D01*
X136332037Y-117068528D01*
X136592164Y-116679220D01*
X136683509Y-116220000D01*
X136592164Y-115760780D01*
X136332037Y-115371472D01*
X135942729Y-115111345D01*
X135483509Y-115020000D01*
X135436491Y-115020000D01*
X134977271Y-115111345D01*
X134587963Y-115371472D01*
X134327836Y-115760780D01*
X134236491Y-116220000D01*
X133997937Y-116220000D01*
X133951364Y-116107286D01*
X133768676Y-115924278D01*
X133529860Y-115825113D01*
X133271274Y-115824888D01*
X133032286Y-115923636D01*
X132849278Y-116106324D01*
X132750113Y-116345140D01*
X132749888Y-116603726D01*
X132848636Y-116842714D01*
X133031324Y-117025722D01*
X133270140Y-117124887D01*
X133350000Y-117124956D01*
X133350000Y-118599999D01*
X133229860Y-118550113D01*
X132971274Y-118549888D01*
X132732286Y-118648636D01*
X132550000Y-118830603D01*
X132550000Y-117969222D01*
X132650722Y-117868676D01*
X132749887Y-117629860D01*
X132750112Y-117371274D01*
X132651364Y-117132286D01*
X132468676Y-116949278D01*
X132229860Y-116850113D01*
X131971274Y-116849888D01*
X131775000Y-116930987D01*
X131775000Y-114444353D01*
X131800722Y-114418676D01*
X131899887Y-114179860D01*
X131900112Y-113921274D01*
X131801364Y-113682286D01*
X131799082Y-113680000D01*
X134236491Y-113680000D01*
X134327836Y-114139220D01*
X134587963Y-114528528D01*
X134977271Y-114788655D01*
X135436491Y-114880000D01*
X135483509Y-114880000D01*
X135942729Y-114788655D01*
X136332037Y-114528528D01*
X136592164Y-114139220D01*
X136683509Y-113680000D01*
X136776491Y-113680000D01*
X136867836Y-114139220D01*
X137127963Y-114528528D01*
X137517271Y-114788655D01*
X137976491Y-114880000D01*
X138023509Y-114880000D01*
X138482729Y-114788655D01*
X138872037Y-114528528D01*
X139125000Y-114149942D01*
X139125000Y-115750058D01*
X138872037Y-115371472D01*
X138482729Y-115111345D01*
X138023509Y-115020000D01*
X137976491Y-115020000D01*
X137517271Y-115111345D01*
X137127963Y-115371472D01*
X136867836Y-115760780D01*
X136776491Y-116220000D01*
X136867836Y-116679220D01*
X137127963Y-117068528D01*
X137517271Y-117328655D01*
X137976491Y-117420000D01*
X138023509Y-117420000D01*
X138482729Y-117328655D01*
X138872037Y-117068528D01*
X139125000Y-116689942D01*
X139125000Y-118290058D01*
X138872037Y-117911472D01*
X138482729Y-117651345D01*
X138023509Y-117560000D01*
X137976491Y-117560000D01*
X137517271Y-117651345D01*
X137127963Y-117911472D01*
X136867836Y-118300780D01*
X136776491Y-118760000D01*
X136867836Y-119219220D01*
X137127963Y-119608528D01*
X137517271Y-119868655D01*
X137976491Y-119960000D01*
X138023509Y-119960000D01*
X138482729Y-119868655D01*
X138872037Y-119608528D01*
X139125000Y-119229942D01*
X139125000Y-120830058D01*
X138872037Y-120451472D01*
X138482729Y-120191345D01*
X138023509Y-120100000D01*
X137976491Y-120100000D01*
X137517271Y-120191345D01*
X137127963Y-120451472D01*
X136867836Y-120840780D01*
X136776491Y-121300000D01*
X136867836Y-121759220D01*
X137127963Y-122148528D01*
X137517271Y-122408655D01*
X137976491Y-122500000D01*
X138023509Y-122500000D01*
X138482729Y-122408655D01*
X138872037Y-122148528D01*
X139125000Y-121769942D01*
X139125000Y-121966317D01*
X139107286Y-121973636D01*
X138924278Y-122156324D01*
X138825113Y-122395140D01*
X138824888Y-122653726D01*
X138923636Y-122892714D01*
X139106324Y-123075722D01*
X139345140Y-123174887D01*
X139603726Y-123175112D01*
X139842714Y-123076364D01*
X140025722Y-122893676D01*
X140124887Y-122654860D01*
X140125112Y-122396274D01*
X140026364Y-122157286D01*
X140025000Y-122155920D01*
X140025000Y-119294343D01*
X140056324Y-119325722D01*
X140295140Y-119424887D01*
X140553726Y-119425112D01*
X140625000Y-119395662D01*
X140625000Y-120855734D01*
X140549278Y-120931324D01*
X140450113Y-121170140D01*
X140449888Y-121428726D01*
X140548636Y-121667714D01*
X140731324Y-121850722D01*
X140970140Y-121949887D01*
X141228726Y-121950112D01*
X141425000Y-121869013D01*
X141425000Y-125955778D01*
X141324278Y-126056324D01*
X141225113Y-126295140D01*
X141224888Y-126553726D01*
X141323636Y-126792714D01*
X141506324Y-126975722D01*
X141745140Y-127074887D01*
X142003726Y-127075112D01*
X142242714Y-126976364D01*
X142425722Y-126793676D01*
X142524887Y-126554860D01*
X142525112Y-126296274D01*
X142426364Y-126057286D01*
X142325000Y-125955744D01*
X142325000Y-98344222D01*
X142425722Y-98243676D01*
X142524887Y-98004860D01*
X142525112Y-97746274D01*
X142426364Y-97507286D01*
X142243676Y-97324278D01*
X142004860Y-97225113D01*
X141746274Y-97224888D01*
X141507286Y-97323636D01*
X141324278Y-97506324D01*
X141225113Y-97745140D01*
X141224888Y-98003726D01*
X141323636Y-98242714D01*
X141425000Y-98344256D01*
X141425000Y-106816523D01*
X141204860Y-106725113D01*
X140946274Y-106724888D01*
X140707286Y-106823636D01*
X140524278Y-107006324D01*
X140425113Y-107245140D01*
X140424888Y-107503726D01*
X140523636Y-107742714D01*
X140625000Y-107844256D01*
X140625000Y-109289619D01*
X140529860Y-109250113D01*
X140271274Y-109249888D01*
X140032286Y-109348636D01*
X139849278Y-109531324D01*
X139750113Y-109770140D01*
X139749888Y-110028726D01*
X139848636Y-110267714D01*
X139975000Y-110394299D01*
X139975000Y-111780657D01*
X139943676Y-111749278D01*
X139704860Y-111650113D01*
X139446274Y-111649888D01*
X139207286Y-111748636D01*
X139024278Y-111931324D01*
X138925113Y-112170140D01*
X138924888Y-112428726D01*
X139023636Y-112667714D01*
X139125000Y-112769256D01*
X139125000Y-113210058D01*
X138872037Y-112831472D01*
X138482729Y-112571345D01*
X138023509Y-112480000D01*
X137976491Y-112480000D01*
X137517271Y-112571345D01*
X137127963Y-112831472D01*
X136867836Y-113220780D01*
X136776491Y-113680000D01*
X136683509Y-113680000D01*
X136592164Y-113220780D01*
X136332037Y-112831472D01*
X135942729Y-112571345D01*
X135483509Y-112480000D01*
X135436491Y-112480000D01*
X134977271Y-112571345D01*
X134587963Y-112831472D01*
X134327836Y-113220780D01*
X134236491Y-113680000D01*
X131799082Y-113680000D01*
X131618676Y-113499278D01*
X131379860Y-113400113D01*
X131121274Y-113399888D01*
X130882286Y-113498636D01*
X130825000Y-113555822D01*
X130825000Y-111819178D01*
X130950722Y-111693676D01*
X131049887Y-111454860D01*
X131050112Y-111196274D01*
X131026861Y-111140000D01*
X134236491Y-111140000D01*
X134327836Y-111599220D01*
X134587963Y-111988528D01*
X134977271Y-112248655D01*
X135436491Y-112340000D01*
X135483509Y-112340000D01*
X135942729Y-112248655D01*
X136332037Y-111988528D01*
X136592164Y-111599220D01*
X136683509Y-111140000D01*
X136776491Y-111140000D01*
X136867836Y-111599220D01*
X137127963Y-111988528D01*
X137517271Y-112248655D01*
X137976491Y-112340000D01*
X138023509Y-112340000D01*
X138482729Y-112248655D01*
X138872037Y-111988528D01*
X139132164Y-111599220D01*
X139223509Y-111140000D01*
X139132164Y-110680780D01*
X138872037Y-110291472D01*
X138482729Y-110031345D01*
X138023509Y-109940000D01*
X137976491Y-109940000D01*
X137517271Y-110031345D01*
X137127963Y-110291472D01*
X136867836Y-110680780D01*
X136776491Y-111140000D01*
X136683509Y-111140000D01*
X136592164Y-110680780D01*
X136332037Y-110291472D01*
X135942729Y-110031345D01*
X135483509Y-109940000D01*
X135436491Y-109940000D01*
X134977271Y-110031345D01*
X134587963Y-110291472D01*
X134327836Y-110680780D01*
X134236491Y-111140000D01*
X131026861Y-111140000D01*
X130951364Y-110957286D01*
X130768676Y-110774278D01*
X130529860Y-110675113D01*
X130271274Y-110674888D01*
X130032286Y-110773636D01*
X129849278Y-110956324D01*
X129750113Y-111195140D01*
X129749888Y-111453726D01*
X129848636Y-111692714D01*
X129925000Y-111769212D01*
X129925000Y-127155778D01*
X129824278Y-127256324D01*
X129725113Y-127495140D01*
X129724888Y-127753726D01*
X126425000Y-127753726D01*
X126425000Y-124307844D01*
X126899810Y-124307844D01*
X127066922Y-124712286D01*
X127376087Y-125021991D01*
X127780237Y-125189808D01*
X128217844Y-125190190D01*
X128622286Y-125023078D01*
X128931991Y-124713913D01*
X129099808Y-124309763D01*
X129100190Y-123872156D01*
X128933078Y-123467714D01*
X128623913Y-123158009D01*
X128219763Y-122990192D01*
X127782156Y-122989810D01*
X127377714Y-123156922D01*
X127068009Y-123466087D01*
X126900192Y-123870237D01*
X126899810Y-124307844D01*
X126425000Y-124307844D01*
X126425000Y-121767844D01*
X126899810Y-121767844D01*
X127066922Y-122172286D01*
X127376087Y-122481991D01*
X127780237Y-122649808D01*
X128217844Y-122650190D01*
X128622286Y-122483078D01*
X128931991Y-122173913D01*
X129099808Y-121769763D01*
X129100190Y-121332156D01*
X128933078Y-120927714D01*
X128623913Y-120618009D01*
X128219763Y-120450192D01*
X127782156Y-120449810D01*
X127377714Y-120616922D01*
X127068009Y-120926087D01*
X126900192Y-121330237D01*
X126899810Y-121767844D01*
X126425000Y-121767844D01*
X126425000Y-119227844D01*
X126899810Y-119227844D01*
X127066922Y-119632286D01*
X127376087Y-119941991D01*
X127780237Y-120109808D01*
X128217844Y-120110190D01*
X128622286Y-119943078D01*
X128931991Y-119633913D01*
X129099808Y-119229763D01*
X129100190Y-118792156D01*
X128933078Y-118387714D01*
X128623913Y-118078009D01*
X128219763Y-117910192D01*
X127782156Y-117909810D01*
X127377714Y-118076922D01*
X127068009Y-118386087D01*
X126900192Y-118790237D01*
X126899810Y-119227844D01*
X126425000Y-119227844D01*
X126425000Y-116687844D01*
X126899810Y-116687844D01*
X127066922Y-117092286D01*
X127376087Y-117401991D01*
X127780237Y-117569808D01*
X128217844Y-117570190D01*
X128622286Y-117403078D01*
X128931991Y-117093913D01*
X129099808Y-116689763D01*
X129100190Y-116252156D01*
X128933078Y-115847714D01*
X128623913Y-115538009D01*
X128219763Y-115370192D01*
X127782156Y-115369810D01*
X127377714Y-115536922D01*
X127068009Y-115846087D01*
X126900192Y-116250237D01*
X126899810Y-116687844D01*
X126425000Y-116687844D01*
X126425000Y-114147844D01*
X126899810Y-114147844D01*
X127066922Y-114552286D01*
X127376087Y-114861991D01*
X127780237Y-115029808D01*
X128217844Y-115030190D01*
X128622286Y-114863078D01*
X128931991Y-114553913D01*
X129099808Y-114149763D01*
X129100190Y-113712156D01*
X128933078Y-113307714D01*
X128623913Y-112998009D01*
X128219763Y-112830192D01*
X127782156Y-112829810D01*
X127377714Y-112996922D01*
X127068009Y-113306087D01*
X126900192Y-113710237D01*
X126899810Y-114147844D01*
X126425000Y-114147844D01*
X126425000Y-111607844D01*
X126899810Y-111607844D01*
X127066922Y-112012286D01*
X127376087Y-112321991D01*
X127780237Y-112489808D01*
X128217844Y-112490190D01*
X128622286Y-112323078D01*
X128931991Y-112013913D01*
X129099808Y-111609763D01*
X129100190Y-111172156D01*
X128933078Y-110767714D01*
X128623913Y-110458009D01*
X128219763Y-110290192D01*
X127782156Y-110289810D01*
X127377714Y-110456922D01*
X127068009Y-110766087D01*
X126900192Y-111170237D01*
X126899810Y-111607844D01*
X126425000Y-111607844D01*
X126425000Y-109067844D01*
X126899810Y-109067844D01*
X127066922Y-109472286D01*
X127376087Y-109781991D01*
X127780237Y-109949808D01*
X128217844Y-109950190D01*
X128622286Y-109783078D01*
X128931991Y-109473913D01*
X129099808Y-109069763D01*
X129100190Y-108632156D01*
X129086904Y-108600000D01*
X134236491Y-108600000D01*
X134327836Y-109059220D01*
X134587963Y-109448528D01*
X134977271Y-109708655D01*
X135436491Y-109800000D01*
X135483509Y-109800000D01*
X135942729Y-109708655D01*
X136332037Y-109448528D01*
X136592164Y-109059220D01*
X136683509Y-108600000D01*
X136776491Y-108600000D01*
X136867836Y-109059220D01*
X137127963Y-109448528D01*
X137517271Y-109708655D01*
X137976491Y-109800000D01*
X138023509Y-109800000D01*
X138482729Y-109708655D01*
X138872037Y-109448528D01*
X139132164Y-109059220D01*
X139223509Y-108600000D01*
X139132164Y-108140780D01*
X138872037Y-107751472D01*
X138482729Y-107491345D01*
X138023509Y-107400000D01*
X137976491Y-107400000D01*
X137517271Y-107491345D01*
X137127963Y-107751472D01*
X136867836Y-108140780D01*
X136776491Y-108600000D01*
X136683509Y-108600000D01*
X136592164Y-108140780D01*
X136332037Y-107751472D01*
X135942729Y-107491345D01*
X135483509Y-107400000D01*
X135436491Y-107400000D01*
X134977271Y-107491345D01*
X134587963Y-107751472D01*
X134327836Y-108140780D01*
X134236491Y-108600000D01*
X129086904Y-108600000D01*
X128933078Y-108227714D01*
X128623913Y-107918009D01*
X128219763Y-107750192D01*
X127782156Y-107749810D01*
X127377714Y-107916922D01*
X127068009Y-108226087D01*
X126900192Y-108630237D01*
X126899810Y-109067844D01*
X126425000Y-109067844D01*
X126425000Y-106527844D01*
X126899810Y-106527844D01*
X127066922Y-106932286D01*
X127376087Y-107241991D01*
X127780237Y-107409808D01*
X128217844Y-107410190D01*
X128622286Y-107243078D01*
X128931991Y-106933913D01*
X129099808Y-106529763D01*
X129100190Y-106092156D01*
X129086904Y-106060000D01*
X134236491Y-106060000D01*
X134327836Y-106519220D01*
X134587963Y-106908528D01*
X134977271Y-107168655D01*
X135436491Y-107260000D01*
X135483509Y-107260000D01*
X135942729Y-107168655D01*
X136332037Y-106908528D01*
X136592164Y-106519220D01*
X136683509Y-106060000D01*
X136776491Y-106060000D01*
X136867836Y-106519220D01*
X137127963Y-106908528D01*
X137517271Y-107168655D01*
X137976491Y-107260000D01*
X138023509Y-107260000D01*
X138482729Y-107168655D01*
X138872037Y-106908528D01*
X139132164Y-106519220D01*
X139223509Y-106060000D01*
X139132164Y-105600780D01*
X138872037Y-105211472D01*
X138482729Y-104951345D01*
X138023509Y-104860000D01*
X137976491Y-104860000D01*
X137517271Y-104951345D01*
X137127963Y-105211472D01*
X136867836Y-105600780D01*
X136776491Y-106060000D01*
X136683509Y-106060000D01*
X136592164Y-105600780D01*
X136332037Y-105211472D01*
X135942729Y-104951345D01*
X135483509Y-104860000D01*
X135436491Y-104860000D01*
X134977271Y-104951345D01*
X134587963Y-105211472D01*
X134327836Y-105600780D01*
X134236491Y-106060000D01*
X129086904Y-106060000D01*
X128933078Y-105687714D01*
X128623913Y-105378009D01*
X128219763Y-105210192D01*
X127782156Y-105209810D01*
X127377714Y-105376922D01*
X127068009Y-105686087D01*
X126900192Y-106090237D01*
X126899810Y-106527844D01*
X126425000Y-106527844D01*
X126425000Y-103987844D01*
X126899810Y-103987844D01*
X127066922Y-104392286D01*
X127376087Y-104701991D01*
X127780237Y-104869808D01*
X128217844Y-104870190D01*
X128622286Y-104703078D01*
X128931991Y-104393913D01*
X129099808Y-103989763D01*
X129100190Y-103552156D01*
X129086904Y-103520000D01*
X134236491Y-103520000D01*
X134327836Y-103979220D01*
X134587963Y-104368528D01*
X134977271Y-104628655D01*
X135436491Y-104720000D01*
X135483509Y-104720000D01*
X135942729Y-104628655D01*
X136332037Y-104368528D01*
X136592164Y-103979220D01*
X136683509Y-103520000D01*
X136776491Y-103520000D01*
X136867836Y-103979220D01*
X137127963Y-104368528D01*
X137517271Y-104628655D01*
X137976491Y-104720000D01*
X138023509Y-104720000D01*
X138482729Y-104628655D01*
X138872037Y-104368528D01*
X139132164Y-103979220D01*
X139223509Y-103520000D01*
X139132164Y-103060780D01*
X138872037Y-102671472D01*
X138482729Y-102411345D01*
X138023509Y-102320000D01*
X137976491Y-102320000D01*
X137517271Y-102411345D01*
X137127963Y-102671472D01*
X136867836Y-103060780D01*
X136776491Y-103520000D01*
X136683509Y-103520000D01*
X136592164Y-103060780D01*
X136332037Y-102671472D01*
X135942729Y-102411345D01*
X135483509Y-102320000D01*
X135436491Y-102320000D01*
X134977271Y-102411345D01*
X134587963Y-102671472D01*
X134327836Y-103060780D01*
X134236491Y-103520000D01*
X129086904Y-103520000D01*
X128933078Y-103147714D01*
X128623913Y-102838009D01*
X128219763Y-102670192D01*
X127782156Y-102669810D01*
X127377714Y-102836922D01*
X127068009Y-103146087D01*
X126900192Y-103550237D01*
X126899810Y-103987844D01*
X126425000Y-103987844D01*
X126425000Y-101447844D01*
X126899810Y-101447844D01*
X127066922Y-101852286D01*
X127376087Y-102161991D01*
X127780237Y-102329808D01*
X128217844Y-102330190D01*
X128622286Y-102163078D01*
X128931991Y-101853913D01*
X129099808Y-101449763D01*
X129100190Y-101012156D01*
X129086904Y-100980000D01*
X134236491Y-100980000D01*
X134327836Y-101439220D01*
X134587963Y-101828528D01*
X134977271Y-102088655D01*
X135436491Y-102180000D01*
X135483509Y-102180000D01*
X135942729Y-102088655D01*
X136332037Y-101828528D01*
X136592164Y-101439220D01*
X136683509Y-100980000D01*
X136776491Y-100980000D01*
X136867836Y-101439220D01*
X137127963Y-101828528D01*
X137517271Y-102088655D01*
X137976491Y-102180000D01*
X138023509Y-102180000D01*
X138482729Y-102088655D01*
X138872037Y-101828528D01*
X139132164Y-101439220D01*
X139223509Y-100980000D01*
X139132164Y-100520780D01*
X138872037Y-100131472D01*
X138482729Y-99871345D01*
X138023509Y-99780000D01*
X137976491Y-99780000D01*
X137517271Y-99871345D01*
X137127963Y-100131472D01*
X136867836Y-100520780D01*
X136776491Y-100980000D01*
X136683509Y-100980000D01*
X136592164Y-100520780D01*
X136332037Y-100131472D01*
X135942729Y-99871345D01*
X135483509Y-99780000D01*
X135436491Y-99780000D01*
X134977271Y-99871345D01*
X134587963Y-100131472D01*
X134327836Y-100520780D01*
X134236491Y-100980000D01*
X129086904Y-100980000D01*
X128933078Y-100607714D01*
X128623913Y-100298009D01*
X128219763Y-100130192D01*
X127782156Y-100129810D01*
X127377714Y-100296922D01*
X127068009Y-100606087D01*
X126900192Y-101010237D01*
X126899810Y-101447844D01*
X126425000Y-101447844D01*
X126425000Y-98907844D01*
X126899810Y-98907844D01*
X127066922Y-99312286D01*
X127376087Y-99621991D01*
X127780237Y-99789808D01*
X128217844Y-99790190D01*
X128622286Y-99623078D01*
X128931991Y-99313913D01*
X129099808Y-98909763D01*
X129100190Y-98472156D01*
X129086904Y-98440000D01*
X134236491Y-98440000D01*
X134327836Y-98899220D01*
X134587963Y-99288528D01*
X134977271Y-99548655D01*
X135436491Y-99640000D01*
X135483509Y-99640000D01*
X135942729Y-99548655D01*
X136332037Y-99288528D01*
X136592164Y-98899220D01*
X136683509Y-98440000D01*
X136776491Y-98440000D01*
X136867836Y-98899220D01*
X137127963Y-99288528D01*
X137517271Y-99548655D01*
X137976491Y-99640000D01*
X138023509Y-99640000D01*
X138482729Y-99548655D01*
X138872037Y-99288528D01*
X139132164Y-98899220D01*
X139223509Y-98440000D01*
X139132164Y-97980780D01*
X138872037Y-97591472D01*
X138482729Y-97331345D01*
X138023509Y-97240000D01*
X137976491Y-97240000D01*
X137517271Y-97331345D01*
X137127963Y-97591472D01*
X136867836Y-97980780D01*
X136776491Y-98440000D01*
X136683509Y-98440000D01*
X136592164Y-97980780D01*
X136332037Y-97591472D01*
X135942729Y-97331345D01*
X135483509Y-97240000D01*
X135436491Y-97240000D01*
X134977271Y-97331345D01*
X134587963Y-97591472D01*
X134327836Y-97980780D01*
X134236491Y-98440000D01*
X129086904Y-98440000D01*
X128933078Y-98067714D01*
X128623913Y-97758009D01*
X128219763Y-97590192D01*
X127782156Y-97589810D01*
X127377714Y-97756922D01*
X127068009Y-98066087D01*
X126900192Y-98470237D01*
X126899810Y-98907844D01*
X126425000Y-98907844D01*
X126425000Y-96367844D01*
X126899810Y-96367844D01*
X127066922Y-96772286D01*
X127376087Y-97081991D01*
X127780237Y-97249808D01*
X128217844Y-97250190D01*
X128622286Y-97083078D01*
X128931991Y-96773913D01*
X129099808Y-96369763D01*
X129100190Y-95932156D01*
X129086904Y-95900000D01*
X134236491Y-95900000D01*
X134327836Y-96359220D01*
X134587963Y-96748528D01*
X134977271Y-97008655D01*
X135436491Y-97100000D01*
X135483509Y-97100000D01*
X135942729Y-97008655D01*
X136332037Y-96748528D01*
X136592164Y-96359220D01*
X136683509Y-95900000D01*
X136776491Y-95900000D01*
X136867836Y-96359220D01*
X137127963Y-96748528D01*
X137517271Y-97008655D01*
X137976491Y-97100000D01*
X138023509Y-97100000D01*
X138482729Y-97008655D01*
X138872037Y-96748528D01*
X139132164Y-96359220D01*
X139223509Y-95900000D01*
X139132164Y-95440780D01*
X138872037Y-95051472D01*
X138482729Y-94791345D01*
X138023509Y-94700000D01*
X137976491Y-94700000D01*
X137517271Y-94791345D01*
X137127963Y-95051472D01*
X136867836Y-95440780D01*
X136776491Y-95900000D01*
X136683509Y-95900000D01*
X136592164Y-95440780D01*
X136332037Y-95051472D01*
X135942729Y-94791345D01*
X135483509Y-94700000D01*
X135436491Y-94700000D01*
X134977271Y-94791345D01*
X134587963Y-95051472D01*
X134327836Y-95440780D01*
X134236491Y-95900000D01*
X129086904Y-95900000D01*
X128933078Y-95527714D01*
X128623913Y-95218009D01*
X128219763Y-95050192D01*
X127782156Y-95049810D01*
X127377714Y-95216922D01*
X127068009Y-95526087D01*
X126900192Y-95930237D01*
X126899810Y-96367844D01*
X126425000Y-96367844D01*
X126425000Y-94222553D01*
X127422802Y-94222553D01*
X127511032Y-94325539D01*
X127822078Y-94458192D01*
X128160210Y-94461715D01*
X128473952Y-94335573D01*
X128488968Y-94325539D01*
X128577198Y-94222553D01*
X128000000Y-93645355D01*
X127422802Y-94222553D01*
X126425000Y-94222553D01*
X126425000Y-93770210D01*
X127148285Y-93770210D01*
X127274427Y-94083952D01*
X127284461Y-94098968D01*
X127387447Y-94187198D01*
X127964645Y-93610000D01*
X128035355Y-93610000D01*
X128612553Y-94187198D01*
X128715539Y-94098968D01*
X128848192Y-93787922D01*
X128851715Y-93449790D01*
X128815615Y-93360000D01*
X134236491Y-93360000D01*
X134327836Y-93819220D01*
X134587963Y-94208528D01*
X134977271Y-94468655D01*
X135436491Y-94560000D01*
X135483509Y-94560000D01*
X135942729Y-94468655D01*
X136332037Y-94208528D01*
X136592164Y-93819220D01*
X136683509Y-93360000D01*
X136776491Y-93360000D01*
X136867836Y-93819220D01*
X137127963Y-94208528D01*
X137517271Y-94468655D01*
X137976491Y-94560000D01*
X138023509Y-94560000D01*
X138482729Y-94468655D01*
X138872037Y-94208528D01*
X139132164Y-93819220D01*
X139223509Y-93360000D01*
X139132164Y-92900780D01*
X138872037Y-92511472D01*
X138482729Y-92251345D01*
X138023509Y-92160000D01*
X137976491Y-92160000D01*
X137517271Y-92251345D01*
X137127963Y-92511472D01*
X136867836Y-92900780D01*
X136776491Y-93360000D01*
X136683509Y-93360000D01*
X136592164Y-92900780D01*
X136332037Y-92511472D01*
X135942729Y-92251345D01*
X135483509Y-92160000D01*
X135436491Y-92160000D01*
X134977271Y-92251345D01*
X134587963Y-92511472D01*
X134327836Y-92900780D01*
X134236491Y-93360000D01*
X128815615Y-93360000D01*
X128725573Y-93136048D01*
X128715539Y-93121032D01*
X128612553Y-93032802D01*
X128035355Y-93610000D01*
X127964645Y-93610000D01*
X127387447Y-93032802D01*
X127284461Y-93121032D01*
X127151808Y-93432078D01*
X127148285Y-93770210D01*
X126425000Y-93770210D01*
X126425000Y-92997447D01*
X127422802Y-92997447D01*
X128000000Y-93574645D01*
X128577198Y-92997447D01*
X128488968Y-92894461D01*
X128177922Y-92761808D01*
X127839790Y-92758285D01*
X127526048Y-92884427D01*
X127511032Y-92894461D01*
X127422802Y-92997447D01*
X126425000Y-92997447D01*
X126425000Y-91287844D01*
X126899810Y-91287844D01*
X127066922Y-91692286D01*
X127376087Y-92001991D01*
X127780237Y-92169808D01*
X128217844Y-92170190D01*
X128622286Y-92003078D01*
X128931991Y-91693913D01*
X129099808Y-91289763D01*
X129100190Y-90852156D01*
X129086904Y-90820000D01*
X134236491Y-90820000D01*
X134327836Y-91279220D01*
X134587963Y-91668528D01*
X134977271Y-91928655D01*
X135436491Y-92020000D01*
X135483509Y-92020000D01*
X135942729Y-91928655D01*
X136332037Y-91668528D01*
X136592164Y-91279220D01*
X136683509Y-90820000D01*
X136776491Y-90820000D01*
X136867836Y-91279220D01*
X137127963Y-91668528D01*
X137517271Y-91928655D01*
X137976491Y-92020000D01*
X138023509Y-92020000D01*
X138482729Y-91928655D01*
X138872037Y-91668528D01*
X139132164Y-91279220D01*
X139223509Y-90820000D01*
X139132164Y-90360780D01*
X138872037Y-89971472D01*
X138482729Y-89711345D01*
X138023509Y-89620000D01*
X137976491Y-89620000D01*
X137517271Y-89711345D01*
X137127963Y-89971472D01*
X136867836Y-90360780D01*
X136776491Y-90820000D01*
X136683509Y-90820000D01*
X136592164Y-90360780D01*
X136332037Y-89971472D01*
X135942729Y-89711345D01*
X135483509Y-89620000D01*
X135436491Y-89620000D01*
X134977271Y-89711345D01*
X134587963Y-89971472D01*
X134327836Y-90360780D01*
X134236491Y-90820000D01*
X129086904Y-90820000D01*
X128933078Y-90447714D01*
X128623913Y-90138009D01*
X128219763Y-89970192D01*
X127782156Y-89969810D01*
X127377714Y-90136922D01*
X127068009Y-90446087D01*
X126900192Y-90850237D01*
X126899810Y-91287844D01*
X126425000Y-91287844D01*
X126425000Y-88747844D01*
X126899810Y-88747844D01*
X127066922Y-89152286D01*
X127376087Y-89461991D01*
X127780237Y-89629808D01*
X128217844Y-89630190D01*
X128622286Y-89463078D01*
X128931991Y-89153913D01*
X129099808Y-88749763D01*
X129100190Y-88312156D01*
X129086904Y-88280000D01*
X134236491Y-88280000D01*
X134327836Y-88739220D01*
X134587963Y-89128528D01*
X134977271Y-89388655D01*
X135436491Y-89480000D01*
X135483509Y-89480000D01*
X135942729Y-89388655D01*
X136332037Y-89128528D01*
X136592164Y-88739220D01*
X136683509Y-88280000D01*
X136776491Y-88280000D01*
X136867836Y-88739220D01*
X137127963Y-89128528D01*
X137517271Y-89388655D01*
X137976491Y-89480000D01*
X138023509Y-89480000D01*
X138482729Y-89388655D01*
X138872037Y-89128528D01*
X139132164Y-88739220D01*
X139223509Y-88280000D01*
X139132164Y-87820780D01*
X138872037Y-87431472D01*
X138482729Y-87171345D01*
X138023509Y-87080000D01*
X137976491Y-87080000D01*
X137517271Y-87171345D01*
X137127963Y-87431472D01*
X136867836Y-87820780D01*
X136776491Y-88280000D01*
X136683509Y-88280000D01*
X136592164Y-87820780D01*
X136332037Y-87431472D01*
X135942729Y-87171345D01*
X135483509Y-87080000D01*
X135436491Y-87080000D01*
X134977271Y-87171345D01*
X134587963Y-87431472D01*
X134327836Y-87820780D01*
X134236491Y-88280000D01*
X129086904Y-88280000D01*
X128933078Y-87907714D01*
X128623913Y-87598009D01*
X128219763Y-87430192D01*
X127782156Y-87429810D01*
X127377714Y-87596922D01*
X127068009Y-87906087D01*
X126900192Y-88310237D01*
X126899810Y-88747844D01*
X126425000Y-88747844D01*
X126425000Y-86207844D01*
X126899810Y-86207844D01*
X127066922Y-86612286D01*
X127376087Y-86921991D01*
X127780237Y-87089808D01*
X128217844Y-87090190D01*
X128622286Y-86923078D01*
X128931991Y-86613913D01*
X129099808Y-86209763D01*
X129100190Y-85772156D01*
X129086904Y-85740000D01*
X134236491Y-85740000D01*
X134327836Y-86199220D01*
X134587963Y-86588528D01*
X134977271Y-86848655D01*
X135436491Y-86940000D01*
X135483509Y-86940000D01*
X135942729Y-86848655D01*
X136332037Y-86588528D01*
X136592164Y-86199220D01*
X136683509Y-85740000D01*
X136776491Y-85740000D01*
X136867836Y-86199220D01*
X137127963Y-86588528D01*
X137517271Y-86848655D01*
X137976491Y-86940000D01*
X138023509Y-86940000D01*
X138482729Y-86848655D01*
X138872037Y-86588528D01*
X139132164Y-86199220D01*
X139223509Y-85740000D01*
X139132164Y-85280780D01*
X138872037Y-84891472D01*
X138482729Y-84631345D01*
X138023509Y-84540000D01*
X137976491Y-84540000D01*
X137517271Y-84631345D01*
X137127963Y-84891472D01*
X136867836Y-85280780D01*
X136776491Y-85740000D01*
X136683509Y-85740000D01*
X136592164Y-85280780D01*
X136332037Y-84891472D01*
X135942729Y-84631345D01*
X135483509Y-84540000D01*
X135436491Y-84540000D01*
X134977271Y-84631345D01*
X134587963Y-84891472D01*
X134327836Y-85280780D01*
X134236491Y-85740000D01*
X129086904Y-85740000D01*
X128933078Y-85367714D01*
X128623913Y-85058009D01*
X128219763Y-84890192D01*
X127782156Y-84889810D01*
X127377714Y-85056922D01*
X127068009Y-85366087D01*
X126900192Y-85770237D01*
X126899810Y-86207844D01*
X126425000Y-86207844D01*
X126425000Y-83667844D01*
X126899810Y-83667844D01*
X127066922Y-84072286D01*
X127376087Y-84381991D01*
X127780237Y-84549808D01*
X128217844Y-84550190D01*
X128622286Y-84383078D01*
X128931991Y-84073913D01*
X129099808Y-83669763D01*
X129100190Y-83232156D01*
X128933078Y-82827714D01*
X128623913Y-82518009D01*
X128219763Y-82350192D01*
X127782156Y-82349810D01*
X127377714Y-82516922D01*
X127068009Y-82826087D01*
X126900192Y-83230237D01*
X126899810Y-83667844D01*
X126425000Y-83667844D01*
X126425000Y-81127844D01*
X126899810Y-81127844D01*
X127066922Y-81532286D01*
X127376087Y-81841991D01*
X127780237Y-82009808D01*
X128217844Y-82010190D01*
X128622286Y-81843078D01*
X128931991Y-81533913D01*
X129099808Y-81129763D01*
X129100190Y-80692156D01*
X128933078Y-80287714D01*
X128623913Y-79978009D01*
X128219763Y-79810192D01*
X127782156Y-79809810D01*
X127377714Y-79976922D01*
X127068009Y-80286087D01*
X126900192Y-80690237D01*
X126899810Y-81127844D01*
X126425000Y-81127844D01*
X126425000Y-81041860D01*
X126552583Y-80400459D01*
X126892194Y-79892194D01*
X127400460Y-79552582D01*
X128041860Y-79425000D01*
X143958140Y-79425000D01*
X144599541Y-79552583D01*
M02*
