G04 #@! TF.FileFunction,Copper,L1,Top,Signal*
%FSLAX46Y46*%
G04 Gerber Fmt 4.6, Leading zero omitted, Abs format (unit mm)*
G04 Created by KiCad (PCBNEW 4.0.7-e1-6374~58~ubuntu14.04.1) date Fri Aug 25 00:07:31 2017*
%MOMM*%
%LPD*%
G01*
G04 APERTURE LIST*
%ADD10C,0.100000*%
%ADD11C,1.500000*%
%ADD12R,1.700000X1.700000*%
%ADD13O,1.700000X1.700000*%
%ADD14C,0.600000*%
%ADD15C,0.200000*%
G04 APERTURE END LIST*
D10*
D11*
X128000000Y-85990000D03*
X128000000Y-88530000D03*
X128000000Y-91070000D03*
X128000000Y-93610000D03*
X128000000Y-96150000D03*
X128000000Y-98690000D03*
X128000000Y-101230000D03*
X128000000Y-103770000D03*
X128000000Y-106310000D03*
X128000000Y-108850000D03*
X128000000Y-111390000D03*
X128000000Y-113930000D03*
X128000000Y-116470000D03*
X128000000Y-119010000D03*
X128000000Y-121550000D03*
X128000000Y-124090000D03*
X128000000Y-83450000D03*
X128000000Y-80910000D03*
D12*
X146200000Y-85650000D03*
D13*
X143660000Y-85650000D03*
X146200000Y-88190000D03*
X143660000Y-88190000D03*
X146200000Y-90730000D03*
X143660000Y-90730000D03*
X146200000Y-93270000D03*
X143660000Y-93270000D03*
X146200000Y-95810000D03*
X143660000Y-95810000D03*
X146200000Y-98350000D03*
X143660000Y-98350000D03*
X146200000Y-100890000D03*
X143660000Y-100890000D03*
X146200000Y-103430000D03*
X143660000Y-103430000D03*
X146200000Y-105970000D03*
X143660000Y-105970000D03*
X146200000Y-108510000D03*
X143660000Y-108510000D03*
X146200000Y-111050000D03*
X143660000Y-111050000D03*
X146200000Y-113590000D03*
X143660000Y-113590000D03*
X146200000Y-116130000D03*
X143660000Y-116130000D03*
X146200000Y-118670000D03*
X143660000Y-118670000D03*
X146200000Y-121210000D03*
X143660000Y-121210000D03*
X146200000Y-123750000D03*
X143660000Y-123750000D03*
X146200000Y-126290000D03*
X143660000Y-126290000D03*
X146200000Y-128830000D03*
X143660000Y-128830000D03*
X146200000Y-131370000D03*
X143660000Y-131370000D03*
X146200000Y-133910000D03*
X143660000Y-133910000D03*
D14*
X139800000Y-92200000D03*
X139400000Y-94500000D03*
X139400000Y-99600000D03*
X139400000Y-102100000D03*
D15*
X144880000Y-92050000D02*
X146200000Y-90730000D01*
X139950000Y-92050000D02*
X144880000Y-92050000D01*
X139800000Y-92200000D02*
X139950000Y-92050000D01*
X144450000Y-94500000D02*
X145680000Y-93270000D01*
X139400000Y-94500000D02*
X144450000Y-94500000D01*
X145680000Y-93270000D02*
X146200000Y-93270000D01*
X144950000Y-99600000D02*
X146200000Y-98350000D01*
X139400000Y-99600000D02*
X144950000Y-99600000D01*
X144940000Y-102150000D02*
X146200000Y-100890000D01*
X139450000Y-102150000D02*
X144940000Y-102150000D01*
X139400000Y-102100000D02*
X139450000Y-102150000D01*
G36*
X150611245Y-79524323D02*
X151129435Y-79870565D01*
X151475677Y-80388755D01*
X151605000Y-81038903D01*
X151605000Y-139961097D01*
X151475677Y-140611245D01*
X151129435Y-141129435D01*
X150611245Y-141475677D01*
X149961096Y-141605000D01*
X140038903Y-141605000D01*
X139388755Y-141475677D01*
X138870565Y-141129435D01*
X138524323Y-140611245D01*
X138395000Y-139961096D01*
X138395000Y-133910000D01*
X142467078Y-133910000D01*
X142556139Y-134357740D01*
X142809763Y-134737315D01*
X143189338Y-134990939D01*
X143637078Y-135080000D01*
X143682922Y-135080000D01*
X144130662Y-134990939D01*
X144510237Y-134737315D01*
X144763861Y-134357740D01*
X144818459Y-134083253D01*
X145265932Y-134083253D01*
X145270729Y-134107388D01*
X145417003Y-134447979D01*
X145682481Y-134706668D01*
X146026746Y-134844071D01*
X146175000Y-134834674D01*
X146175000Y-133935000D01*
X146225000Y-133935000D01*
X146225000Y-134834674D01*
X146373254Y-134844071D01*
X146717519Y-134706668D01*
X146982997Y-134447979D01*
X147129271Y-134107388D01*
X147134068Y-134083253D01*
X147124662Y-133935000D01*
X146225000Y-133935000D01*
X146175000Y-133935000D01*
X145275338Y-133935000D01*
X145265932Y-134083253D01*
X144818459Y-134083253D01*
X144852922Y-133910000D01*
X144818460Y-133736747D01*
X145265932Y-133736747D01*
X145275338Y-133885000D01*
X146175000Y-133885000D01*
X146175000Y-132985326D01*
X146225000Y-132985326D01*
X146225000Y-133885000D01*
X147124662Y-133885000D01*
X147134068Y-133736747D01*
X147129271Y-133712612D01*
X146982997Y-133372021D01*
X146717519Y-133113332D01*
X146373254Y-132975929D01*
X146225000Y-132985326D01*
X146175000Y-132985326D01*
X146026746Y-132975929D01*
X145682481Y-133113332D01*
X145417003Y-133372021D01*
X145270729Y-133712612D01*
X145265932Y-133736747D01*
X144818460Y-133736747D01*
X144763861Y-133462260D01*
X144510237Y-133082685D01*
X144130662Y-132829061D01*
X143682922Y-132740000D01*
X143637078Y-132740000D01*
X143189338Y-132829061D01*
X142809763Y-133082685D01*
X142556139Y-133462260D01*
X142467078Y-133910000D01*
X138395000Y-133910000D01*
X138395000Y-132000000D01*
X138387410Y-131961843D01*
X138387410Y-131922939D01*
X138277424Y-131370000D01*
X142467078Y-131370000D01*
X142556139Y-131817740D01*
X142809763Y-132197315D01*
X143189338Y-132450939D01*
X143637078Y-132540000D01*
X143682922Y-132540000D01*
X144130662Y-132450939D01*
X144510237Y-132197315D01*
X144763861Y-131817740D01*
X144852922Y-131370000D01*
X145007078Y-131370000D01*
X145096139Y-131817740D01*
X145349763Y-132197315D01*
X145729338Y-132450939D01*
X146177078Y-132540000D01*
X146222922Y-132540000D01*
X146670662Y-132450939D01*
X147050237Y-132197315D01*
X147303861Y-131817740D01*
X147392922Y-131370000D01*
X147303861Y-130922260D01*
X147050237Y-130542685D01*
X146670662Y-130289061D01*
X146222922Y-130200000D01*
X146177078Y-130200000D01*
X145729338Y-130289061D01*
X145349763Y-130542685D01*
X145096139Y-130922260D01*
X145007078Y-131370000D01*
X144852922Y-131370000D01*
X144763861Y-130922260D01*
X144510237Y-130542685D01*
X144130662Y-130289061D01*
X143682922Y-130200000D01*
X143637078Y-130200000D01*
X143189338Y-130289061D01*
X142809763Y-130542685D01*
X142556139Y-130922260D01*
X142467078Y-131370000D01*
X138277424Y-131370000D01*
X138235169Y-131157572D01*
X138217894Y-131115868D01*
X138176190Y-131015183D01*
X137742645Y-130366336D01*
X137688154Y-130311846D01*
X137633664Y-130257355D01*
X136984817Y-129823810D01*
X136842427Y-129764831D01*
X136077061Y-129612590D01*
X136038157Y-129612590D01*
X136000000Y-129605000D01*
X128038903Y-129605000D01*
X127388755Y-129475677D01*
X126870565Y-129129435D01*
X126670490Y-128830000D01*
X142467078Y-128830000D01*
X142556139Y-129277740D01*
X142809763Y-129657315D01*
X143189338Y-129910939D01*
X143637078Y-130000000D01*
X143682922Y-130000000D01*
X144130662Y-129910939D01*
X144510237Y-129657315D01*
X144763861Y-129277740D01*
X144852922Y-128830000D01*
X145007078Y-128830000D01*
X145096139Y-129277740D01*
X145349763Y-129657315D01*
X145729338Y-129910939D01*
X146177078Y-130000000D01*
X146222922Y-130000000D01*
X146670662Y-129910939D01*
X147050237Y-129657315D01*
X147303861Y-129277740D01*
X147392922Y-128830000D01*
X147303861Y-128382260D01*
X147050237Y-128002685D01*
X146670662Y-127749061D01*
X146222922Y-127660000D01*
X146177078Y-127660000D01*
X145729338Y-127749061D01*
X145349763Y-128002685D01*
X145096139Y-128382260D01*
X145007078Y-128830000D01*
X144852922Y-128830000D01*
X144763861Y-128382260D01*
X144510237Y-128002685D01*
X144130662Y-127749061D01*
X143682922Y-127660000D01*
X143637078Y-127660000D01*
X143189338Y-127749061D01*
X142809763Y-128002685D01*
X142556139Y-128382260D01*
X142467078Y-128830000D01*
X126670490Y-128830000D01*
X126524323Y-128611245D01*
X126395000Y-127961096D01*
X126395000Y-126463253D01*
X142725932Y-126463253D01*
X142730729Y-126487388D01*
X142877003Y-126827979D01*
X143142481Y-127086668D01*
X143486746Y-127224071D01*
X143635000Y-127214674D01*
X143635000Y-126315000D01*
X143685000Y-126315000D01*
X143685000Y-127214674D01*
X143833254Y-127224071D01*
X144177519Y-127086668D01*
X144442997Y-126827979D01*
X144589271Y-126487388D01*
X144594068Y-126463253D01*
X144584662Y-126315000D01*
X143685000Y-126315000D01*
X143635000Y-126315000D01*
X142735338Y-126315000D01*
X142725932Y-126463253D01*
X126395000Y-126463253D01*
X126395000Y-126290000D01*
X145007078Y-126290000D01*
X145096139Y-126737740D01*
X145349763Y-127117315D01*
X145729338Y-127370939D01*
X146177078Y-127460000D01*
X146222922Y-127460000D01*
X146670662Y-127370939D01*
X147050237Y-127117315D01*
X147303861Y-126737740D01*
X147392922Y-126290000D01*
X147303861Y-125842260D01*
X147050237Y-125462685D01*
X146670662Y-125209061D01*
X146222922Y-125120000D01*
X146177078Y-125120000D01*
X145729338Y-125209061D01*
X145349763Y-125462685D01*
X145096139Y-125842260D01*
X145007078Y-126290000D01*
X126395000Y-126290000D01*
X126395000Y-126116747D01*
X142725932Y-126116747D01*
X142735338Y-126265000D01*
X143635000Y-126265000D01*
X143635000Y-125365326D01*
X143685000Y-125365326D01*
X143685000Y-126265000D01*
X144584662Y-126265000D01*
X144594068Y-126116747D01*
X144589271Y-126092612D01*
X144442997Y-125752021D01*
X144177519Y-125493332D01*
X143833254Y-125355929D01*
X143685000Y-125365326D01*
X143635000Y-125365326D01*
X143486746Y-125355929D01*
X143142481Y-125493332D01*
X142877003Y-125752021D01*
X142730729Y-126092612D01*
X142725932Y-126116747D01*
X126395000Y-126116747D01*
X126395000Y-124301902D01*
X126929814Y-124301902D01*
X127092369Y-124695315D01*
X127393102Y-124996573D01*
X127786230Y-125159814D01*
X128211902Y-125160186D01*
X128605315Y-124997631D01*
X128906573Y-124696898D01*
X129069814Y-124303770D01*
X129070186Y-123878098D01*
X129017257Y-123750000D01*
X142467078Y-123750000D01*
X142556139Y-124197740D01*
X142809763Y-124577315D01*
X143189338Y-124830939D01*
X143637078Y-124920000D01*
X143682922Y-124920000D01*
X144130662Y-124830939D01*
X144510237Y-124577315D01*
X144763861Y-124197740D01*
X144852922Y-123750000D01*
X145007078Y-123750000D01*
X145096139Y-124197740D01*
X145349763Y-124577315D01*
X145729338Y-124830939D01*
X146177078Y-124920000D01*
X146222922Y-124920000D01*
X146670662Y-124830939D01*
X147050237Y-124577315D01*
X147303861Y-124197740D01*
X147392922Y-123750000D01*
X147303861Y-123302260D01*
X147050237Y-122922685D01*
X146670662Y-122669061D01*
X146222922Y-122580000D01*
X146177078Y-122580000D01*
X145729338Y-122669061D01*
X145349763Y-122922685D01*
X145096139Y-123302260D01*
X145007078Y-123750000D01*
X144852922Y-123750000D01*
X144763861Y-123302260D01*
X144510237Y-122922685D01*
X144130662Y-122669061D01*
X143682922Y-122580000D01*
X143637078Y-122580000D01*
X143189338Y-122669061D01*
X142809763Y-122922685D01*
X142556139Y-123302260D01*
X142467078Y-123750000D01*
X129017257Y-123750000D01*
X128907631Y-123484685D01*
X128606898Y-123183427D01*
X128213770Y-123020186D01*
X127788098Y-123019814D01*
X127394685Y-123182369D01*
X127093427Y-123483102D01*
X126930186Y-123876230D01*
X126929814Y-124301902D01*
X126395000Y-124301902D01*
X126395000Y-121761902D01*
X126929814Y-121761902D01*
X127092369Y-122155315D01*
X127393102Y-122456573D01*
X127786230Y-122619814D01*
X128211902Y-122620186D01*
X128605315Y-122457631D01*
X128906573Y-122156898D01*
X129069814Y-121763770D01*
X129070146Y-121383253D01*
X142725932Y-121383253D01*
X142730729Y-121407388D01*
X142877003Y-121747979D01*
X143142481Y-122006668D01*
X143486746Y-122144071D01*
X143635000Y-122134674D01*
X143635000Y-121235000D01*
X143685000Y-121235000D01*
X143685000Y-122134674D01*
X143833254Y-122144071D01*
X144177519Y-122006668D01*
X144442997Y-121747979D01*
X144589271Y-121407388D01*
X144594068Y-121383253D01*
X144584662Y-121235000D01*
X143685000Y-121235000D01*
X143635000Y-121235000D01*
X142735338Y-121235000D01*
X142725932Y-121383253D01*
X129070146Y-121383253D01*
X129070186Y-121338098D01*
X129017258Y-121210000D01*
X145007078Y-121210000D01*
X145096139Y-121657740D01*
X145349763Y-122037315D01*
X145729338Y-122290939D01*
X146177078Y-122380000D01*
X146222922Y-122380000D01*
X146670662Y-122290939D01*
X147050237Y-122037315D01*
X147303861Y-121657740D01*
X147392922Y-121210000D01*
X147303861Y-120762260D01*
X147050237Y-120382685D01*
X146670662Y-120129061D01*
X146222922Y-120040000D01*
X146177078Y-120040000D01*
X145729338Y-120129061D01*
X145349763Y-120382685D01*
X145096139Y-120762260D01*
X145007078Y-121210000D01*
X129017258Y-121210000D01*
X128945671Y-121036747D01*
X142725932Y-121036747D01*
X142735338Y-121185000D01*
X143635000Y-121185000D01*
X143635000Y-120285326D01*
X143685000Y-120285326D01*
X143685000Y-121185000D01*
X144584662Y-121185000D01*
X144594068Y-121036747D01*
X144589271Y-121012612D01*
X144442997Y-120672021D01*
X144177519Y-120413332D01*
X143833254Y-120275929D01*
X143685000Y-120285326D01*
X143635000Y-120285326D01*
X143486746Y-120275929D01*
X143142481Y-120413332D01*
X142877003Y-120672021D01*
X142730729Y-121012612D01*
X142725932Y-121036747D01*
X128945671Y-121036747D01*
X128907631Y-120944685D01*
X128606898Y-120643427D01*
X128213770Y-120480186D01*
X127788098Y-120479814D01*
X127394685Y-120642369D01*
X127093427Y-120943102D01*
X126930186Y-121336230D01*
X126929814Y-121761902D01*
X126395000Y-121761902D01*
X126395000Y-119221902D01*
X126929814Y-119221902D01*
X127092369Y-119615315D01*
X127393102Y-119916573D01*
X127786230Y-120079814D01*
X128211902Y-120080186D01*
X128605315Y-119917631D01*
X128906573Y-119616898D01*
X129069814Y-119223770D01*
X129070186Y-118798098D01*
X129017257Y-118670000D01*
X142467078Y-118670000D01*
X142556139Y-119117740D01*
X142809763Y-119497315D01*
X143189338Y-119750939D01*
X143637078Y-119840000D01*
X143682922Y-119840000D01*
X144130662Y-119750939D01*
X144510237Y-119497315D01*
X144763861Y-119117740D01*
X144852922Y-118670000D01*
X145007078Y-118670000D01*
X145096139Y-119117740D01*
X145349763Y-119497315D01*
X145729338Y-119750939D01*
X146177078Y-119840000D01*
X146222922Y-119840000D01*
X146670662Y-119750939D01*
X147050237Y-119497315D01*
X147303861Y-119117740D01*
X147392922Y-118670000D01*
X147303861Y-118222260D01*
X147050237Y-117842685D01*
X146670662Y-117589061D01*
X146222922Y-117500000D01*
X146177078Y-117500000D01*
X145729338Y-117589061D01*
X145349763Y-117842685D01*
X145096139Y-118222260D01*
X145007078Y-118670000D01*
X144852922Y-118670000D01*
X144763861Y-118222260D01*
X144510237Y-117842685D01*
X144130662Y-117589061D01*
X143682922Y-117500000D01*
X143637078Y-117500000D01*
X143189338Y-117589061D01*
X142809763Y-117842685D01*
X142556139Y-118222260D01*
X142467078Y-118670000D01*
X129017257Y-118670000D01*
X128907631Y-118404685D01*
X128606898Y-118103427D01*
X128213770Y-117940186D01*
X127788098Y-117939814D01*
X127394685Y-118102369D01*
X127093427Y-118403102D01*
X126930186Y-118796230D01*
X126929814Y-119221902D01*
X126395000Y-119221902D01*
X126395000Y-116681902D01*
X126929814Y-116681902D01*
X127092369Y-117075315D01*
X127393102Y-117376573D01*
X127786230Y-117539814D01*
X128211902Y-117540186D01*
X128605315Y-117377631D01*
X128906573Y-117076898D01*
X129069814Y-116683770D01*
X129070186Y-116258098D01*
X129017257Y-116130000D01*
X142467078Y-116130000D01*
X142556139Y-116577740D01*
X142809763Y-116957315D01*
X143189338Y-117210939D01*
X143637078Y-117300000D01*
X143682922Y-117300000D01*
X144130662Y-117210939D01*
X144510237Y-116957315D01*
X144763861Y-116577740D01*
X144818459Y-116303253D01*
X145265932Y-116303253D01*
X145270729Y-116327388D01*
X145417003Y-116667979D01*
X145682481Y-116926668D01*
X146026746Y-117064071D01*
X146175000Y-117054674D01*
X146175000Y-116155000D01*
X146225000Y-116155000D01*
X146225000Y-117054674D01*
X146373254Y-117064071D01*
X146717519Y-116926668D01*
X146982997Y-116667979D01*
X147129271Y-116327388D01*
X147134068Y-116303253D01*
X147124662Y-116155000D01*
X146225000Y-116155000D01*
X146175000Y-116155000D01*
X145275338Y-116155000D01*
X145265932Y-116303253D01*
X144818459Y-116303253D01*
X144852922Y-116130000D01*
X144818460Y-115956747D01*
X145265932Y-115956747D01*
X145275338Y-116105000D01*
X146175000Y-116105000D01*
X146175000Y-115205326D01*
X146225000Y-115205326D01*
X146225000Y-116105000D01*
X147124662Y-116105000D01*
X147134068Y-115956747D01*
X147129271Y-115932612D01*
X146982997Y-115592021D01*
X146717519Y-115333332D01*
X146373254Y-115195929D01*
X146225000Y-115205326D01*
X146175000Y-115205326D01*
X146026746Y-115195929D01*
X145682481Y-115333332D01*
X145417003Y-115592021D01*
X145270729Y-115932612D01*
X145265932Y-115956747D01*
X144818460Y-115956747D01*
X144763861Y-115682260D01*
X144510237Y-115302685D01*
X144130662Y-115049061D01*
X143682922Y-114960000D01*
X143637078Y-114960000D01*
X143189338Y-115049061D01*
X142809763Y-115302685D01*
X142556139Y-115682260D01*
X142467078Y-116130000D01*
X129017257Y-116130000D01*
X128907631Y-115864685D01*
X128606898Y-115563427D01*
X128213770Y-115400186D01*
X127788098Y-115399814D01*
X127394685Y-115562369D01*
X127093427Y-115863102D01*
X126930186Y-116256230D01*
X126929814Y-116681902D01*
X126395000Y-116681902D01*
X126395000Y-114141902D01*
X126929814Y-114141902D01*
X127092369Y-114535315D01*
X127393102Y-114836573D01*
X127786230Y-114999814D01*
X128211902Y-115000186D01*
X128605315Y-114837631D01*
X128906573Y-114536898D01*
X129069814Y-114143770D01*
X129070186Y-113718098D01*
X129017257Y-113590000D01*
X142467078Y-113590000D01*
X142556139Y-114037740D01*
X142809763Y-114417315D01*
X143189338Y-114670939D01*
X143637078Y-114760000D01*
X143682922Y-114760000D01*
X144130662Y-114670939D01*
X144510237Y-114417315D01*
X144763861Y-114037740D01*
X144852922Y-113590000D01*
X145007078Y-113590000D01*
X145096139Y-114037740D01*
X145349763Y-114417315D01*
X145729338Y-114670939D01*
X146177078Y-114760000D01*
X146222922Y-114760000D01*
X146670662Y-114670939D01*
X147050237Y-114417315D01*
X147303861Y-114037740D01*
X147392922Y-113590000D01*
X147303861Y-113142260D01*
X147050237Y-112762685D01*
X146670662Y-112509061D01*
X146222922Y-112420000D01*
X146177078Y-112420000D01*
X145729338Y-112509061D01*
X145349763Y-112762685D01*
X145096139Y-113142260D01*
X145007078Y-113590000D01*
X144852922Y-113590000D01*
X144763861Y-113142260D01*
X144510237Y-112762685D01*
X144130662Y-112509061D01*
X143682922Y-112420000D01*
X143637078Y-112420000D01*
X143189338Y-112509061D01*
X142809763Y-112762685D01*
X142556139Y-113142260D01*
X142467078Y-113590000D01*
X129017257Y-113590000D01*
X128907631Y-113324685D01*
X128606898Y-113023427D01*
X128213770Y-112860186D01*
X127788098Y-112859814D01*
X127394685Y-113022369D01*
X127093427Y-113323102D01*
X126930186Y-113716230D01*
X126929814Y-114141902D01*
X126395000Y-114141902D01*
X126395000Y-111601902D01*
X126929814Y-111601902D01*
X127092369Y-111995315D01*
X127393102Y-112296573D01*
X127786230Y-112459814D01*
X128211902Y-112460186D01*
X128605315Y-112297631D01*
X128906573Y-111996898D01*
X129069814Y-111603770D01*
X129070186Y-111178098D01*
X129017257Y-111050000D01*
X142467078Y-111050000D01*
X142556139Y-111497740D01*
X142809763Y-111877315D01*
X143189338Y-112130939D01*
X143637078Y-112220000D01*
X143682922Y-112220000D01*
X144130662Y-112130939D01*
X144510237Y-111877315D01*
X144763861Y-111497740D01*
X144852922Y-111050000D01*
X145007078Y-111050000D01*
X145096139Y-111497740D01*
X145349763Y-111877315D01*
X145729338Y-112130939D01*
X146177078Y-112220000D01*
X146222922Y-112220000D01*
X146670662Y-112130939D01*
X147050237Y-111877315D01*
X147303861Y-111497740D01*
X147392922Y-111050000D01*
X147303861Y-110602260D01*
X147050237Y-110222685D01*
X146670662Y-109969061D01*
X146222922Y-109880000D01*
X146177078Y-109880000D01*
X145729338Y-109969061D01*
X145349763Y-110222685D01*
X145096139Y-110602260D01*
X145007078Y-111050000D01*
X144852922Y-111050000D01*
X144763861Y-110602260D01*
X144510237Y-110222685D01*
X144130662Y-109969061D01*
X143682922Y-109880000D01*
X143637078Y-109880000D01*
X143189338Y-109969061D01*
X142809763Y-110222685D01*
X142556139Y-110602260D01*
X142467078Y-111050000D01*
X129017257Y-111050000D01*
X128907631Y-110784685D01*
X128606898Y-110483427D01*
X128213770Y-110320186D01*
X127788098Y-110319814D01*
X127394685Y-110482369D01*
X127093427Y-110783102D01*
X126930186Y-111176230D01*
X126929814Y-111601902D01*
X126395000Y-111601902D01*
X126395000Y-109061902D01*
X126929814Y-109061902D01*
X127092369Y-109455315D01*
X127393102Y-109756573D01*
X127786230Y-109919814D01*
X128211902Y-109920186D01*
X128605315Y-109757631D01*
X128906573Y-109456898D01*
X129069814Y-109063770D01*
X129070146Y-108683253D01*
X142725932Y-108683253D01*
X142730729Y-108707388D01*
X142877003Y-109047979D01*
X143142481Y-109306668D01*
X143486746Y-109444071D01*
X143635000Y-109434674D01*
X143635000Y-108535000D01*
X143685000Y-108535000D01*
X143685000Y-109434674D01*
X143833254Y-109444071D01*
X144177519Y-109306668D01*
X144442997Y-109047979D01*
X144589271Y-108707388D01*
X144594068Y-108683253D01*
X144584662Y-108535000D01*
X143685000Y-108535000D01*
X143635000Y-108535000D01*
X142735338Y-108535000D01*
X142725932Y-108683253D01*
X129070146Y-108683253D01*
X129070186Y-108638098D01*
X129017258Y-108510000D01*
X145007078Y-108510000D01*
X145096139Y-108957740D01*
X145349763Y-109337315D01*
X145729338Y-109590939D01*
X146177078Y-109680000D01*
X146222922Y-109680000D01*
X146670662Y-109590939D01*
X147050237Y-109337315D01*
X147303861Y-108957740D01*
X147392922Y-108510000D01*
X147303861Y-108062260D01*
X147050237Y-107682685D01*
X146670662Y-107429061D01*
X146222922Y-107340000D01*
X146177078Y-107340000D01*
X145729338Y-107429061D01*
X145349763Y-107682685D01*
X145096139Y-108062260D01*
X145007078Y-108510000D01*
X129017258Y-108510000D01*
X128945671Y-108336747D01*
X142725932Y-108336747D01*
X142735338Y-108485000D01*
X143635000Y-108485000D01*
X143635000Y-107585326D01*
X143685000Y-107585326D01*
X143685000Y-108485000D01*
X144584662Y-108485000D01*
X144594068Y-108336747D01*
X144589271Y-108312612D01*
X144442997Y-107972021D01*
X144177519Y-107713332D01*
X143833254Y-107575929D01*
X143685000Y-107585326D01*
X143635000Y-107585326D01*
X143486746Y-107575929D01*
X143142481Y-107713332D01*
X142877003Y-107972021D01*
X142730729Y-108312612D01*
X142725932Y-108336747D01*
X128945671Y-108336747D01*
X128907631Y-108244685D01*
X128606898Y-107943427D01*
X128213770Y-107780186D01*
X127788098Y-107779814D01*
X127394685Y-107942369D01*
X127093427Y-108243102D01*
X126930186Y-108636230D01*
X126929814Y-109061902D01*
X126395000Y-109061902D01*
X126395000Y-106521902D01*
X126929814Y-106521902D01*
X127092369Y-106915315D01*
X127393102Y-107216573D01*
X127786230Y-107379814D01*
X128211902Y-107380186D01*
X128605315Y-107217631D01*
X128906573Y-106916898D01*
X129069814Y-106523770D01*
X129070186Y-106098098D01*
X129017257Y-105970000D01*
X142467078Y-105970000D01*
X142556139Y-106417740D01*
X142809763Y-106797315D01*
X143189338Y-107050939D01*
X143637078Y-107140000D01*
X143682922Y-107140000D01*
X144130662Y-107050939D01*
X144510237Y-106797315D01*
X144763861Y-106417740D01*
X144852922Y-105970000D01*
X145007078Y-105970000D01*
X145096139Y-106417740D01*
X145349763Y-106797315D01*
X145729338Y-107050939D01*
X146177078Y-107140000D01*
X146222922Y-107140000D01*
X146670662Y-107050939D01*
X147050237Y-106797315D01*
X147303861Y-106417740D01*
X147392922Y-105970000D01*
X147303861Y-105522260D01*
X147050237Y-105142685D01*
X146670662Y-104889061D01*
X146222922Y-104800000D01*
X146177078Y-104800000D01*
X145729338Y-104889061D01*
X145349763Y-105142685D01*
X145096139Y-105522260D01*
X145007078Y-105970000D01*
X144852922Y-105970000D01*
X144763861Y-105522260D01*
X144510237Y-105142685D01*
X144130662Y-104889061D01*
X143682922Y-104800000D01*
X143637078Y-104800000D01*
X143189338Y-104889061D01*
X142809763Y-105142685D01*
X142556139Y-105522260D01*
X142467078Y-105970000D01*
X129017257Y-105970000D01*
X128907631Y-105704685D01*
X128606898Y-105403427D01*
X128213770Y-105240186D01*
X127788098Y-105239814D01*
X127394685Y-105402369D01*
X127093427Y-105703102D01*
X126930186Y-106096230D01*
X126929814Y-106521902D01*
X126395000Y-106521902D01*
X126395000Y-103981902D01*
X126929814Y-103981902D01*
X127092369Y-104375315D01*
X127393102Y-104676573D01*
X127786230Y-104839814D01*
X128211902Y-104840186D01*
X128605315Y-104677631D01*
X128906573Y-104376898D01*
X129069814Y-103983770D01*
X129070186Y-103558098D01*
X128907631Y-103164685D01*
X128606898Y-102863427D01*
X128213770Y-102700186D01*
X127788098Y-102699814D01*
X127394685Y-102862369D01*
X127093427Y-103163102D01*
X126930186Y-103556230D01*
X126929814Y-103981902D01*
X126395000Y-103981902D01*
X126395000Y-101441902D01*
X126929814Y-101441902D01*
X127092369Y-101835315D01*
X127393102Y-102136573D01*
X127786230Y-102299814D01*
X128211902Y-102300186D01*
X128399226Y-102222785D01*
X138779892Y-102222785D01*
X138874083Y-102450743D01*
X139048339Y-102625304D01*
X139276133Y-102719893D01*
X139522785Y-102720108D01*
X139750743Y-102625917D01*
X139806758Y-102570000D01*
X142858680Y-102570000D01*
X142809763Y-102602685D01*
X142556139Y-102982260D01*
X142467078Y-103430000D01*
X142556139Y-103877740D01*
X142809763Y-104257315D01*
X143189338Y-104510939D01*
X143637078Y-104600000D01*
X143682922Y-104600000D01*
X144130662Y-104510939D01*
X144510237Y-104257315D01*
X144763861Y-103877740D01*
X144852922Y-103430000D01*
X145007078Y-103430000D01*
X145096139Y-103877740D01*
X145349763Y-104257315D01*
X145729338Y-104510939D01*
X146177078Y-104600000D01*
X146222922Y-104600000D01*
X146670662Y-104510939D01*
X147050237Y-104257315D01*
X147303861Y-103877740D01*
X147392922Y-103430000D01*
X147303861Y-102982260D01*
X147050237Y-102602685D01*
X146670662Y-102349061D01*
X146222922Y-102260000D01*
X146177078Y-102260000D01*
X145729338Y-102349061D01*
X145349763Y-102602685D01*
X145096139Y-102982260D01*
X145007078Y-103430000D01*
X144852922Y-103430000D01*
X144763861Y-102982260D01*
X144510237Y-102602685D01*
X144461320Y-102570000D01*
X144940000Y-102570000D01*
X145100727Y-102538029D01*
X145236985Y-102446985D01*
X145719563Y-101964407D01*
X145729338Y-101970939D01*
X146177078Y-102060000D01*
X146222922Y-102060000D01*
X146670662Y-101970939D01*
X147050237Y-101717315D01*
X147303861Y-101337740D01*
X147392922Y-100890000D01*
X147303861Y-100442260D01*
X147050237Y-100062685D01*
X146670662Y-99809061D01*
X146222922Y-99720000D01*
X146177078Y-99720000D01*
X145729338Y-99809061D01*
X145349763Y-100062685D01*
X145096139Y-100442260D01*
X145007078Y-100890000D01*
X145096139Y-101337740D01*
X145121033Y-101374997D01*
X144766030Y-101730000D01*
X144068950Y-101730000D01*
X144177519Y-101686668D01*
X144442997Y-101427979D01*
X144589271Y-101087388D01*
X144594068Y-101063253D01*
X144584662Y-100915000D01*
X143685000Y-100915000D01*
X143685000Y-100935000D01*
X143635000Y-100935000D01*
X143635000Y-100915000D01*
X142735338Y-100915000D01*
X142725932Y-101063253D01*
X142730729Y-101087388D01*
X142877003Y-101427979D01*
X143142481Y-101686668D01*
X143251050Y-101730000D01*
X139906694Y-101730000D01*
X139751661Y-101574696D01*
X139523867Y-101480107D01*
X139277215Y-101479892D01*
X139049257Y-101574083D01*
X138874696Y-101748339D01*
X138780107Y-101976133D01*
X138779892Y-102222785D01*
X128399226Y-102222785D01*
X128605315Y-102137631D01*
X128906573Y-101836898D01*
X129069814Y-101443770D01*
X129070186Y-101018098D01*
X128907631Y-100624685D01*
X128606898Y-100323427D01*
X128213770Y-100160186D01*
X127788098Y-100159814D01*
X127394685Y-100322369D01*
X127093427Y-100623102D01*
X126930186Y-101016230D01*
X126929814Y-101441902D01*
X126395000Y-101441902D01*
X126395000Y-99722785D01*
X138779892Y-99722785D01*
X138874083Y-99950743D01*
X139048339Y-100125304D01*
X139276133Y-100219893D01*
X139522785Y-100220108D01*
X139750743Y-100125917D01*
X139856845Y-100020000D01*
X143326215Y-100020000D01*
X143142481Y-100093332D01*
X142877003Y-100352021D01*
X142730729Y-100692612D01*
X142725932Y-100716747D01*
X142735338Y-100865000D01*
X143635000Y-100865000D01*
X143635000Y-100845000D01*
X143685000Y-100845000D01*
X143685000Y-100865000D01*
X144584662Y-100865000D01*
X144594068Y-100716747D01*
X144589271Y-100692612D01*
X144442997Y-100352021D01*
X144177519Y-100093332D01*
X143993785Y-100020000D01*
X144950000Y-100020000D01*
X145110727Y-99988029D01*
X145246985Y-99896985D01*
X145719563Y-99424407D01*
X145729338Y-99430939D01*
X146177078Y-99520000D01*
X146222922Y-99520000D01*
X146670662Y-99430939D01*
X147050237Y-99177315D01*
X147303861Y-98797740D01*
X147392922Y-98350000D01*
X147303861Y-97902260D01*
X147050237Y-97522685D01*
X146670662Y-97269061D01*
X146222922Y-97180000D01*
X146177078Y-97180000D01*
X145729338Y-97269061D01*
X145349763Y-97522685D01*
X145096139Y-97902260D01*
X145007078Y-98350000D01*
X145096139Y-98797740D01*
X145121033Y-98834997D01*
X144776030Y-99180000D01*
X144506219Y-99180000D01*
X144510237Y-99177315D01*
X144763861Y-98797740D01*
X144852922Y-98350000D01*
X144763861Y-97902260D01*
X144510237Y-97522685D01*
X144130662Y-97269061D01*
X143682922Y-97180000D01*
X143637078Y-97180000D01*
X143189338Y-97269061D01*
X142809763Y-97522685D01*
X142556139Y-97902260D01*
X142467078Y-98350000D01*
X142556139Y-98797740D01*
X142809763Y-99177315D01*
X142813781Y-99180000D01*
X139856781Y-99180000D01*
X139751661Y-99074696D01*
X139523867Y-98980107D01*
X139277215Y-98979892D01*
X139049257Y-99074083D01*
X138874696Y-99248339D01*
X138780107Y-99476133D01*
X138779892Y-99722785D01*
X126395000Y-99722785D01*
X126395000Y-99302553D01*
X127422802Y-99302553D01*
X127511032Y-99405539D01*
X127822078Y-99538192D01*
X128160210Y-99541715D01*
X128473952Y-99415573D01*
X128488968Y-99405539D01*
X128577198Y-99302553D01*
X128000000Y-98725355D01*
X127422802Y-99302553D01*
X126395000Y-99302553D01*
X126395000Y-98850210D01*
X127148285Y-98850210D01*
X127274427Y-99163952D01*
X127284461Y-99178968D01*
X127387447Y-99267198D01*
X127964645Y-98690000D01*
X128035355Y-98690000D01*
X128612553Y-99267198D01*
X128715539Y-99178968D01*
X128848192Y-98867922D01*
X128851715Y-98529790D01*
X128725573Y-98216048D01*
X128715539Y-98201032D01*
X128612553Y-98112802D01*
X128035355Y-98690000D01*
X127964645Y-98690000D01*
X127387447Y-98112802D01*
X127284461Y-98201032D01*
X127151808Y-98512078D01*
X127148285Y-98850210D01*
X126395000Y-98850210D01*
X126395000Y-98077447D01*
X127422802Y-98077447D01*
X128000000Y-98654645D01*
X128577198Y-98077447D01*
X128488968Y-97974461D01*
X128177922Y-97841808D01*
X127839790Y-97838285D01*
X127526048Y-97964427D01*
X127511032Y-97974461D01*
X127422802Y-98077447D01*
X126395000Y-98077447D01*
X126395000Y-96361902D01*
X126929814Y-96361902D01*
X127092369Y-96755315D01*
X127393102Y-97056573D01*
X127786230Y-97219814D01*
X128211902Y-97220186D01*
X128605315Y-97057631D01*
X128906573Y-96756898D01*
X129069814Y-96363770D01*
X129070186Y-95938098D01*
X128907631Y-95544685D01*
X128606898Y-95243427D01*
X128213770Y-95080186D01*
X127788098Y-95079814D01*
X127394685Y-95242369D01*
X127093427Y-95543102D01*
X126930186Y-95936230D01*
X126929814Y-96361902D01*
X126395000Y-96361902D01*
X126395000Y-93821902D01*
X126929814Y-93821902D01*
X127092369Y-94215315D01*
X127393102Y-94516573D01*
X127786230Y-94679814D01*
X128211902Y-94680186D01*
X128350822Y-94622785D01*
X138779892Y-94622785D01*
X138874083Y-94850743D01*
X139048339Y-95025304D01*
X139276133Y-95119893D01*
X139522785Y-95120108D01*
X139750743Y-95025917D01*
X139856845Y-94920000D01*
X142903578Y-94920000D01*
X142809763Y-94982685D01*
X142556139Y-95362260D01*
X142467078Y-95810000D01*
X142556139Y-96257740D01*
X142809763Y-96637315D01*
X143189338Y-96890939D01*
X143637078Y-96980000D01*
X143682922Y-96980000D01*
X144130662Y-96890939D01*
X144510237Y-96637315D01*
X144763861Y-96257740D01*
X144818459Y-95983253D01*
X145265932Y-95983253D01*
X145270729Y-96007388D01*
X145417003Y-96347979D01*
X145682481Y-96606668D01*
X146026746Y-96744071D01*
X146175000Y-96734674D01*
X146175000Y-95835000D01*
X146225000Y-95835000D01*
X146225000Y-96734674D01*
X146373254Y-96744071D01*
X146717519Y-96606668D01*
X146982997Y-96347979D01*
X147129271Y-96007388D01*
X147134068Y-95983253D01*
X147124662Y-95835000D01*
X146225000Y-95835000D01*
X146175000Y-95835000D01*
X145275338Y-95835000D01*
X145265932Y-95983253D01*
X144818459Y-95983253D01*
X144852922Y-95810000D01*
X144818460Y-95636747D01*
X145265932Y-95636747D01*
X145275338Y-95785000D01*
X146175000Y-95785000D01*
X146175000Y-94885326D01*
X146225000Y-94885326D01*
X146225000Y-95785000D01*
X147124662Y-95785000D01*
X147134068Y-95636747D01*
X147129271Y-95612612D01*
X146982997Y-95272021D01*
X146717519Y-95013332D01*
X146373254Y-94875929D01*
X146225000Y-94885326D01*
X146175000Y-94885326D01*
X146026746Y-94875929D01*
X145682481Y-95013332D01*
X145417003Y-95272021D01*
X145270729Y-95612612D01*
X145265932Y-95636747D01*
X144818460Y-95636747D01*
X144763861Y-95362260D01*
X144510237Y-94982685D01*
X144416422Y-94920000D01*
X144450000Y-94920000D01*
X144610727Y-94888029D01*
X144746985Y-94796985D01*
X145407845Y-94136125D01*
X145729338Y-94350939D01*
X146177078Y-94440000D01*
X146222922Y-94440000D01*
X146670662Y-94350939D01*
X147050237Y-94097315D01*
X147303861Y-93717740D01*
X147392922Y-93270000D01*
X147303861Y-92822260D01*
X147050237Y-92442685D01*
X146670662Y-92189061D01*
X146222922Y-92100000D01*
X146177078Y-92100000D01*
X145729338Y-92189061D01*
X145349763Y-92442685D01*
X145096139Y-92822260D01*
X145007078Y-93270000D01*
X145020177Y-93335853D01*
X144795041Y-93560989D01*
X144852922Y-93270000D01*
X144763861Y-92822260D01*
X144528488Y-92470000D01*
X144880000Y-92470000D01*
X145040727Y-92438029D01*
X145176985Y-92346985D01*
X145719563Y-91804407D01*
X145729338Y-91810939D01*
X146177078Y-91900000D01*
X146222922Y-91900000D01*
X146670662Y-91810939D01*
X147050237Y-91557315D01*
X147303861Y-91177740D01*
X147392922Y-90730000D01*
X147303861Y-90282260D01*
X147050237Y-89902685D01*
X146670662Y-89649061D01*
X146222922Y-89560000D01*
X146177078Y-89560000D01*
X145729338Y-89649061D01*
X145349763Y-89902685D01*
X145096139Y-90282260D01*
X145007078Y-90730000D01*
X145096139Y-91177740D01*
X145121033Y-91214997D01*
X144706030Y-91630000D01*
X143918619Y-91630000D01*
X144177519Y-91526668D01*
X144442997Y-91267979D01*
X144589271Y-90927388D01*
X144594068Y-90903253D01*
X144584662Y-90755000D01*
X143685000Y-90755000D01*
X143685000Y-90775000D01*
X143635000Y-90775000D01*
X143635000Y-90755000D01*
X142735338Y-90755000D01*
X142725932Y-90903253D01*
X142730729Y-90927388D01*
X142877003Y-91267979D01*
X143142481Y-91526668D01*
X143401381Y-91630000D01*
X140044022Y-91630000D01*
X139923867Y-91580107D01*
X139677215Y-91579892D01*
X139449257Y-91674083D01*
X139274696Y-91848339D01*
X139180107Y-92076133D01*
X139179892Y-92322785D01*
X139274083Y-92550743D01*
X139448339Y-92725304D01*
X139676133Y-92819893D01*
X139922785Y-92820108D01*
X140150743Y-92725917D01*
X140325304Y-92551661D01*
X140359213Y-92470000D01*
X142791512Y-92470000D01*
X142556139Y-92822260D01*
X142467078Y-93270000D01*
X142556139Y-93717740D01*
X142798193Y-94080000D01*
X139856781Y-94080000D01*
X139751661Y-93974696D01*
X139523867Y-93880107D01*
X139277215Y-93879892D01*
X139049257Y-93974083D01*
X138874696Y-94148339D01*
X138780107Y-94376133D01*
X138779892Y-94622785D01*
X128350822Y-94622785D01*
X128605315Y-94517631D01*
X128906573Y-94216898D01*
X129069814Y-93823770D01*
X129070186Y-93398098D01*
X128907631Y-93004685D01*
X128606898Y-92703427D01*
X128213770Y-92540186D01*
X127788098Y-92539814D01*
X127394685Y-92702369D01*
X127093427Y-93003102D01*
X126930186Y-93396230D01*
X126929814Y-93821902D01*
X126395000Y-93821902D01*
X126395000Y-91281902D01*
X126929814Y-91281902D01*
X127092369Y-91675315D01*
X127393102Y-91976573D01*
X127786230Y-92139814D01*
X128211902Y-92140186D01*
X128605315Y-91977631D01*
X128906573Y-91676898D01*
X129069814Y-91283770D01*
X129070186Y-90858098D01*
X128945671Y-90556747D01*
X142725932Y-90556747D01*
X142735338Y-90705000D01*
X143635000Y-90705000D01*
X143635000Y-89805326D01*
X143685000Y-89805326D01*
X143685000Y-90705000D01*
X144584662Y-90705000D01*
X144594068Y-90556747D01*
X144589271Y-90532612D01*
X144442997Y-90192021D01*
X144177519Y-89933332D01*
X143833254Y-89795929D01*
X143685000Y-89805326D01*
X143635000Y-89805326D01*
X143486746Y-89795929D01*
X143142481Y-89933332D01*
X142877003Y-90192021D01*
X142730729Y-90532612D01*
X142725932Y-90556747D01*
X128945671Y-90556747D01*
X128907631Y-90464685D01*
X128606898Y-90163427D01*
X128213770Y-90000186D01*
X127788098Y-89999814D01*
X127394685Y-90162369D01*
X127093427Y-90463102D01*
X126930186Y-90856230D01*
X126929814Y-91281902D01*
X126395000Y-91281902D01*
X126395000Y-88741902D01*
X126929814Y-88741902D01*
X127092369Y-89135315D01*
X127393102Y-89436573D01*
X127786230Y-89599814D01*
X128211902Y-89600186D01*
X128605315Y-89437631D01*
X128906573Y-89136898D01*
X129069814Y-88743770D01*
X129070186Y-88318098D01*
X129017257Y-88190000D01*
X142467078Y-88190000D01*
X142556139Y-88637740D01*
X142809763Y-89017315D01*
X143189338Y-89270939D01*
X143637078Y-89360000D01*
X143682922Y-89360000D01*
X144130662Y-89270939D01*
X144510237Y-89017315D01*
X144763861Y-88637740D01*
X144852922Y-88190000D01*
X145007078Y-88190000D01*
X145096139Y-88637740D01*
X145349763Y-89017315D01*
X145729338Y-89270939D01*
X146177078Y-89360000D01*
X146222922Y-89360000D01*
X146670662Y-89270939D01*
X147050237Y-89017315D01*
X147303861Y-88637740D01*
X147392922Y-88190000D01*
X147303861Y-87742260D01*
X147050237Y-87362685D01*
X146670662Y-87109061D01*
X146222922Y-87020000D01*
X146177078Y-87020000D01*
X145729338Y-87109061D01*
X145349763Y-87362685D01*
X145096139Y-87742260D01*
X145007078Y-88190000D01*
X144852922Y-88190000D01*
X144763861Y-87742260D01*
X144510237Y-87362685D01*
X144130662Y-87109061D01*
X143682922Y-87020000D01*
X143637078Y-87020000D01*
X143189338Y-87109061D01*
X142809763Y-87362685D01*
X142556139Y-87742260D01*
X142467078Y-88190000D01*
X129017257Y-88190000D01*
X128907631Y-87924685D01*
X128606898Y-87623427D01*
X128213770Y-87460186D01*
X127788098Y-87459814D01*
X127394685Y-87622369D01*
X127093427Y-87923102D01*
X126930186Y-88316230D01*
X126929814Y-88741902D01*
X126395000Y-88741902D01*
X126395000Y-86602553D01*
X127422802Y-86602553D01*
X127511032Y-86705539D01*
X127822078Y-86838192D01*
X128160210Y-86841715D01*
X128473952Y-86715573D01*
X128488968Y-86705539D01*
X128577198Y-86602553D01*
X128000000Y-86025355D01*
X127422802Y-86602553D01*
X126395000Y-86602553D01*
X126395000Y-86150210D01*
X127148285Y-86150210D01*
X127274427Y-86463952D01*
X127284461Y-86478968D01*
X127387447Y-86567198D01*
X127964645Y-85990000D01*
X128035355Y-85990000D01*
X128612553Y-86567198D01*
X128715539Y-86478968D01*
X128848192Y-86167922D01*
X128851715Y-85829790D01*
X128779430Y-85650000D01*
X142467078Y-85650000D01*
X142556139Y-86097740D01*
X142809763Y-86477315D01*
X143189338Y-86730939D01*
X143637078Y-86820000D01*
X143682922Y-86820000D01*
X144130662Y-86730939D01*
X144510237Y-86477315D01*
X144763861Y-86097740D01*
X144852922Y-85650000D01*
X144763861Y-85202260D01*
X144510237Y-84822685D01*
X144476287Y-84800000D01*
X145023731Y-84800000D01*
X145023731Y-86500000D01*
X145046044Y-86618585D01*
X145116128Y-86727498D01*
X145223063Y-86800564D01*
X145350000Y-86826269D01*
X147050000Y-86826269D01*
X147168585Y-86803956D01*
X147277498Y-86733872D01*
X147350564Y-86626937D01*
X147376269Y-86500000D01*
X147376269Y-84800000D01*
X147353956Y-84681415D01*
X147283872Y-84572502D01*
X147176937Y-84499436D01*
X147050000Y-84473731D01*
X145350000Y-84473731D01*
X145231415Y-84496044D01*
X145122502Y-84566128D01*
X145049436Y-84673063D01*
X145023731Y-84800000D01*
X144476287Y-84800000D01*
X144130662Y-84569061D01*
X143682922Y-84480000D01*
X143637078Y-84480000D01*
X143189338Y-84569061D01*
X142809763Y-84822685D01*
X142556139Y-85202260D01*
X142467078Y-85650000D01*
X128779430Y-85650000D01*
X128725573Y-85516048D01*
X128715539Y-85501032D01*
X128612553Y-85412802D01*
X128035355Y-85990000D01*
X127964645Y-85990000D01*
X127387447Y-85412802D01*
X127284461Y-85501032D01*
X127151808Y-85812078D01*
X127148285Y-86150210D01*
X126395000Y-86150210D01*
X126395000Y-85377447D01*
X127422802Y-85377447D01*
X128000000Y-85954645D01*
X128577198Y-85377447D01*
X128488968Y-85274461D01*
X128177922Y-85141808D01*
X127839790Y-85138285D01*
X127526048Y-85264427D01*
X127511032Y-85274461D01*
X127422802Y-85377447D01*
X126395000Y-85377447D01*
X126395000Y-83661902D01*
X126929814Y-83661902D01*
X127092369Y-84055315D01*
X127393102Y-84356573D01*
X127786230Y-84519814D01*
X128211902Y-84520186D01*
X128605315Y-84357631D01*
X128906573Y-84056898D01*
X129069814Y-83663770D01*
X129070186Y-83238098D01*
X128907631Y-82844685D01*
X128606898Y-82543427D01*
X128213770Y-82380186D01*
X127788098Y-82379814D01*
X127394685Y-82542369D01*
X127093427Y-82843102D01*
X126930186Y-83236230D01*
X126929814Y-83661902D01*
X126395000Y-83661902D01*
X126395000Y-81121902D01*
X126929814Y-81121902D01*
X127092369Y-81515315D01*
X127393102Y-81816573D01*
X127786230Y-81979814D01*
X128211902Y-81980186D01*
X128605315Y-81817631D01*
X128906573Y-81516898D01*
X129069814Y-81123770D01*
X129070186Y-80698098D01*
X128907631Y-80304685D01*
X128606898Y-80003427D01*
X128213770Y-79840186D01*
X127788098Y-79839814D01*
X127394685Y-80002369D01*
X127093427Y-80303102D01*
X126930186Y-80696230D01*
X126929814Y-81121902D01*
X126395000Y-81121902D01*
X126395000Y-81038904D01*
X126524323Y-80388755D01*
X126870565Y-79870565D01*
X127388755Y-79524323D01*
X128038903Y-79395000D01*
X149961096Y-79395000D01*
X150611245Y-79524323D01*
X150611245Y-79524323D01*
G37*
X150611245Y-79524323D02*
X151129435Y-79870565D01*
X151475677Y-80388755D01*
X151605000Y-81038903D01*
X151605000Y-139961097D01*
X151475677Y-140611245D01*
X151129435Y-141129435D01*
X150611245Y-141475677D01*
X149961096Y-141605000D01*
X140038903Y-141605000D01*
X139388755Y-141475677D01*
X138870565Y-141129435D01*
X138524323Y-140611245D01*
X138395000Y-139961096D01*
X138395000Y-133910000D01*
X142467078Y-133910000D01*
X142556139Y-134357740D01*
X142809763Y-134737315D01*
X143189338Y-134990939D01*
X143637078Y-135080000D01*
X143682922Y-135080000D01*
X144130662Y-134990939D01*
X144510237Y-134737315D01*
X144763861Y-134357740D01*
X144818459Y-134083253D01*
X145265932Y-134083253D01*
X145270729Y-134107388D01*
X145417003Y-134447979D01*
X145682481Y-134706668D01*
X146026746Y-134844071D01*
X146175000Y-134834674D01*
X146175000Y-133935000D01*
X146225000Y-133935000D01*
X146225000Y-134834674D01*
X146373254Y-134844071D01*
X146717519Y-134706668D01*
X146982997Y-134447979D01*
X147129271Y-134107388D01*
X147134068Y-134083253D01*
X147124662Y-133935000D01*
X146225000Y-133935000D01*
X146175000Y-133935000D01*
X145275338Y-133935000D01*
X145265932Y-134083253D01*
X144818459Y-134083253D01*
X144852922Y-133910000D01*
X144818460Y-133736747D01*
X145265932Y-133736747D01*
X145275338Y-133885000D01*
X146175000Y-133885000D01*
X146175000Y-132985326D01*
X146225000Y-132985326D01*
X146225000Y-133885000D01*
X147124662Y-133885000D01*
X147134068Y-133736747D01*
X147129271Y-133712612D01*
X146982997Y-133372021D01*
X146717519Y-133113332D01*
X146373254Y-132975929D01*
X146225000Y-132985326D01*
X146175000Y-132985326D01*
X146026746Y-132975929D01*
X145682481Y-133113332D01*
X145417003Y-133372021D01*
X145270729Y-133712612D01*
X145265932Y-133736747D01*
X144818460Y-133736747D01*
X144763861Y-133462260D01*
X144510237Y-133082685D01*
X144130662Y-132829061D01*
X143682922Y-132740000D01*
X143637078Y-132740000D01*
X143189338Y-132829061D01*
X142809763Y-133082685D01*
X142556139Y-133462260D01*
X142467078Y-133910000D01*
X138395000Y-133910000D01*
X138395000Y-132000000D01*
X138387410Y-131961843D01*
X138387410Y-131922939D01*
X138277424Y-131370000D01*
X142467078Y-131370000D01*
X142556139Y-131817740D01*
X142809763Y-132197315D01*
X143189338Y-132450939D01*
X143637078Y-132540000D01*
X143682922Y-132540000D01*
X144130662Y-132450939D01*
X144510237Y-132197315D01*
X144763861Y-131817740D01*
X144852922Y-131370000D01*
X145007078Y-131370000D01*
X145096139Y-131817740D01*
X145349763Y-132197315D01*
X145729338Y-132450939D01*
X146177078Y-132540000D01*
X146222922Y-132540000D01*
X146670662Y-132450939D01*
X147050237Y-132197315D01*
X147303861Y-131817740D01*
X147392922Y-131370000D01*
X147303861Y-130922260D01*
X147050237Y-130542685D01*
X146670662Y-130289061D01*
X146222922Y-130200000D01*
X146177078Y-130200000D01*
X145729338Y-130289061D01*
X145349763Y-130542685D01*
X145096139Y-130922260D01*
X145007078Y-131370000D01*
X144852922Y-131370000D01*
X144763861Y-130922260D01*
X144510237Y-130542685D01*
X144130662Y-130289061D01*
X143682922Y-130200000D01*
X143637078Y-130200000D01*
X143189338Y-130289061D01*
X142809763Y-130542685D01*
X142556139Y-130922260D01*
X142467078Y-131370000D01*
X138277424Y-131370000D01*
X138235169Y-131157572D01*
X138217894Y-131115868D01*
X138176190Y-131015183D01*
X137742645Y-130366336D01*
X137688154Y-130311846D01*
X137633664Y-130257355D01*
X136984817Y-129823810D01*
X136842427Y-129764831D01*
X136077061Y-129612590D01*
X136038157Y-129612590D01*
X136000000Y-129605000D01*
X128038903Y-129605000D01*
X127388755Y-129475677D01*
X126870565Y-129129435D01*
X126670490Y-128830000D01*
X142467078Y-128830000D01*
X142556139Y-129277740D01*
X142809763Y-129657315D01*
X143189338Y-129910939D01*
X143637078Y-130000000D01*
X143682922Y-130000000D01*
X144130662Y-129910939D01*
X144510237Y-129657315D01*
X144763861Y-129277740D01*
X144852922Y-128830000D01*
X145007078Y-128830000D01*
X145096139Y-129277740D01*
X145349763Y-129657315D01*
X145729338Y-129910939D01*
X146177078Y-130000000D01*
X146222922Y-130000000D01*
X146670662Y-129910939D01*
X147050237Y-129657315D01*
X147303861Y-129277740D01*
X147392922Y-128830000D01*
X147303861Y-128382260D01*
X147050237Y-128002685D01*
X146670662Y-127749061D01*
X146222922Y-127660000D01*
X146177078Y-127660000D01*
X145729338Y-127749061D01*
X145349763Y-128002685D01*
X145096139Y-128382260D01*
X145007078Y-128830000D01*
X144852922Y-128830000D01*
X144763861Y-128382260D01*
X144510237Y-128002685D01*
X144130662Y-127749061D01*
X143682922Y-127660000D01*
X143637078Y-127660000D01*
X143189338Y-127749061D01*
X142809763Y-128002685D01*
X142556139Y-128382260D01*
X142467078Y-128830000D01*
X126670490Y-128830000D01*
X126524323Y-128611245D01*
X126395000Y-127961096D01*
X126395000Y-126463253D01*
X142725932Y-126463253D01*
X142730729Y-126487388D01*
X142877003Y-126827979D01*
X143142481Y-127086668D01*
X143486746Y-127224071D01*
X143635000Y-127214674D01*
X143635000Y-126315000D01*
X143685000Y-126315000D01*
X143685000Y-127214674D01*
X143833254Y-127224071D01*
X144177519Y-127086668D01*
X144442997Y-126827979D01*
X144589271Y-126487388D01*
X144594068Y-126463253D01*
X144584662Y-126315000D01*
X143685000Y-126315000D01*
X143635000Y-126315000D01*
X142735338Y-126315000D01*
X142725932Y-126463253D01*
X126395000Y-126463253D01*
X126395000Y-126290000D01*
X145007078Y-126290000D01*
X145096139Y-126737740D01*
X145349763Y-127117315D01*
X145729338Y-127370939D01*
X146177078Y-127460000D01*
X146222922Y-127460000D01*
X146670662Y-127370939D01*
X147050237Y-127117315D01*
X147303861Y-126737740D01*
X147392922Y-126290000D01*
X147303861Y-125842260D01*
X147050237Y-125462685D01*
X146670662Y-125209061D01*
X146222922Y-125120000D01*
X146177078Y-125120000D01*
X145729338Y-125209061D01*
X145349763Y-125462685D01*
X145096139Y-125842260D01*
X145007078Y-126290000D01*
X126395000Y-126290000D01*
X126395000Y-126116747D01*
X142725932Y-126116747D01*
X142735338Y-126265000D01*
X143635000Y-126265000D01*
X143635000Y-125365326D01*
X143685000Y-125365326D01*
X143685000Y-126265000D01*
X144584662Y-126265000D01*
X144594068Y-126116747D01*
X144589271Y-126092612D01*
X144442997Y-125752021D01*
X144177519Y-125493332D01*
X143833254Y-125355929D01*
X143685000Y-125365326D01*
X143635000Y-125365326D01*
X143486746Y-125355929D01*
X143142481Y-125493332D01*
X142877003Y-125752021D01*
X142730729Y-126092612D01*
X142725932Y-126116747D01*
X126395000Y-126116747D01*
X126395000Y-124301902D01*
X126929814Y-124301902D01*
X127092369Y-124695315D01*
X127393102Y-124996573D01*
X127786230Y-125159814D01*
X128211902Y-125160186D01*
X128605315Y-124997631D01*
X128906573Y-124696898D01*
X129069814Y-124303770D01*
X129070186Y-123878098D01*
X129017257Y-123750000D01*
X142467078Y-123750000D01*
X142556139Y-124197740D01*
X142809763Y-124577315D01*
X143189338Y-124830939D01*
X143637078Y-124920000D01*
X143682922Y-124920000D01*
X144130662Y-124830939D01*
X144510237Y-124577315D01*
X144763861Y-124197740D01*
X144852922Y-123750000D01*
X145007078Y-123750000D01*
X145096139Y-124197740D01*
X145349763Y-124577315D01*
X145729338Y-124830939D01*
X146177078Y-124920000D01*
X146222922Y-124920000D01*
X146670662Y-124830939D01*
X147050237Y-124577315D01*
X147303861Y-124197740D01*
X147392922Y-123750000D01*
X147303861Y-123302260D01*
X147050237Y-122922685D01*
X146670662Y-122669061D01*
X146222922Y-122580000D01*
X146177078Y-122580000D01*
X145729338Y-122669061D01*
X145349763Y-122922685D01*
X145096139Y-123302260D01*
X145007078Y-123750000D01*
X144852922Y-123750000D01*
X144763861Y-123302260D01*
X144510237Y-122922685D01*
X144130662Y-122669061D01*
X143682922Y-122580000D01*
X143637078Y-122580000D01*
X143189338Y-122669061D01*
X142809763Y-122922685D01*
X142556139Y-123302260D01*
X142467078Y-123750000D01*
X129017257Y-123750000D01*
X128907631Y-123484685D01*
X128606898Y-123183427D01*
X128213770Y-123020186D01*
X127788098Y-123019814D01*
X127394685Y-123182369D01*
X127093427Y-123483102D01*
X126930186Y-123876230D01*
X126929814Y-124301902D01*
X126395000Y-124301902D01*
X126395000Y-121761902D01*
X126929814Y-121761902D01*
X127092369Y-122155315D01*
X127393102Y-122456573D01*
X127786230Y-122619814D01*
X128211902Y-122620186D01*
X128605315Y-122457631D01*
X128906573Y-122156898D01*
X129069814Y-121763770D01*
X129070146Y-121383253D01*
X142725932Y-121383253D01*
X142730729Y-121407388D01*
X142877003Y-121747979D01*
X143142481Y-122006668D01*
X143486746Y-122144071D01*
X143635000Y-122134674D01*
X143635000Y-121235000D01*
X143685000Y-121235000D01*
X143685000Y-122134674D01*
X143833254Y-122144071D01*
X144177519Y-122006668D01*
X144442997Y-121747979D01*
X144589271Y-121407388D01*
X144594068Y-121383253D01*
X144584662Y-121235000D01*
X143685000Y-121235000D01*
X143635000Y-121235000D01*
X142735338Y-121235000D01*
X142725932Y-121383253D01*
X129070146Y-121383253D01*
X129070186Y-121338098D01*
X129017258Y-121210000D01*
X145007078Y-121210000D01*
X145096139Y-121657740D01*
X145349763Y-122037315D01*
X145729338Y-122290939D01*
X146177078Y-122380000D01*
X146222922Y-122380000D01*
X146670662Y-122290939D01*
X147050237Y-122037315D01*
X147303861Y-121657740D01*
X147392922Y-121210000D01*
X147303861Y-120762260D01*
X147050237Y-120382685D01*
X146670662Y-120129061D01*
X146222922Y-120040000D01*
X146177078Y-120040000D01*
X145729338Y-120129061D01*
X145349763Y-120382685D01*
X145096139Y-120762260D01*
X145007078Y-121210000D01*
X129017258Y-121210000D01*
X128945671Y-121036747D01*
X142725932Y-121036747D01*
X142735338Y-121185000D01*
X143635000Y-121185000D01*
X143635000Y-120285326D01*
X143685000Y-120285326D01*
X143685000Y-121185000D01*
X144584662Y-121185000D01*
X144594068Y-121036747D01*
X144589271Y-121012612D01*
X144442997Y-120672021D01*
X144177519Y-120413332D01*
X143833254Y-120275929D01*
X143685000Y-120285326D01*
X143635000Y-120285326D01*
X143486746Y-120275929D01*
X143142481Y-120413332D01*
X142877003Y-120672021D01*
X142730729Y-121012612D01*
X142725932Y-121036747D01*
X128945671Y-121036747D01*
X128907631Y-120944685D01*
X128606898Y-120643427D01*
X128213770Y-120480186D01*
X127788098Y-120479814D01*
X127394685Y-120642369D01*
X127093427Y-120943102D01*
X126930186Y-121336230D01*
X126929814Y-121761902D01*
X126395000Y-121761902D01*
X126395000Y-119221902D01*
X126929814Y-119221902D01*
X127092369Y-119615315D01*
X127393102Y-119916573D01*
X127786230Y-120079814D01*
X128211902Y-120080186D01*
X128605315Y-119917631D01*
X128906573Y-119616898D01*
X129069814Y-119223770D01*
X129070186Y-118798098D01*
X129017257Y-118670000D01*
X142467078Y-118670000D01*
X142556139Y-119117740D01*
X142809763Y-119497315D01*
X143189338Y-119750939D01*
X143637078Y-119840000D01*
X143682922Y-119840000D01*
X144130662Y-119750939D01*
X144510237Y-119497315D01*
X144763861Y-119117740D01*
X144852922Y-118670000D01*
X145007078Y-118670000D01*
X145096139Y-119117740D01*
X145349763Y-119497315D01*
X145729338Y-119750939D01*
X146177078Y-119840000D01*
X146222922Y-119840000D01*
X146670662Y-119750939D01*
X147050237Y-119497315D01*
X147303861Y-119117740D01*
X147392922Y-118670000D01*
X147303861Y-118222260D01*
X147050237Y-117842685D01*
X146670662Y-117589061D01*
X146222922Y-117500000D01*
X146177078Y-117500000D01*
X145729338Y-117589061D01*
X145349763Y-117842685D01*
X145096139Y-118222260D01*
X145007078Y-118670000D01*
X144852922Y-118670000D01*
X144763861Y-118222260D01*
X144510237Y-117842685D01*
X144130662Y-117589061D01*
X143682922Y-117500000D01*
X143637078Y-117500000D01*
X143189338Y-117589061D01*
X142809763Y-117842685D01*
X142556139Y-118222260D01*
X142467078Y-118670000D01*
X129017257Y-118670000D01*
X128907631Y-118404685D01*
X128606898Y-118103427D01*
X128213770Y-117940186D01*
X127788098Y-117939814D01*
X127394685Y-118102369D01*
X127093427Y-118403102D01*
X126930186Y-118796230D01*
X126929814Y-119221902D01*
X126395000Y-119221902D01*
X126395000Y-116681902D01*
X126929814Y-116681902D01*
X127092369Y-117075315D01*
X127393102Y-117376573D01*
X127786230Y-117539814D01*
X128211902Y-117540186D01*
X128605315Y-117377631D01*
X128906573Y-117076898D01*
X129069814Y-116683770D01*
X129070186Y-116258098D01*
X129017257Y-116130000D01*
X142467078Y-116130000D01*
X142556139Y-116577740D01*
X142809763Y-116957315D01*
X143189338Y-117210939D01*
X143637078Y-117300000D01*
X143682922Y-117300000D01*
X144130662Y-117210939D01*
X144510237Y-116957315D01*
X144763861Y-116577740D01*
X144818459Y-116303253D01*
X145265932Y-116303253D01*
X145270729Y-116327388D01*
X145417003Y-116667979D01*
X145682481Y-116926668D01*
X146026746Y-117064071D01*
X146175000Y-117054674D01*
X146175000Y-116155000D01*
X146225000Y-116155000D01*
X146225000Y-117054674D01*
X146373254Y-117064071D01*
X146717519Y-116926668D01*
X146982997Y-116667979D01*
X147129271Y-116327388D01*
X147134068Y-116303253D01*
X147124662Y-116155000D01*
X146225000Y-116155000D01*
X146175000Y-116155000D01*
X145275338Y-116155000D01*
X145265932Y-116303253D01*
X144818459Y-116303253D01*
X144852922Y-116130000D01*
X144818460Y-115956747D01*
X145265932Y-115956747D01*
X145275338Y-116105000D01*
X146175000Y-116105000D01*
X146175000Y-115205326D01*
X146225000Y-115205326D01*
X146225000Y-116105000D01*
X147124662Y-116105000D01*
X147134068Y-115956747D01*
X147129271Y-115932612D01*
X146982997Y-115592021D01*
X146717519Y-115333332D01*
X146373254Y-115195929D01*
X146225000Y-115205326D01*
X146175000Y-115205326D01*
X146026746Y-115195929D01*
X145682481Y-115333332D01*
X145417003Y-115592021D01*
X145270729Y-115932612D01*
X145265932Y-115956747D01*
X144818460Y-115956747D01*
X144763861Y-115682260D01*
X144510237Y-115302685D01*
X144130662Y-115049061D01*
X143682922Y-114960000D01*
X143637078Y-114960000D01*
X143189338Y-115049061D01*
X142809763Y-115302685D01*
X142556139Y-115682260D01*
X142467078Y-116130000D01*
X129017257Y-116130000D01*
X128907631Y-115864685D01*
X128606898Y-115563427D01*
X128213770Y-115400186D01*
X127788098Y-115399814D01*
X127394685Y-115562369D01*
X127093427Y-115863102D01*
X126930186Y-116256230D01*
X126929814Y-116681902D01*
X126395000Y-116681902D01*
X126395000Y-114141902D01*
X126929814Y-114141902D01*
X127092369Y-114535315D01*
X127393102Y-114836573D01*
X127786230Y-114999814D01*
X128211902Y-115000186D01*
X128605315Y-114837631D01*
X128906573Y-114536898D01*
X129069814Y-114143770D01*
X129070186Y-113718098D01*
X129017257Y-113590000D01*
X142467078Y-113590000D01*
X142556139Y-114037740D01*
X142809763Y-114417315D01*
X143189338Y-114670939D01*
X143637078Y-114760000D01*
X143682922Y-114760000D01*
X144130662Y-114670939D01*
X144510237Y-114417315D01*
X144763861Y-114037740D01*
X144852922Y-113590000D01*
X145007078Y-113590000D01*
X145096139Y-114037740D01*
X145349763Y-114417315D01*
X145729338Y-114670939D01*
X146177078Y-114760000D01*
X146222922Y-114760000D01*
X146670662Y-114670939D01*
X147050237Y-114417315D01*
X147303861Y-114037740D01*
X147392922Y-113590000D01*
X147303861Y-113142260D01*
X147050237Y-112762685D01*
X146670662Y-112509061D01*
X146222922Y-112420000D01*
X146177078Y-112420000D01*
X145729338Y-112509061D01*
X145349763Y-112762685D01*
X145096139Y-113142260D01*
X145007078Y-113590000D01*
X144852922Y-113590000D01*
X144763861Y-113142260D01*
X144510237Y-112762685D01*
X144130662Y-112509061D01*
X143682922Y-112420000D01*
X143637078Y-112420000D01*
X143189338Y-112509061D01*
X142809763Y-112762685D01*
X142556139Y-113142260D01*
X142467078Y-113590000D01*
X129017257Y-113590000D01*
X128907631Y-113324685D01*
X128606898Y-113023427D01*
X128213770Y-112860186D01*
X127788098Y-112859814D01*
X127394685Y-113022369D01*
X127093427Y-113323102D01*
X126930186Y-113716230D01*
X126929814Y-114141902D01*
X126395000Y-114141902D01*
X126395000Y-111601902D01*
X126929814Y-111601902D01*
X127092369Y-111995315D01*
X127393102Y-112296573D01*
X127786230Y-112459814D01*
X128211902Y-112460186D01*
X128605315Y-112297631D01*
X128906573Y-111996898D01*
X129069814Y-111603770D01*
X129070186Y-111178098D01*
X129017257Y-111050000D01*
X142467078Y-111050000D01*
X142556139Y-111497740D01*
X142809763Y-111877315D01*
X143189338Y-112130939D01*
X143637078Y-112220000D01*
X143682922Y-112220000D01*
X144130662Y-112130939D01*
X144510237Y-111877315D01*
X144763861Y-111497740D01*
X144852922Y-111050000D01*
X145007078Y-111050000D01*
X145096139Y-111497740D01*
X145349763Y-111877315D01*
X145729338Y-112130939D01*
X146177078Y-112220000D01*
X146222922Y-112220000D01*
X146670662Y-112130939D01*
X147050237Y-111877315D01*
X147303861Y-111497740D01*
X147392922Y-111050000D01*
X147303861Y-110602260D01*
X147050237Y-110222685D01*
X146670662Y-109969061D01*
X146222922Y-109880000D01*
X146177078Y-109880000D01*
X145729338Y-109969061D01*
X145349763Y-110222685D01*
X145096139Y-110602260D01*
X145007078Y-111050000D01*
X144852922Y-111050000D01*
X144763861Y-110602260D01*
X144510237Y-110222685D01*
X144130662Y-109969061D01*
X143682922Y-109880000D01*
X143637078Y-109880000D01*
X143189338Y-109969061D01*
X142809763Y-110222685D01*
X142556139Y-110602260D01*
X142467078Y-111050000D01*
X129017257Y-111050000D01*
X128907631Y-110784685D01*
X128606898Y-110483427D01*
X128213770Y-110320186D01*
X127788098Y-110319814D01*
X127394685Y-110482369D01*
X127093427Y-110783102D01*
X126930186Y-111176230D01*
X126929814Y-111601902D01*
X126395000Y-111601902D01*
X126395000Y-109061902D01*
X126929814Y-109061902D01*
X127092369Y-109455315D01*
X127393102Y-109756573D01*
X127786230Y-109919814D01*
X128211902Y-109920186D01*
X128605315Y-109757631D01*
X128906573Y-109456898D01*
X129069814Y-109063770D01*
X129070146Y-108683253D01*
X142725932Y-108683253D01*
X142730729Y-108707388D01*
X142877003Y-109047979D01*
X143142481Y-109306668D01*
X143486746Y-109444071D01*
X143635000Y-109434674D01*
X143635000Y-108535000D01*
X143685000Y-108535000D01*
X143685000Y-109434674D01*
X143833254Y-109444071D01*
X144177519Y-109306668D01*
X144442997Y-109047979D01*
X144589271Y-108707388D01*
X144594068Y-108683253D01*
X144584662Y-108535000D01*
X143685000Y-108535000D01*
X143635000Y-108535000D01*
X142735338Y-108535000D01*
X142725932Y-108683253D01*
X129070146Y-108683253D01*
X129070186Y-108638098D01*
X129017258Y-108510000D01*
X145007078Y-108510000D01*
X145096139Y-108957740D01*
X145349763Y-109337315D01*
X145729338Y-109590939D01*
X146177078Y-109680000D01*
X146222922Y-109680000D01*
X146670662Y-109590939D01*
X147050237Y-109337315D01*
X147303861Y-108957740D01*
X147392922Y-108510000D01*
X147303861Y-108062260D01*
X147050237Y-107682685D01*
X146670662Y-107429061D01*
X146222922Y-107340000D01*
X146177078Y-107340000D01*
X145729338Y-107429061D01*
X145349763Y-107682685D01*
X145096139Y-108062260D01*
X145007078Y-108510000D01*
X129017258Y-108510000D01*
X128945671Y-108336747D01*
X142725932Y-108336747D01*
X142735338Y-108485000D01*
X143635000Y-108485000D01*
X143635000Y-107585326D01*
X143685000Y-107585326D01*
X143685000Y-108485000D01*
X144584662Y-108485000D01*
X144594068Y-108336747D01*
X144589271Y-108312612D01*
X144442997Y-107972021D01*
X144177519Y-107713332D01*
X143833254Y-107575929D01*
X143685000Y-107585326D01*
X143635000Y-107585326D01*
X143486746Y-107575929D01*
X143142481Y-107713332D01*
X142877003Y-107972021D01*
X142730729Y-108312612D01*
X142725932Y-108336747D01*
X128945671Y-108336747D01*
X128907631Y-108244685D01*
X128606898Y-107943427D01*
X128213770Y-107780186D01*
X127788098Y-107779814D01*
X127394685Y-107942369D01*
X127093427Y-108243102D01*
X126930186Y-108636230D01*
X126929814Y-109061902D01*
X126395000Y-109061902D01*
X126395000Y-106521902D01*
X126929814Y-106521902D01*
X127092369Y-106915315D01*
X127393102Y-107216573D01*
X127786230Y-107379814D01*
X128211902Y-107380186D01*
X128605315Y-107217631D01*
X128906573Y-106916898D01*
X129069814Y-106523770D01*
X129070186Y-106098098D01*
X129017257Y-105970000D01*
X142467078Y-105970000D01*
X142556139Y-106417740D01*
X142809763Y-106797315D01*
X143189338Y-107050939D01*
X143637078Y-107140000D01*
X143682922Y-107140000D01*
X144130662Y-107050939D01*
X144510237Y-106797315D01*
X144763861Y-106417740D01*
X144852922Y-105970000D01*
X145007078Y-105970000D01*
X145096139Y-106417740D01*
X145349763Y-106797315D01*
X145729338Y-107050939D01*
X146177078Y-107140000D01*
X146222922Y-107140000D01*
X146670662Y-107050939D01*
X147050237Y-106797315D01*
X147303861Y-106417740D01*
X147392922Y-105970000D01*
X147303861Y-105522260D01*
X147050237Y-105142685D01*
X146670662Y-104889061D01*
X146222922Y-104800000D01*
X146177078Y-104800000D01*
X145729338Y-104889061D01*
X145349763Y-105142685D01*
X145096139Y-105522260D01*
X145007078Y-105970000D01*
X144852922Y-105970000D01*
X144763861Y-105522260D01*
X144510237Y-105142685D01*
X144130662Y-104889061D01*
X143682922Y-104800000D01*
X143637078Y-104800000D01*
X143189338Y-104889061D01*
X142809763Y-105142685D01*
X142556139Y-105522260D01*
X142467078Y-105970000D01*
X129017257Y-105970000D01*
X128907631Y-105704685D01*
X128606898Y-105403427D01*
X128213770Y-105240186D01*
X127788098Y-105239814D01*
X127394685Y-105402369D01*
X127093427Y-105703102D01*
X126930186Y-106096230D01*
X126929814Y-106521902D01*
X126395000Y-106521902D01*
X126395000Y-103981902D01*
X126929814Y-103981902D01*
X127092369Y-104375315D01*
X127393102Y-104676573D01*
X127786230Y-104839814D01*
X128211902Y-104840186D01*
X128605315Y-104677631D01*
X128906573Y-104376898D01*
X129069814Y-103983770D01*
X129070186Y-103558098D01*
X128907631Y-103164685D01*
X128606898Y-102863427D01*
X128213770Y-102700186D01*
X127788098Y-102699814D01*
X127394685Y-102862369D01*
X127093427Y-103163102D01*
X126930186Y-103556230D01*
X126929814Y-103981902D01*
X126395000Y-103981902D01*
X126395000Y-101441902D01*
X126929814Y-101441902D01*
X127092369Y-101835315D01*
X127393102Y-102136573D01*
X127786230Y-102299814D01*
X128211902Y-102300186D01*
X128399226Y-102222785D01*
X138779892Y-102222785D01*
X138874083Y-102450743D01*
X139048339Y-102625304D01*
X139276133Y-102719893D01*
X139522785Y-102720108D01*
X139750743Y-102625917D01*
X139806758Y-102570000D01*
X142858680Y-102570000D01*
X142809763Y-102602685D01*
X142556139Y-102982260D01*
X142467078Y-103430000D01*
X142556139Y-103877740D01*
X142809763Y-104257315D01*
X143189338Y-104510939D01*
X143637078Y-104600000D01*
X143682922Y-104600000D01*
X144130662Y-104510939D01*
X144510237Y-104257315D01*
X144763861Y-103877740D01*
X144852922Y-103430000D01*
X145007078Y-103430000D01*
X145096139Y-103877740D01*
X145349763Y-104257315D01*
X145729338Y-104510939D01*
X146177078Y-104600000D01*
X146222922Y-104600000D01*
X146670662Y-104510939D01*
X147050237Y-104257315D01*
X147303861Y-103877740D01*
X147392922Y-103430000D01*
X147303861Y-102982260D01*
X147050237Y-102602685D01*
X146670662Y-102349061D01*
X146222922Y-102260000D01*
X146177078Y-102260000D01*
X145729338Y-102349061D01*
X145349763Y-102602685D01*
X145096139Y-102982260D01*
X145007078Y-103430000D01*
X144852922Y-103430000D01*
X144763861Y-102982260D01*
X144510237Y-102602685D01*
X144461320Y-102570000D01*
X144940000Y-102570000D01*
X145100727Y-102538029D01*
X145236985Y-102446985D01*
X145719563Y-101964407D01*
X145729338Y-101970939D01*
X146177078Y-102060000D01*
X146222922Y-102060000D01*
X146670662Y-101970939D01*
X147050237Y-101717315D01*
X147303861Y-101337740D01*
X147392922Y-100890000D01*
X147303861Y-100442260D01*
X147050237Y-100062685D01*
X146670662Y-99809061D01*
X146222922Y-99720000D01*
X146177078Y-99720000D01*
X145729338Y-99809061D01*
X145349763Y-100062685D01*
X145096139Y-100442260D01*
X145007078Y-100890000D01*
X145096139Y-101337740D01*
X145121033Y-101374997D01*
X144766030Y-101730000D01*
X144068950Y-101730000D01*
X144177519Y-101686668D01*
X144442997Y-101427979D01*
X144589271Y-101087388D01*
X144594068Y-101063253D01*
X144584662Y-100915000D01*
X143685000Y-100915000D01*
X143685000Y-100935000D01*
X143635000Y-100935000D01*
X143635000Y-100915000D01*
X142735338Y-100915000D01*
X142725932Y-101063253D01*
X142730729Y-101087388D01*
X142877003Y-101427979D01*
X143142481Y-101686668D01*
X143251050Y-101730000D01*
X139906694Y-101730000D01*
X139751661Y-101574696D01*
X139523867Y-101480107D01*
X139277215Y-101479892D01*
X139049257Y-101574083D01*
X138874696Y-101748339D01*
X138780107Y-101976133D01*
X138779892Y-102222785D01*
X128399226Y-102222785D01*
X128605315Y-102137631D01*
X128906573Y-101836898D01*
X129069814Y-101443770D01*
X129070186Y-101018098D01*
X128907631Y-100624685D01*
X128606898Y-100323427D01*
X128213770Y-100160186D01*
X127788098Y-100159814D01*
X127394685Y-100322369D01*
X127093427Y-100623102D01*
X126930186Y-101016230D01*
X126929814Y-101441902D01*
X126395000Y-101441902D01*
X126395000Y-99722785D01*
X138779892Y-99722785D01*
X138874083Y-99950743D01*
X139048339Y-100125304D01*
X139276133Y-100219893D01*
X139522785Y-100220108D01*
X139750743Y-100125917D01*
X139856845Y-100020000D01*
X143326215Y-100020000D01*
X143142481Y-100093332D01*
X142877003Y-100352021D01*
X142730729Y-100692612D01*
X142725932Y-100716747D01*
X142735338Y-100865000D01*
X143635000Y-100865000D01*
X143635000Y-100845000D01*
X143685000Y-100845000D01*
X143685000Y-100865000D01*
X144584662Y-100865000D01*
X144594068Y-100716747D01*
X144589271Y-100692612D01*
X144442997Y-100352021D01*
X144177519Y-100093332D01*
X143993785Y-100020000D01*
X144950000Y-100020000D01*
X145110727Y-99988029D01*
X145246985Y-99896985D01*
X145719563Y-99424407D01*
X145729338Y-99430939D01*
X146177078Y-99520000D01*
X146222922Y-99520000D01*
X146670662Y-99430939D01*
X147050237Y-99177315D01*
X147303861Y-98797740D01*
X147392922Y-98350000D01*
X147303861Y-97902260D01*
X147050237Y-97522685D01*
X146670662Y-97269061D01*
X146222922Y-97180000D01*
X146177078Y-97180000D01*
X145729338Y-97269061D01*
X145349763Y-97522685D01*
X145096139Y-97902260D01*
X145007078Y-98350000D01*
X145096139Y-98797740D01*
X145121033Y-98834997D01*
X144776030Y-99180000D01*
X144506219Y-99180000D01*
X144510237Y-99177315D01*
X144763861Y-98797740D01*
X144852922Y-98350000D01*
X144763861Y-97902260D01*
X144510237Y-97522685D01*
X144130662Y-97269061D01*
X143682922Y-97180000D01*
X143637078Y-97180000D01*
X143189338Y-97269061D01*
X142809763Y-97522685D01*
X142556139Y-97902260D01*
X142467078Y-98350000D01*
X142556139Y-98797740D01*
X142809763Y-99177315D01*
X142813781Y-99180000D01*
X139856781Y-99180000D01*
X139751661Y-99074696D01*
X139523867Y-98980107D01*
X139277215Y-98979892D01*
X139049257Y-99074083D01*
X138874696Y-99248339D01*
X138780107Y-99476133D01*
X138779892Y-99722785D01*
X126395000Y-99722785D01*
X126395000Y-99302553D01*
X127422802Y-99302553D01*
X127511032Y-99405539D01*
X127822078Y-99538192D01*
X128160210Y-99541715D01*
X128473952Y-99415573D01*
X128488968Y-99405539D01*
X128577198Y-99302553D01*
X128000000Y-98725355D01*
X127422802Y-99302553D01*
X126395000Y-99302553D01*
X126395000Y-98850210D01*
X127148285Y-98850210D01*
X127274427Y-99163952D01*
X127284461Y-99178968D01*
X127387447Y-99267198D01*
X127964645Y-98690000D01*
X128035355Y-98690000D01*
X128612553Y-99267198D01*
X128715539Y-99178968D01*
X128848192Y-98867922D01*
X128851715Y-98529790D01*
X128725573Y-98216048D01*
X128715539Y-98201032D01*
X128612553Y-98112802D01*
X128035355Y-98690000D01*
X127964645Y-98690000D01*
X127387447Y-98112802D01*
X127284461Y-98201032D01*
X127151808Y-98512078D01*
X127148285Y-98850210D01*
X126395000Y-98850210D01*
X126395000Y-98077447D01*
X127422802Y-98077447D01*
X128000000Y-98654645D01*
X128577198Y-98077447D01*
X128488968Y-97974461D01*
X128177922Y-97841808D01*
X127839790Y-97838285D01*
X127526048Y-97964427D01*
X127511032Y-97974461D01*
X127422802Y-98077447D01*
X126395000Y-98077447D01*
X126395000Y-96361902D01*
X126929814Y-96361902D01*
X127092369Y-96755315D01*
X127393102Y-97056573D01*
X127786230Y-97219814D01*
X128211902Y-97220186D01*
X128605315Y-97057631D01*
X128906573Y-96756898D01*
X129069814Y-96363770D01*
X129070186Y-95938098D01*
X128907631Y-95544685D01*
X128606898Y-95243427D01*
X128213770Y-95080186D01*
X127788098Y-95079814D01*
X127394685Y-95242369D01*
X127093427Y-95543102D01*
X126930186Y-95936230D01*
X126929814Y-96361902D01*
X126395000Y-96361902D01*
X126395000Y-93821902D01*
X126929814Y-93821902D01*
X127092369Y-94215315D01*
X127393102Y-94516573D01*
X127786230Y-94679814D01*
X128211902Y-94680186D01*
X128350822Y-94622785D01*
X138779892Y-94622785D01*
X138874083Y-94850743D01*
X139048339Y-95025304D01*
X139276133Y-95119893D01*
X139522785Y-95120108D01*
X139750743Y-95025917D01*
X139856845Y-94920000D01*
X142903578Y-94920000D01*
X142809763Y-94982685D01*
X142556139Y-95362260D01*
X142467078Y-95810000D01*
X142556139Y-96257740D01*
X142809763Y-96637315D01*
X143189338Y-96890939D01*
X143637078Y-96980000D01*
X143682922Y-96980000D01*
X144130662Y-96890939D01*
X144510237Y-96637315D01*
X144763861Y-96257740D01*
X144818459Y-95983253D01*
X145265932Y-95983253D01*
X145270729Y-96007388D01*
X145417003Y-96347979D01*
X145682481Y-96606668D01*
X146026746Y-96744071D01*
X146175000Y-96734674D01*
X146175000Y-95835000D01*
X146225000Y-95835000D01*
X146225000Y-96734674D01*
X146373254Y-96744071D01*
X146717519Y-96606668D01*
X146982997Y-96347979D01*
X147129271Y-96007388D01*
X147134068Y-95983253D01*
X147124662Y-95835000D01*
X146225000Y-95835000D01*
X146175000Y-95835000D01*
X145275338Y-95835000D01*
X145265932Y-95983253D01*
X144818459Y-95983253D01*
X144852922Y-95810000D01*
X144818460Y-95636747D01*
X145265932Y-95636747D01*
X145275338Y-95785000D01*
X146175000Y-95785000D01*
X146175000Y-94885326D01*
X146225000Y-94885326D01*
X146225000Y-95785000D01*
X147124662Y-95785000D01*
X147134068Y-95636747D01*
X147129271Y-95612612D01*
X146982997Y-95272021D01*
X146717519Y-95013332D01*
X146373254Y-94875929D01*
X146225000Y-94885326D01*
X146175000Y-94885326D01*
X146026746Y-94875929D01*
X145682481Y-95013332D01*
X145417003Y-95272021D01*
X145270729Y-95612612D01*
X145265932Y-95636747D01*
X144818460Y-95636747D01*
X144763861Y-95362260D01*
X144510237Y-94982685D01*
X144416422Y-94920000D01*
X144450000Y-94920000D01*
X144610727Y-94888029D01*
X144746985Y-94796985D01*
X145407845Y-94136125D01*
X145729338Y-94350939D01*
X146177078Y-94440000D01*
X146222922Y-94440000D01*
X146670662Y-94350939D01*
X147050237Y-94097315D01*
X147303861Y-93717740D01*
X147392922Y-93270000D01*
X147303861Y-92822260D01*
X147050237Y-92442685D01*
X146670662Y-92189061D01*
X146222922Y-92100000D01*
X146177078Y-92100000D01*
X145729338Y-92189061D01*
X145349763Y-92442685D01*
X145096139Y-92822260D01*
X145007078Y-93270000D01*
X145020177Y-93335853D01*
X144795041Y-93560989D01*
X144852922Y-93270000D01*
X144763861Y-92822260D01*
X144528488Y-92470000D01*
X144880000Y-92470000D01*
X145040727Y-92438029D01*
X145176985Y-92346985D01*
X145719563Y-91804407D01*
X145729338Y-91810939D01*
X146177078Y-91900000D01*
X146222922Y-91900000D01*
X146670662Y-91810939D01*
X147050237Y-91557315D01*
X147303861Y-91177740D01*
X147392922Y-90730000D01*
X147303861Y-90282260D01*
X147050237Y-89902685D01*
X146670662Y-89649061D01*
X146222922Y-89560000D01*
X146177078Y-89560000D01*
X145729338Y-89649061D01*
X145349763Y-89902685D01*
X145096139Y-90282260D01*
X145007078Y-90730000D01*
X145096139Y-91177740D01*
X145121033Y-91214997D01*
X144706030Y-91630000D01*
X143918619Y-91630000D01*
X144177519Y-91526668D01*
X144442997Y-91267979D01*
X144589271Y-90927388D01*
X144594068Y-90903253D01*
X144584662Y-90755000D01*
X143685000Y-90755000D01*
X143685000Y-90775000D01*
X143635000Y-90775000D01*
X143635000Y-90755000D01*
X142735338Y-90755000D01*
X142725932Y-90903253D01*
X142730729Y-90927388D01*
X142877003Y-91267979D01*
X143142481Y-91526668D01*
X143401381Y-91630000D01*
X140044022Y-91630000D01*
X139923867Y-91580107D01*
X139677215Y-91579892D01*
X139449257Y-91674083D01*
X139274696Y-91848339D01*
X139180107Y-92076133D01*
X139179892Y-92322785D01*
X139274083Y-92550743D01*
X139448339Y-92725304D01*
X139676133Y-92819893D01*
X139922785Y-92820108D01*
X140150743Y-92725917D01*
X140325304Y-92551661D01*
X140359213Y-92470000D01*
X142791512Y-92470000D01*
X142556139Y-92822260D01*
X142467078Y-93270000D01*
X142556139Y-93717740D01*
X142798193Y-94080000D01*
X139856781Y-94080000D01*
X139751661Y-93974696D01*
X139523867Y-93880107D01*
X139277215Y-93879892D01*
X139049257Y-93974083D01*
X138874696Y-94148339D01*
X138780107Y-94376133D01*
X138779892Y-94622785D01*
X128350822Y-94622785D01*
X128605315Y-94517631D01*
X128906573Y-94216898D01*
X129069814Y-93823770D01*
X129070186Y-93398098D01*
X128907631Y-93004685D01*
X128606898Y-92703427D01*
X128213770Y-92540186D01*
X127788098Y-92539814D01*
X127394685Y-92702369D01*
X127093427Y-93003102D01*
X126930186Y-93396230D01*
X126929814Y-93821902D01*
X126395000Y-93821902D01*
X126395000Y-91281902D01*
X126929814Y-91281902D01*
X127092369Y-91675315D01*
X127393102Y-91976573D01*
X127786230Y-92139814D01*
X128211902Y-92140186D01*
X128605315Y-91977631D01*
X128906573Y-91676898D01*
X129069814Y-91283770D01*
X129070186Y-90858098D01*
X128945671Y-90556747D01*
X142725932Y-90556747D01*
X142735338Y-90705000D01*
X143635000Y-90705000D01*
X143635000Y-89805326D01*
X143685000Y-89805326D01*
X143685000Y-90705000D01*
X144584662Y-90705000D01*
X144594068Y-90556747D01*
X144589271Y-90532612D01*
X144442997Y-90192021D01*
X144177519Y-89933332D01*
X143833254Y-89795929D01*
X143685000Y-89805326D01*
X143635000Y-89805326D01*
X143486746Y-89795929D01*
X143142481Y-89933332D01*
X142877003Y-90192021D01*
X142730729Y-90532612D01*
X142725932Y-90556747D01*
X128945671Y-90556747D01*
X128907631Y-90464685D01*
X128606898Y-90163427D01*
X128213770Y-90000186D01*
X127788098Y-89999814D01*
X127394685Y-90162369D01*
X127093427Y-90463102D01*
X126930186Y-90856230D01*
X126929814Y-91281902D01*
X126395000Y-91281902D01*
X126395000Y-88741902D01*
X126929814Y-88741902D01*
X127092369Y-89135315D01*
X127393102Y-89436573D01*
X127786230Y-89599814D01*
X128211902Y-89600186D01*
X128605315Y-89437631D01*
X128906573Y-89136898D01*
X129069814Y-88743770D01*
X129070186Y-88318098D01*
X129017257Y-88190000D01*
X142467078Y-88190000D01*
X142556139Y-88637740D01*
X142809763Y-89017315D01*
X143189338Y-89270939D01*
X143637078Y-89360000D01*
X143682922Y-89360000D01*
X144130662Y-89270939D01*
X144510237Y-89017315D01*
X144763861Y-88637740D01*
X144852922Y-88190000D01*
X145007078Y-88190000D01*
X145096139Y-88637740D01*
X145349763Y-89017315D01*
X145729338Y-89270939D01*
X146177078Y-89360000D01*
X146222922Y-89360000D01*
X146670662Y-89270939D01*
X147050237Y-89017315D01*
X147303861Y-88637740D01*
X147392922Y-88190000D01*
X147303861Y-87742260D01*
X147050237Y-87362685D01*
X146670662Y-87109061D01*
X146222922Y-87020000D01*
X146177078Y-87020000D01*
X145729338Y-87109061D01*
X145349763Y-87362685D01*
X145096139Y-87742260D01*
X145007078Y-88190000D01*
X144852922Y-88190000D01*
X144763861Y-87742260D01*
X144510237Y-87362685D01*
X144130662Y-87109061D01*
X143682922Y-87020000D01*
X143637078Y-87020000D01*
X143189338Y-87109061D01*
X142809763Y-87362685D01*
X142556139Y-87742260D01*
X142467078Y-88190000D01*
X129017257Y-88190000D01*
X128907631Y-87924685D01*
X128606898Y-87623427D01*
X128213770Y-87460186D01*
X127788098Y-87459814D01*
X127394685Y-87622369D01*
X127093427Y-87923102D01*
X126930186Y-88316230D01*
X126929814Y-88741902D01*
X126395000Y-88741902D01*
X126395000Y-86602553D01*
X127422802Y-86602553D01*
X127511032Y-86705539D01*
X127822078Y-86838192D01*
X128160210Y-86841715D01*
X128473952Y-86715573D01*
X128488968Y-86705539D01*
X128577198Y-86602553D01*
X128000000Y-86025355D01*
X127422802Y-86602553D01*
X126395000Y-86602553D01*
X126395000Y-86150210D01*
X127148285Y-86150210D01*
X127274427Y-86463952D01*
X127284461Y-86478968D01*
X127387447Y-86567198D01*
X127964645Y-85990000D01*
X128035355Y-85990000D01*
X128612553Y-86567198D01*
X128715539Y-86478968D01*
X128848192Y-86167922D01*
X128851715Y-85829790D01*
X128779430Y-85650000D01*
X142467078Y-85650000D01*
X142556139Y-86097740D01*
X142809763Y-86477315D01*
X143189338Y-86730939D01*
X143637078Y-86820000D01*
X143682922Y-86820000D01*
X144130662Y-86730939D01*
X144510237Y-86477315D01*
X144763861Y-86097740D01*
X144852922Y-85650000D01*
X144763861Y-85202260D01*
X144510237Y-84822685D01*
X144476287Y-84800000D01*
X145023731Y-84800000D01*
X145023731Y-86500000D01*
X145046044Y-86618585D01*
X145116128Y-86727498D01*
X145223063Y-86800564D01*
X145350000Y-86826269D01*
X147050000Y-86826269D01*
X147168585Y-86803956D01*
X147277498Y-86733872D01*
X147350564Y-86626937D01*
X147376269Y-86500000D01*
X147376269Y-84800000D01*
X147353956Y-84681415D01*
X147283872Y-84572502D01*
X147176937Y-84499436D01*
X147050000Y-84473731D01*
X145350000Y-84473731D01*
X145231415Y-84496044D01*
X145122502Y-84566128D01*
X145049436Y-84673063D01*
X145023731Y-84800000D01*
X144476287Y-84800000D01*
X144130662Y-84569061D01*
X143682922Y-84480000D01*
X143637078Y-84480000D01*
X143189338Y-84569061D01*
X142809763Y-84822685D01*
X142556139Y-85202260D01*
X142467078Y-85650000D01*
X128779430Y-85650000D01*
X128725573Y-85516048D01*
X128715539Y-85501032D01*
X128612553Y-85412802D01*
X128035355Y-85990000D01*
X127964645Y-85990000D01*
X127387447Y-85412802D01*
X127284461Y-85501032D01*
X127151808Y-85812078D01*
X127148285Y-86150210D01*
X126395000Y-86150210D01*
X126395000Y-85377447D01*
X127422802Y-85377447D01*
X128000000Y-85954645D01*
X128577198Y-85377447D01*
X128488968Y-85274461D01*
X128177922Y-85141808D01*
X127839790Y-85138285D01*
X127526048Y-85264427D01*
X127511032Y-85274461D01*
X127422802Y-85377447D01*
X126395000Y-85377447D01*
X126395000Y-83661902D01*
X126929814Y-83661902D01*
X127092369Y-84055315D01*
X127393102Y-84356573D01*
X127786230Y-84519814D01*
X128211902Y-84520186D01*
X128605315Y-84357631D01*
X128906573Y-84056898D01*
X129069814Y-83663770D01*
X129070186Y-83238098D01*
X128907631Y-82844685D01*
X128606898Y-82543427D01*
X128213770Y-82380186D01*
X127788098Y-82379814D01*
X127394685Y-82542369D01*
X127093427Y-82843102D01*
X126930186Y-83236230D01*
X126929814Y-83661902D01*
X126395000Y-83661902D01*
X126395000Y-81121902D01*
X126929814Y-81121902D01*
X127092369Y-81515315D01*
X127393102Y-81816573D01*
X127786230Y-81979814D01*
X128211902Y-81980186D01*
X128605315Y-81817631D01*
X128906573Y-81516898D01*
X129069814Y-81123770D01*
X129070186Y-80698098D01*
X128907631Y-80304685D01*
X128606898Y-80003427D01*
X128213770Y-79840186D01*
X127788098Y-79839814D01*
X127394685Y-80002369D01*
X127093427Y-80303102D01*
X126930186Y-80696230D01*
X126929814Y-81121902D01*
X126395000Y-81121902D01*
X126395000Y-81038904D01*
X126524323Y-80388755D01*
X126870565Y-79870565D01*
X127388755Y-79524323D01*
X128038903Y-79395000D01*
X149961096Y-79395000D01*
X150611245Y-79524323D01*
M02*
