M48
;DRILL file {KiCad 4.0.7-e1-6374~58~ubuntu14.04.1} date Fri Aug 25 00:07:33 2017
;FORMAT={-:-/ absolute / inch / decimal}
FMAT,2
INCH,TZ
T1C0.012
T2C0.037
T3C0.039
%
G90
G05
M72
T1
X5.4882Y-3.7205
X5.4882Y-3.9213
X5.4882Y-4.0197
X5.5039Y-3.6299
T2
X5.0394Y-3.1854
X5.0394Y-3.2854
X5.0394Y-3.3854
X5.0394Y-3.4854
X5.0394Y-3.5854
X5.0394Y-3.6854
X5.0394Y-3.7854
X5.0394Y-3.8854
X5.0394Y-3.9854
X5.0394Y-4.0854
X5.0394Y-4.1854
X5.0394Y-4.2854
X5.0394Y-4.3854
X5.0394Y-4.4854
X5.0394Y-4.5854
X5.0394Y-4.6854
X5.0394Y-4.7854
X5.0394Y-4.8854
T3
X5.6559Y-3.372
X5.6559Y-3.472
X5.6559Y-3.572
X5.6559Y-3.672
X5.6559Y-3.772
X5.6559Y-3.872
X5.6559Y-3.972
X5.6559Y-4.072
X5.6559Y-4.172
X5.6559Y-4.272
X5.6559Y-4.372
X5.6559Y-4.472
X5.6559Y-4.572
X5.6559Y-4.672
X5.6559Y-4.772
X5.6559Y-4.872
X5.6559Y-4.972
X5.6559Y-5.072
X5.6559Y-5.172
X5.6559Y-5.272
X5.7559Y-3.372
X5.7559Y-3.472
X5.7559Y-3.572
X5.7559Y-3.672
X5.7559Y-3.772
X5.7559Y-3.872
X5.7559Y-3.972
X5.7559Y-4.072
X5.7559Y-4.172
X5.7559Y-4.272
X5.7559Y-4.372
X5.7559Y-4.472
X5.7559Y-4.572
X5.7559Y-4.672
X5.7559Y-4.772
X5.7559Y-4.872
X5.7559Y-4.972
X5.7559Y-5.072
X5.7559Y-5.172
X5.7559Y-5.272
T0
M30
